<mxfile host="app.diagrams.net" modified="2023-06-07T06:10:34.381Z" agent="Mozilla/5.0 (Macintosh; Intel Mac OS X 10_15_7) AppleWebKit/537.36 (KHTML, like Gecko) Chrome/113.0.0.0 Safari/537.36" etag="9tIcvlTdj3WW1XKwxQXq" version="21.3.7" type="device">
  <diagram name="ページ1" id="9mniEPpNxkrTruc_QsaK">
    <mxGraphModel dx="1194" dy="684" grid="1" gridSize="10" guides="1" tooltips="1" connect="1" arrows="1" fold="1" page="1" pageScale="1" pageWidth="827" pageHeight="1169" math="0" shadow="0">
      <root>
        <mxCell id="0" />
        <mxCell id="1" parent="0" />
        <mxCell id="uTAIC4A_mwOgiY2apxrA-1" value="" style="shape=image;verticalLabelPosition=bottom;labelBackgroundColor=default;verticalAlign=top;aspect=fixed;imageAspect=0;image=data:image/png,iVBORw0KGgoAAAANSUhEUgAAASwAAAF0CAYAAACZoATvAAAACXBIWXMAAAsSAAALEgHS3X78AAAdqElEQVR4nO3d2bMjZ3mA8bd1zhnb4BmTm7iAylUCXiABCuyqXISlDCQVsgAVjG0wMGYxGMhS3CQX+RuyEAwk4DEYbOPxEtt4G6DsIqkKgUBMgCqzVEgCY89ge5h9O0fqVOuodSQdtdTLt7zf9z1P1dSMZ+luSa2f3261pCzPcyGKtb0/6/ceeqp/Zz/P32LiJmp7tpjaHmO3q+OCFv3zTOSuXrfFE+mtxGogZrAifxVY/fELV68ELIqyWayyjMc51Eqs3vZrKwPAouiyOVnhntsmsSpWDFgUVakdBsYM6CxWAlgUU5yziqd5WAlgUSyBVbe0TGrZAqyKVv1sFpG5wEpRWbdLG7JM7v6jF8zHSpiwKPTAKp5GWL2tCisBLAo5sIqnOlgJYFGogVU81cVKAItCDKziqQlWAlgUWl2w4mp3XTXFSgCLQorJKp7aYCWARaGkCSsGtW61xUoAi0KIySqeumAlgEXaA6t46oqVABZpDqziyQRWwltzSGtDrA707xpI/mYepLAzhZUwYZHGxljlYBV6JrESwCJtgVU8mcZKAIs0BVbxZAMrASzSEljFky2shJPupCGwiqeeyN1/aAkrYcIi34FV97RceW8bKwEs8hlYxZMLrASwyFdgFU+usBLAIh+Bldl8fn2+S6wEsMh1YBVPrrESwCKXgVU8+cBKAItcBVbx5AsrASxyEVjFk0+sBLDIdmAVT76xEsAim4FVPGnASgCLbAVW8aQFKwEsshFYxZMmrASwyHQFVo+AVRRpw0oAi0xWYtUHq+DTiJUAFpkqJax8vhXGRVqxEsAiEzFZxZNmrASwqGshYZXHPhp1TDtWwieOUpeYrOKpwOoPlGMlTFjUNrCKp1CwEsCiNoFVPIWElQAWNa0OVpwqCqPQsBLAoiYxWcVTiFgJYFHdwCqeQsVKAIvqBFZ6a3r4HTJWAli0LLCKp9CxEsCiRcWElamLRkN9QSEGrASwqKq2WPEKob5iwUoAi+bFYWA8xYSVABbNBlbxFBtWAlg0GVjFU4xYCWBRGVjFU6xYCWCRGMSKE+7+ixkrASxKYbKK9ZKG2e2JHSsBrLTjMDCeUsBKACvdwCqeUsFKACvNtr6KS8Aq8FLCSgArvWxhxQl396WGlfCZ7mmV4mQV6xdP9DK5503PTwsrYcJKp3lY5cxFtdN0T42w+pPUsBLASiPOWcVTylgJYMWfC6yY09yUOlYCWHG3CCsOB8MKrDYDrEjjMDCeE+5gtRVgRZhLrFKY03zeRrCaDrAiqw5WHA6GEVhtD7AiisPAeAKr+QFWJNXFyuR0pXlOC/n8FVhVB1gRxGQVT2C1OMAKPLCym8tBDayWB1gB1xSrVA4HQwys6gVYgcZkVV1o56/Aqn6AFWBtsOJSBp2BVbMAK7A0TFap0Gf7doJV8wAroDgMXF4oh4Ng1S7ACqQuWHGyXVdg1T7ACiAmK/fZghmsugVYyuuKFSfb9QRW3QMsxWmbrLTTp/n8FViZCbCUZgIrpisdgZW5AEthGs9ZpUSfydsKVmYDLGWZwiq16Urj4SBYmQ+wFKUVKw4smwdWdgIsJXHpQvtMTlcmFgVW9gIsBZnEihPtfgMruwGW57RPVvBXP7CyH2B5zDRWKU5XWg4HwcpNgOWpEM5ZMV3VC6zcBVgesoEVrwz6CazcBliOCwGrUPJ9OAhW7gMsh4Vy6QLT1fLAyk+A5ShbWDFduQ+s/AVYDgoJqxT5a3KbwcpvgGU5rmCPJ7DyH2BZzCZWKU9XPk62g5WOAMtSoWFF1YGVngDLQiEeBqY4XdUJrHQFWIazjRUn2s217HaDlb4Ay2AhYhVSLqcrsNIZYBkqVKyYrrYHVnoDLAOBlf1cTVdgpTvA6hjXWYVXlX1gpT/A6pALrJiu3ExXYBVGgNUysIonsAonwGpRyFiFlunpanZxYBVWgNWw0LGCwa3AKrwAq0Fg5Tab0xVYhRlg1YzDwHgCq3ADrBrFgBXT1WZgFXaAtSSwiiewCj/AWhBY+cnGdAVWcQRYFYFVPIFVPAHWnDjB7i/T01UGVlG1mvodMFssWHEouDlZ/T5YRRUT1kRgFU9gFWeANQqs/GZyugKreAMssIoqsIq75MECK/+Zmq7AKv6SBgus/AdW1KRkXyXkCyPiCazSKckJKyasUp+uwCqtkgMLrHQEVtSmpMACq3gCqzRL5hyWTaxcn68KHauu0xVYpVsSExZY6QmsqEvRT1i2sPLxKiCHgWCVelFPWGClqy7TFViRxDxh2cAKqNoHVmSiKCcssIonsKLJopuwTGPl64r1mLBqO12BFc0WFVgmsfL51hqwAiuaXzRgmcLK93sAwQqsqLoozmGBVTyBFS0q+AnLBFZAZb420xVY0bKCBqsrVho+AgasNgMrqlOwYLXFStPnVIHVZmBFdQsSrDZYaftAPbDaDKyoScGB1RQroNIbWFHTggKrLlZaP544ZqyaTldgRW0KBqw6WAGVn8CKXBUEWIuw0v5lD2A1HVhRl9SDNQ+rEL6RJoVzVWBFrlMNVolVP8+tfW+gjcBqe2BFJlILVohYpfIKIFiRr1S+lxCs9AZW5DN1E1ZoWKV0XRVYke9UgRUSVlwAujiwIhupASsUrFKFqsl0BVZkKxVghYBVyhMVWJGWvIOlHavUD/3AijTlFSzNWKUOlYAVKcwbWFqxAqrNwIo05gUsjVgB1VZgRVpzDpY2rIBqK66zIu05BUsLViC1PbCiEHIGlgasgGp+YEWh5AQsn1iB1OLAikLKOlg+sAKpeoEVhZZVsFxiBVLNAisKMWtg2cYKoNoHVhRqVsCyhRVIdQ+sKOSMg2UKK3AyG19ySjFkFKy2WIGT3cCKYskYWMuwAiU/gRXFlBGwCqweGn4VV1jfbhN7YEWx1RkssNJXG6gErCiAOn1rDljpC6wo5lqDBVb6AiuKvVaHhGClq7ZQSSJYXffvZ97eF3lN8ets9Hv5gjst3/prrcpz3a8x2di4Lvvg3OXN2cwszw82BgusdAVWi9v9jdM39LPsE+VfyssnbNbJpMo2l21rwWoWs33T7NydkyvZv3rq1EWNwAIrPXX9P1oaWJ2Zwsp21sYqxfOak03LZf/ayZMXfe6KXzlR+xwWWOkJrJa3iZVsw8rWEywErIK8FjKX/fnBZy4usJK657DASkcmzhOAFZnK+v2Zy345+MzFt735hcfL31o6YYGVjsCqXj6wYrqyUJ4/uf7fP7/k1gmsZNmEBVb+M/XqC1jZKVWsrAI4xGr/xXvf8evHZv+ocsICK/+BVf3AKpIWYCVVYIGV3wqowKp+VVhRYNNVnj958gc/vaQKK5l3SAhW/jJ98V3qWKU+XYWI1T+/75Kji/7a1IQFVv4Cq+aBVRzlg/ypY99+4tJlWMnkhAVWfjINlYBVmFgZLpTpqsDq+HeeuOT+j7z8SJ2/P5ywwMp9Js9TTQZW9rL7ypjKRVmtwOrIv33/0rpYFa2CldtsIFUGVoEWwIYb38QRVg9+7FWHm/yz1Yee6t85ELCynU2oBKysP+dDOW8VxKFgf3Dg8Dd+0Birot5KJl81vT20la1Dv8nAym4pn7cyXn9wYP07T7TCqqj3T5ftuHEtyz6s+1aGlwuoBKzCxiq1Q8H+4MDpb3zvJXs/+opftl3E8KQ7aJnLFVQCVmBlb3HDbGB198cuP9RlMePrsECrWy6hErACK3uLM19/cODE1x9/aVesZPbCUdBqVomUS6gErPiYGAcZu48LrP7l8Zfe+1e//ayJxWXzPtv6/d86e8N6nvPerIpcAzUZWNmP6crQcjf6B4//63dfct9fmsFKqt78zKQ1Px/T1GRgZT+wMofVCcNYSdWEVcak5ReoycDKfmBlFqt7DWMlyz5xNNVJy9e5qarAyn6pX75grI3+waOPfvulNrCSZRNWWQqTlhacZgMr+zn4bHLNizO3mSOsvvzXv/OMmS3aXi2wJFK0tCJVluL3Bk4GVtYXNy4ErKQJWBIJWtqRKmOysl9oWFlaZPflOsJKmoIlgaIVClJlTFb2AytDy3WIlbQBSwJAKzSgJmOysh9YGVquY6ykLViiDK2QgZqMycp+YGVouR6wki5giSe0YsFptiyTe97EV3FZzcl6AnqfYOtle8JKuoIlltGKFafJ8tFkFT9W8ycrsHK+yGEhYiUmwJKOaKWA0rzKm50GVkxWShbZbVM9YyWmwJI5aKUK0bIm7xYmK/uBlaFlK8BKTIJV9L5vnf3Q+iC/0dgCI2r2Xmaysh9YGVq2Eqxk2XsJm/aZy3Z8cq2X3eBkywMon/gxWTqT1TRWOVj5WOS40LES02AJaA1b9MRM9TDQ5RmCULGyWQxYiQ2wJGG0lk0Q6RwGgpWixbZLIVZiCyxJCK2qw77ZUj4MdBVYGVq2UqzE9En3ecV4Ir7pPZbiCXbX0wJYGVq2YqzE5oRVFtOk1eakcYqTVZRYWQqsmmV9wioLddLqcu8wWdnP2fpif0UwAKzExYRVFtKkVfe81KJSm6xcXrJQBlaGCgQrcQmWKEYrN4RUWQpYvfHRUzcdWt/CynUhY2W7RpscEFbi8pBwMg2Hh7ZudQpYXfHoqS8c3ZB3FL9+/rmZXLAjc7Zup3tr7CfZA8NKfIElHtBycStTwmpyt3nBeW7QAiuDyw4QK/EJllhGy/WtShWrMttogZXBZQeKlfgGSwyi5fNWpILVkfXNw8CqbKEFVgaXHzBWogEsaYGWpvOgYDWdabTAyuDyA8dKtIAlFWhpf4EGrOZnAq0YoLK86GbLjwArcX1Zw6LKSx5MXl5gM7Cq7slTuRw52/4RBCvDy48EK9EElozQ2hHAxaVgtby2aIGV4eVHhJVoA0sCQAus6tcULbAyvPzIsBKNYIlitMCqeXXQcn4KIGCsahchVqIVLFGIFli1bxFazp/ggWNVax2RYiWawRJFaIFV9+ahBVYW1hExVqLpsoZFFZc8nPX03kOwMltxycMuh+89HAdWUaR6wirzNWmBlfn2d7zkoVVgFU1BgCUe0AIr85VPvK7XadXO8tl8sHJfMGCJQ7TAymzz3LCOlmVNwMpPQYElDtACK7MtetJZQwusoi04sMQiWmBlrrpHY8bRAquoCxIssYAWWJmr6ZPaGFpgFX3BgiUG0QIrM3U5x90JLQeXyoOVjoIGSwygBVZmMvGEboWWoxcbVawjcawkBrCkA1pg1T3Tw00jtMAquaIAS0ZorWb10QKr7tl6MtdCC6ySLBqwim66vB5aYNUtF5+uUImWo492ACudRQWW1EALrLrl8k0129AK/+L4qfUsDay2FcSbn9t03TfPfmgjn37DNFi1z+deMvyM+LV4vvcQrNoX3YRVNjtpgVW7fH++fj56w/ThdbtbAVZhFO2EVVZMWgPJ3wBWzdKwV8xuQzFpPc/CpAVW4RQ9WCmUAlZlptECq7BaTf0OCD2TWGmGqqw4EV9kAi2wCi/ACjhTWGmZsetuR1e0XN5esDIbYAWaCaxCg2qytmiBVdgBVoB1xUrTWcsu29IULbAKP8AKrFiwMrUdddECqzgCrIDqglUsU9W8FqHl+naDld0AK5DaYhUzVJPNQwus4guwAqgpVhqvrHOxTZNogVWcAZbymmCVKlSTDdHKRS5w+GWtYOUuwFJcXay0vlfB13Y9eXpzzbbRqn37wMpYgKW0OlgBVXW20QIrPwGWwpZhpfndn5q2zRZaYOUvwFJWFVba36KudftMowVWfgMsRc3DCqi6ZwotsPIfYClpFiugMltXtMBKR4CloBKrUBAI9RPU2qDV6LaClfUAy3MFVocdfH28iWL4qMcmaIGVvgDLY6FgFdtn0tZBC6x0BlieCgGrmD88exFaYKU3wPKQdqxS+ZT/WbQa326wch5gOU4zVil+HUmJ1q6mrx6ClZei/V5CjWnFyvd3D/puf9XX4lcFVt5iwnKURqz4gjeR8lvuyo+mWfrqIVh5DbAcpA0roNqCarKlaIGV9wDLcpqwAqrNFn13cCVaYKUiwLKYFqyAarO6X3K+DS2wUhNgWUoDVkC1VV2sysZo9QZgpagsb/pI0tJ+77FTv/v0WXnY1z3FIzpd2108Gwzk6IP7rvnJx99ym7WNo0YBlqVcT1g8itvrsmsXWP3Pw1+R04d+KTtPnr384F3Xf8vahlLtuA7LUl973XnvfN6afNH2elK/hqoqU1gVHXvOjm9e+NZPX2Z1g6lWTFiWszVp8ajNr+vuPIvVZExa/gMsB13x6KkvHl6Xa7quiUdqcTaxKtt1av2yA3d+4D/MbjnVDbAc1RYtHp16ucCqbNfp9csO7AUtHwGWw5qgxaNSLxO7bxOsynadXn/Vgb0f+Hb3tVOTAMtxV3zt5K2H+9nV89bKI9EsX1iVq911ZuOVB+94/3cM3BSqGWB5aBIt7v3mmdplu2BVtmt98IqDt7/3cTNbRMvisgYPfe2K51yzqze4DayaVUClCauio2u9/7zwqs++3MxW0bKYsDz2uq+euPXIoDf38JCmM7mbNsWqzqp3bQxefvC2936388bRwpiwPPbo6597zQW9AW/7WJDJqUosYVV0dLX3+IVXf/ZlnTaOlsaEpSAmrfmZ3jVtYTXZBYP8ZQe+eN1/td1GWhxgKem1Xz1x29FB76rU7wexAJU0xKrr6neJ/NbBW3Z/r+NiaE6ApajU0bK1Kw6xemifnD50WGTJJyCb2oSdmfzmLz6/+/uGFkejOIelqMde/9yrd2X9L6V4221jdWY4WeWVIpl+E/mxXL534btvfonBRSafAJa+HnvD+VelhJbpk+qTDbF6cJ+ceXbzMHD87YMz67N1jHF0kH//V9/zuUstLT7JAEthKaBlEyqZxKo8ZzVa1yxatk+IHOsPfgBa5gIspcWKlm2opMTqga3Jamvloz8f/jK3vh1lQ7Suu+USN2uLO066K++1+4596aisXhnDbXGxqxVY/W+B1aFDI5+ybSfa89F/V/25rc7J5JLDn9/9hJu1xRlgBVDoaLnaxcZYPXtojNAkSlOb4RCtyefYuau9iw/f/J4f2ltb3AFWIL32K8dvP5qvvD2kbXa5a21i9cj0YeAESvk8lBygNe/5BVrt4xxWIA3PacnGHSFsrYvzVJMNsfryI3LmmUPTp9GnXhCcc0lDxYl4U1UNA6c3Bk9c8J6bLzJ/T8QfYAXUY2/c+XbNJ+JdQyUjrP6vwKo4DJQSoXz2l9UoWUJr2ZHLmQKt3Z97sZm1pROHhAGm7ZyWr11oiNX9j4zPWZWbMfw5E5k6xlt2+Gfo8LDp8+mctZWLjux594/arS29mLACbDhpKTg89DFRlW1i9fDMZDUxIOWy7fBQLE9abf7nf2a9/0MmrfoBVqD5RMsnVFJidd/DU+esSp+mBiOHaHU5UgGt+nFIGHguDw817CoFVj+772E5PZqsqg7/tl/CYOfw0OTzh8PD5QFWBNlGS8suMsTq3oeHF4UWDab+UJyjZeO5A1qLA6xIsoGWql1jMJCf3/vQ5hXs5aXqNVCygZbt5wxoVQdYEWUCLZW7wwir088cmkDFD1q5o+85Aq35cdI9orqciPd9Ir2ywUD2l1jJtpcBa51oN3UiPs8Hzr6XjRPx82PCirAmk5bqh7+YrO55cPPtNhXvBXQxaQ2fIx7eMF2s9twdTFqTAVakLUNL+8OeF5PVPQ+M3hu4CCWxitbU88PpG6a3fg1aWwFWxM2iFcJDPdzEAqu7HxhPVpu5RWswvLPcv2G66jECrc0AK/IKtI7k+j+aZrwXTmJV5hit8sT6ohPxm9d/mdVq2VMRtAAriV6zT/dH02xh1Zf9dz0gZ4pvt5nNAVpTT4WqSxoyWx9DU+/vpY4WYCXSax7R9yGAU3veCKuzo8kqnze9WERr68T67J9nw9fS526PoZo+BVNGC7ASSsuktW2PK7C68wE5O/Mlpy7QymevrBr9ed7LrE1T43V3eOqlihZgJZbPSWvunlZiVZ6zmgHCJlrjfT/b/Jz3Yl15r+fskoWupYgWYCWYa7Qq97BBX56884HRR8Rsf6Vu/O8NozV5+DecpFYyq4d8s5l8yqWGFmAlmgu0Fu5ZI6zOjq5gzysuLxgvyxBaxeUK+UpvE6qeO6TE4mUlKaEFWAlnC62le1SB1d7iMPDQ9L+ziNagl8lgBJWPbD/NUkELsBLPJFq19qT+9GS1HSUxhlYxSQ16BVZuzktV5eoplgJagEWd0aq9B/X78tTeL9c4ZyWt0RoiNfrh6pMVqvLx1IodLcCiYW3QarTnjLCqf85q2Z9PXJpQHO6t9iQvfmSZ9c+rqpOPTShXeV7EaAEWjauDVqu9ZQar8bI6oFVcftBf20JKHHywXp18bcLsamNFC7Boqiq0Wu8lQ6zul7NPV11nJbXRKiepwdrK1MlzLfuwFqzKYkQLsGhbk2h12jsKrO64f2KyyqZ+Kls8SRVIrUh/x8rcV/hSnqqkxuMTG1qARXN79SPHbj8qq+3fxtPvy4ECq6cPTXyzjdRDKxPpr60MJ6liopoXU1X9YkILsKiy1mgVWH3p/qlzVsvQKs5DFUAV56WKn6tKHSppOfXGghZg0cJeve/4bUfzlatq30slVk9vv85qHlrFoV7xYxFSoggqCRCrshjQAixaWu1Ja4zVs6PfmDNJFVedF0itbUK17EPwgGq0bkPLCR0twKJaLZ20+n05WGD1i2fnTlKDtZ5snLM6xKruG43BarRuw8sLGS3AotpVTloFVrdPTlajt8as9mTj3FXp71ht9B4+oJpYv6XlhooWYFGjtqE1xOq+4WRVTFODEqlzmiElyqCSyKaqeYWIFmBR48ZojbAqvjCiOB+1ce5a5WUIiwKqmfU7XFdoaAEWteryO56646f7vv62kyeOt0JKFEIliWFVttLLXnzqlt0/9rDqxvFV9dSqb175/CtPnzj+F20nKo1Tle9DQB+rLx6Hjf7gR+ddu+dFHlbfOCYs6tTOqz/75xurvb+pswwmqopt8LHOOTd8daWnftICLOrczmtu+rONlexvq5ajdR9L8fBPljwe2tECLDLSLFqa96tUpyqp+bhoRguwyFgFWus9qZy0fJcyVNLwfyJa0QIsMppGtLTs4pqnqnlpRItXCclox2697u/WBvKnWu5VsGq/Zo2vHjJhkZV2XnPTR9d78ve+7t3UoRKD5xE1TVqARdbaee2eD6/n+T+4vIc17c4hTlVVaUELsMhq57/jpo9sZPJx2+sBqtG6Ld4RGtACLLLezmv33LCe55+wsR6gmli/gzvDN1qARU4yjZa23TbWqWpePtHiVUJy0rFbdt+4lmUfNrEubVNVSlgVrW/4e/UQsMhZQ7R62Q1t1+f7DcqzpXAIuH2dmz/7QotDQnLeznft+dD6IL+x7no5/JtZv6c7ZN5q11bdHh4CFnnp/Hft+eDGIP/konVr3DVTnqqqcokWYJG3qtACqjnrVzRVzcsVWoBFXjv/XTdfvzEYfEqAqnoblGNV5gItwCLvnffOPdcP8vxT2h4JsGqebbQAi1R03jtvun6Qiwq0gKpbNtHisgZS0akvXPfpXiYf9Lktvq+pGm9HwFiJ5UsemLBIVc+5ds8H+oP80y63ScszwOdz0caqbUxaTFikqpO37P7HlV52vattSh0rmxfj2pi0mLBIZbYnrdShEoevypqctACL1GYDLU17ewpYlQ3y/EWD29/3k67LASxSnSm0gKpct4d1ju79PJfOaHEOi1TX9ZyWllf+ylLFqijL5Me9qz7zG12Wx4RFQdR00tK2V/t+nvnGaur3O0xagEXBVActoJpdv6f1Lnkk2qIFWBRUVWhp3IuZqpb83RZoARYF1yRaQDVv/Z7W2+LRaIoWYFGQFWhtOL4iflkankshYTX+tw3Q4lVCCrLi1cNVh1fELwus2tfk1UMmLAo635MWUBlcXo1JC7Ao+HygpeV5EwtW4+UuQYtDQgo+14eHWqaq2LCSGoeHTFgUTbYnLaYqdyuumrQAi6LKBlqpQyWOsRqvcw5agEXRZQotTc+NBLEqm0ILsCjKuqLFVOUdqsnGaAEWRVsbtJiqRuvWg1XZEC3AoqirixZQTaxfH1ZlLwIsir7z333zKweDfFcIt3NjkN7zcaNf80aLyP8DI00SKQk5ZYoAAAAASUVORK5CYII=;" vertex="1" parent="1">
          <mxGeometry x="200" y="382.4" width="40" height="49.6" as="geometry" />
        </mxCell>
        <mxCell id="uTAIC4A_mwOgiY2apxrA-4" value="" style="shape=image;html=1;verticalAlign=top;verticalLabelPosition=bottom;labelBackgroundColor=#ffffff;imageAspect=0;aspect=fixed;image=https://cdn4.iconfinder.com/data/icons/essential-app-1/16/mobile-phone-smart-screen-128.png" vertex="1" parent="1">
          <mxGeometry x="100" y="432" width="128" height="128" as="geometry" />
        </mxCell>
        <mxCell id="uTAIC4A_mwOgiY2apxrA-9" value="" style="image;sketch=0;aspect=fixed;html=1;points=[];align=center;fontSize=12;image=img/lib/mscae/Docker.svg;" vertex="1" parent="1">
          <mxGeometry x="560" y="388" width="70" height="57.4" as="geometry" />
        </mxCell>
        <mxCell id="uTAIC4A_mwOgiY2apxrA-10" value="" style="shape=image;verticalLabelPosition=bottom;labelBackgroundColor=default;verticalAlign=top;aspect=fixed;imageAspect=0;image=data:image/png,iVBORw0KGgoAAAANSUhEUgAAAP8AAADhCAMAAAAwCpMTAAAC2VBMVEUAAAAA//8AgP8Aqv8Av78AmcwAqtUAttsAn98AquMAs8wAotEAqtUAsdgApNsAqt0Ar88ApdIAqtUArtcAptkAqtsArtwAsdMAqtUArdYAsdgAqtkArdsAsNMAqtUArdYAr9cAqtgArdoAr9sAqtUArNYArtcArtoAqtUArNUArtYAqtcArNgArtkAqtUArNUArdYAqtcArNgArdkAqtkArNUAqtcAq9cArdgAqtkAq9UAqtcAq9cArdgArtgAq9UArdYArtYAq9cArNcArtgAq9kArNYArdYAq9cArNcArdgAq9gArNYArdYAq9cArNcArdgAq9gArNgArdYAq9YArdcAq9gArNgArdYAq9YArNcArdcAq9gArNgArdYAq9YArNcArdcAq9cArNgArNgAq9YArNYArdcArNgArNgArNYArNcArdcAq9cArNgArdYAq9YArNcArdcAq9cArNgAq9YArNcArdcAq9cArNcArdgAq9YArNYArdcAq9cArNcArdgAq9gArNcAq9cArNcArNcAq9gArNYArNcAq9cArNcAq9gArNYArNYArdcArNcArNcArNgArNYArdcArNcArdcArNgArNYArdcArNcArNcArdcArNgArNYArdcAq9cArNcArNcAq9cArNgArNYAq9cArNcArNcAq9cArNgArNYAq9cArNcArNcAq9cArNcAq9cArNcArNcArdcArNcArNgArdYArNcArNcArNcArNcArdYArNcArNcArdcArNcArNcArNgArNcArNcArNcArNcArNcArNcArNYArNcArNcArNcArNcArNcArNYArNcArNcArNcArNcArNcArNgArNcArNcAq9cArNcArNcAq9cArNcArNcArdcArNcArNcArdcArNgArNcArNcArNcArNcArNcArNcArNcArNcArNcArNcArNcArNcArNcArNcArNcArNf///8XPp0lAAAA8XRSTlMAAQIDBAUGBwgJCgsMDQ4PEBESExQVFhcYGRobHB0eHyAhIiMkJSYpKissLS4vMDEyMzQ1Njc5Ojs8PT9AQUJDREVGR0hJSktMTU5PUFFSU1RVVldYWltcXV5fYGFiY2RlZmdoaWprbW5vcXJzdHV2d3h5ent9fn+AgYKDhIWGh4iJi4yNjo+QkZKUlZaXmJmanJ2eoKGio6SlpqeoqaqrrK2ur7CxsrO0tba3uLm6u72+v8DBwsPExcfIycrLzM3Oz9DR0tPU1dbX2Nna29zd3t/g4eLj5OXm5+jp6uvs7e7v8PHy8/T19vf4+fr7/P3+rLdEGAAAAAFiS0dE8tu2jngAAAc0SURBVBgZ7cGPX9T1HQfwFwecP1AQSCAxHUXzx6aBiqXMpKXzR87UbU5Nc7p0c2I1J1iaQiXMsZJmZa0508yfs7U2S+cSXf4iViTTYZ6/gOKnwN3rP9jD0+jO+3zvvt/v8fjeub2fTwghhBBCCCGEEEIIIYQQQgghhBBCCCGEEEIIIYQQQgghhBBCCCGEEEIIIYQQQgghxP++XvHx8TH4/xOVuXDd3so6ul35545nJiTCvO7J6ZmZmYPicEuIvP/Z9xvp41j+QBgVnTH/uT2fOXlD/am3nxjVFeHMdv+LF6jl2Jxo6NZzxobDV+mrZdeceISp2CWV9OvskmjokfiTPS3U1Lp1JMJQSvEXDKh8DAIa9VozAzg4CWGme149dfl9PPyJ/PEJ6rHvboSTmdXU68x90GT74cfUqWWVHeGi7zs0oP1JaBhURgMO9Ud4mHKBxhRHQCHyyRYacmUCwoBtrYtGbbDBR+pBGtW+GCEXt48mbMDNci7ThPU2hFbKUZqyCN4WXKUpRQip1E9pTnsOPD1Fs1YihJJP0az/xONrj9M010yETMIpmvcyOuQyCPXpCJHovzAIrjG4YT6DctSO0HiFQTlmg9uwJgZnOUJiMYM0A9fc4WCQmvohBEa2MUjlNgBRBxi036FzjN20JbAsuMVUUJvzYP5DafHxt2fNevkMtY0HkEd/Lv5h2biBd96dPfc3J6jNmY7OcF8rA6tNhVspNTlWJKGDbfweFzWsBIa3UtPpvGE2dBj0QiO1FKMTpF6gDrPhlkMtNUu7wFtWGX21H1oz2oZuFdRyYGokvKVuooa6HgjeXuqwMwLXRJ2khlcT4MNeQm8n10+OwzX51FA9DQoP1VFtLoKXdGdgaZFwy6Va7VQoreJXXGWFOT1wwx2NVHsxFkpDHVTaDksl1FDp/BBoKOI1l7YsTIeHzVRqewxavl1DlYausFI+lU6nQ0vEusrduUNt8JLhokrTg9A2zkmV78JCMZepcqE/jHmDKs6H4U8RVZbDQsuo0pgBY77RRpWl8Cv2PBU2w4z0eQsMeDQJ131ClSUwqJgq+xDA41SogAn3NNGQUXDLosoHNhgTdZEKTXchgLgm+mqNgGG3naUh52xwW0cF1xAYNJYqeQhoGxViYdh2GlMEt4hqKuyCt36//dO7/lVT4Ys4BDSPCmkwKmJMjlqm2uAouA2iSja89HbQlCIE9k0qDINVFlPhU3grpinO/gjM1kJfD8Iqf6TCr+GlTzNN+RB6nKavibDKGSp8D14KaE4e9DhMXzmwSIyLCsnwlNRAc4ZDj8P0NQqdKC3T1wBcN5gKl+ClgOY026CHg76Go/PMp0oG3CZT4e/w1LOW5pyEHl1d9DUYnSaxhioD4LaICu/A089p0nbo8S0q9ESnKaBSb7jlUuEteIj6N016HXosoq/P0XnmFXZYX9phOa5bQYUt8PB9mrUVemyhr/dgldVU2A8P79Os3dDBfom+SmGVVVT4F742jKZ9Ah1mUOExWOUXVGiyo0MBTXPFIbA/U+EuWGU2Vb6DDs/RvAcQ0EgXfVXCMhOpsgYdbn/pUJmPcuryGgKJPEqFElgmgyqVUfDrderSEIsAFlBlEizTzUmVR+DPQur0S/iX0UyFs1GwzmmqlNuhbUADdarvC396V1FlBSy0k0oF0BR3nLptjYC25BNUaUmChZZSyZkNDT0O0oA8aEotp9KrsNIQqtUOh1LvA1SpqqCSaxY0jHVQqbk/rBThoFrdvVAYUkWlWc9TzZUXAQX7ynaqrYW11lND22o7btK94CqVjtpGUMu2VPjI+ZgaHD1hraHUdHJmNDzELD1HNecI4Bi1NK6OhZfsHdQ0F1Y7Qm3n1o6Pg1vSpFdqqaUEwGJqq984NgY39M09Tm1vwXIz6Jez6h/vvld2kX5U9gDQ7Rz9afvojcLCwtI91fSnOhGWi/iIwWnNwDU/ZdDaRyEEHmZwlsGtSwWDlYeQ2MZglOCG0S4GpxihkVJD83ZH4iubGJS3IxEic2jaiQR06FHOIBzohpBZR5PKesHDwC9p2v5YhE70fppSkQIv2S006U07QqnXEZpwrA9uMttFUzbaEVpxH9KwTV3h4wetNK5xJkKu9wc0xvWMDQrTWmhU1b0IA/ZSGnF+ItQGlNMQZ2E3hIdHv6RumxOhJXEvDfhsAsJG2t+oT9U0+DP9InWqWxKNMGJbfJmBXVnaBf712eKiDg1FqQgzvZ5tpn/nn45HYPfscDGAz5++DWGo71NnqMn11xnR0GfIC3XU1rZnShTClG3cRgcVat6c3w8GxMzeVk+Vpp2PJCCs2bJ+tflUGzu0HnlpYWYkDOvyQP4uBz00HN+WOzIatwR736zJ06dPnzJ6UIodQUgY8aMn1pSUrv3Z1JHJEEIIIYQQQgghhBBCCCGEEEIIIYQQQgghhBBCCCGEEEIIIYQQQgghhBBCCHEr+i9qaOdebmu4fgAAAABJRU5ErkJggg==;" vertex="1" parent="1">
          <mxGeometry x="540" y="328" width="55" height="48.53" as="geometry" />
        </mxCell>
        <mxCell id="uTAIC4A_mwOgiY2apxrA-11" value="" style="shape=image;verticalLabelPosition=bottom;labelBackgroundColor=default;verticalAlign=top;aspect=fixed;imageAspect=0;image=data:image/png,iVBORw0KGgoAAAANSUhEUgAABssAAAJ4CAYAAAAjj92CAAAACXBIWXMAABYlAAAWJQFJUiTwAAAFG2lUWHRYTUw6Y29tLmFkb2JlLnhtcAAAAAAAPD94cGFja2V0IGJlZ2luPSLvu78iIGlkPSJXNU0wTXBDZWhpSHpyZVN6TlRjemtjOWQiPz4gPHg6eG1wbWV0YSB4bWxuczp4PSJhZG9iZTpuczptZXRhLyIgeDp4bXB0az0iQWRvYmUgWE1QIENvcmUgNy4wLWMwMDAgNzkuZGFiYWNiYiwgMjAyMS8wNC8xNC0wMDozOTo0NCAgICAgICAgIj4gPHJkZjpSREYgeG1sbnM6cmRmPSJodHRwOi8vd3d3LnczLm9yZy8xOTk5LzAyLzIyLXJkZi1zeW50YXgtbnMjIj4gPHJkZjpEZXNjcmlwdGlvbiByZGY6YWJvdXQ9IiIgeG1sbnM6eG1wPSJodHRwOi8vbnMuYWRvYmUuY29tL3hhcC8xLjAvIiB4bWxuczpkYz0iaHR0cDovL3B1cmwub3JnL2RjL2VsZW1lbnRzLzEuMS8iIHhtbG5zOnBob3Rvc2hvcD0iaHR0cDovL25zLmFkb2JlLmNvbS9waG90b3Nob3AvMS4wLyIgeG1sbnM6eG1wTU09Imh0dHA6Ly9ucy5hZG9iZS5jb20veGFwLzEuMC9tbS8iIHhtbG5zOnN0RXZ0PSJodHRwOi8vbnMuYWRvYmUuY29tL3hhcC8xLjAvc1R5cGUvUmVzb3VyY2VFdmVudCMiIHhtcDpDcmVhdG9yVG9vbD0iQWRvYmUgUGhvdG9zaG9wIDIyLjUgKE1hY2ludG9zaCkiIHhtcDpDcmVhdGVEYXRlPSIyMDIxLTA5LTE1VDEzOjAyOjQ4LTA0OjAwIiB4bXA6TW9kaWZ5RGF0ZT0iMjAyMS0wOS0xNVQxMzowMzoxMi0wNDowMCIgeG1wOk1ldGFkYXRhRGF0ZT0iMjAyMS0wOS0xNVQxMzowMzoxMi0wNDowMCIgZGM6Zm9ybWF0PSJpbWFnZS9wbmciIHBob3Rvc2hvcDpDb2xvck1vZGU9IjMiIHBob3Rvc2hvcDpJQ0NQcm9maWxlPSJzUkdCIElFQzYxOTY2LTIuMSIgeG1wTU06SW5zdGFuY2VJRD0ieG1wLmlpZDoxY2I0ZTBkMS00ZmJiLTQ1OTMtOWFiMy1mM2E4ZWU4YjNhZGEiIHhtcE1NOkRvY3VtZW50SUQ9InhtcC5kaWQ6MWNiNGUwZDEtNGZiYi00NTkzLTlhYjMtZjNhOGVlOGIzYWRhIiB4bXBNTTpPcmlnaW5hbERvY3VtZW50SUQ9InhtcC5kaWQ6MWNiNGUwZDEtNGZiYi00NTkzLTlhYjMtZjNhOGVlOGIzYWRhIj4gPHhtcE1NOkhpc3Rvcnk+IDxyZGY6U2VxPiA8cmRmOmxpIHN0RXZ0OmFjdGlvbj0iY3JlYXRlZCIgc3RFdnQ6aW5zdGFuY2VJRD0ieG1wLmlpZDoxY2I0ZTBkMS00ZmJiLTQ1OTMtOWFiMy1mM2E4ZWU4YjNhZGEiIHN0RXZ0OndoZW49IjIwMjEtMDktMTVUMTM6MDI6NDgtMDQ6MDAiIHN0RXZ0OnNvZnR3YXJlQWdlbnQ9IkFkb2JlIFBob3Rvc2hvcCAyMi41IChNYWNpbnRvc2gpIi8+IDwvcmRmOlNlcT4gPC94bXBNTTpIaXN0b3J5PiA8L3JkZjpEZXNjcmlwdGlvbj4gPC9yZGY6UkRGPiA8L3g6eG1wbWV0YT4gPD94cGFja2V0IGVuZD0iciI/PnqLDLoAAMmcSURBVHic7N09cuNItvbxZybGgaGQJrQAcTx54qxAbP9GFHsFQlmMN2gUewXFWkGzDRiwilrBUCtoaAVNefKGWoDiiiGD5n0NJEtstj5IIoGTAP6/CEV1VwvA0xI/wDx5Mv/2P//vFwEAcKgkSntv/KcTSd2Cp1+4r1f/23A1eOu/AQAAAAAAAMBO/mEdAABgL4nSE70Utt76Z0nqSDqrItMukijd/qvbjX9+kjTf+Pds/ffD1WDz7wEAAAAAAAC02N/oLAOAZkuitKO8yHWil8JXz/3ZlXRcbaKgPCjvXHvSS2Etc3/Oh6vBU9WBAAAAAAAAAFSLYhkANEASpV3lxbCeXopiJ5IubBI1yp1eimlPyotpdKcBAAAAAAAADUGxDABqxO0P1nFf638OZlnEFloX0jK5/dWGq0FmFwcAAAAAAADAviiWAUCAXKdYR3mHWE8Uxepmvbxj5v6c04kGAAAAAAAAhIliGQAYc4Wxza9LuzQo2a3y5RwXkjIKaAAAAAAAAIA9imUAUKEkSjt66RbrisIYXgpoc+UFtIVlGAAAAAAAAKBtKJYBQIncHmNdvRTHWEoRH1kqX75xrrx4llmGAQAAAAAAAJqOYhkAeOSKY+svusbgy63yAhrFMwAAAAAAAMAzimUAUADFMRiheAYAAAAAAAB4QrEMAPbg9hzr66VAdmyXBvjhRi/Fs7ltFAAAAAAAAKBeKJYBwDuSKD1RXhTruz/Zcwyhe1BeOJspL549WYYBAAAAAAAAQkexDAC2bHSP9cXSiqi/W+WFs9lwNVjYRgEAAAAAAADCQ7EMACQlUdqVFCsvkNE9hqZ6UF44m7JcIwAAAAAAAJCjWAagtZIo7eulg4y9x9A268JZNlwNZrZRAAAAAAAAADsUywC0CgUy4FVLvSzVOLONAgAAAAAAAFSLYhmAxqNABuxlXTibsFQjAAAAAAAA2oBiGYBGokAGeMEeZwAAAAAAAGg8imUAGiOJ0q6kWHmB7MwyC9BAd5KmygtnT7ZRAAAAAAAAAH8olgGotSRKO8qLY7GkC8ssQIvcKC+azayDAAAAAAAAAEVRLANQS26ZxVjSJ9skQKstlXebTYarwcI2CgAAAAAAAHAYimUAasN1kY2UF8nYhwwIy63ybrOpdRAAAAAAAABgHxTLAAQvidJYeYHs0jYJgB3QbQYAAAAAAIBaoVgGIEh0kQGNQLcZAAAAAAAAgkexDEBQ3F5kI9FFBjTJg166zZ5sowAAAAAAAAB/RrEMgLkkSk+Ud5CNJJ1ZZgFQumtJY5ZoBAAAAAAAQCgolgEw45ZaHEvqi6UWgba5VV40y6yDAAAAAAAAoN0olgGoXBKlPeVFMpZaBPCgvGg2tQ4CAAAAAACAdqJYBqAySZTGypdavLBNAiBA7GsGAAAAAAAAExTLAJSK/cgA7GkpaSKKZgAAAAAAAKgIxTIApXBFspH7Yj8yAPtaSpopX6JxYRsFAAAAAAAATUaxDIBXFMkAlOBaFM0AAAAAAABQEoplALxIorQjaSypL4pkAMpB0QwAAAAAAADeUSwDUMhGkezKNgkMLSXNt/5u4b7eku1x/t47/63jvjZd7nFu1BNFMwAAAAAAAHhDsQzAQTaWW/xqmwQleNBLoSvb+Psf/zxcDTb/Pljucdp1/7r5zx33dSLpospM8IqiGQAAAAAAAAqjWAZgL+xJVnvrLrAnvXSDZe7P+XA1eKo6UCiSKO25f+wqL6Kt/51OtbAtJU0kTdr8+AUAAAAAAMDhKJYB2AlFslpZd4bNlRfFMqk+3WAh2uhQ67ivnvvzzCYRXkHRDAAAAAAAAAehWAbgQ0mUxsoHoSmSheVBeUFsLrdHGAWx6rmOtI5eimhd8VyxtJQ0Gq4GU+sgAAAAAAAAqAeKZQDe5IpkY9E9Y229dOL6i6JY4JIo7SgvmnVFAc3Kg/Ki2cw6CAAAAAAAAMJGsQzAX7hOmbHYq8nCujCWuT/nw9VgYRcHvmwU0HruT55f1biVNKbADAAAAAAAgLdQLAPwgxvMn0j6ZJukVe70UhjLKIy1iytMr7+6ovusTNfKi2YL6yAAAAAAAAAIC8UyAEqi9ETSSNJX2ySNt9k1ltHpgm1JlHaVF876ovOsDEvlEwImw9XgyTYKAAAAAAAAQkGxDGg5ty/ZRHS0lGEpVxhTXhybW4ZB/bjOs77yAtqFZZaGeVDeZTa1DgIAAAAAAAB7FMuAlmJfstLcSpqJ4hg8cx2gfb10nlHgLu5W0ojnKgAAAAAAQLtRLANaxg24TyRd2SZpjPWeY9lwNZjZRkGbbHSd9SWdWWZpgN+Ud5o9WQcBAAAAAABA9SiWAS2SROlIeTcZHSnF3Oile2xhGwWQkijtKC+axWK5xkMtlXeZTa2DAAAAAAAAoFoUy4AWSKK0q7ybjCUXD/OgvHtsRvcYQkfhrLBbSTGFcAAAAAAAgPagWAY0mFtycSzpi22SWnpQ3j02ZT8j1BWFs0K+SZqwNCMAAAAAAEDzUSwDGiqJ0r7ybjL2MtodBTI0liucjcQeZ/t4UN5lllkHAQAAAAAAQHkolgEN47rJppI+2SapDQpkaJ0kSnvKu836Yg/DXVwr38/syToIAAAAAAAA/KNYBjRIEqWx8m4yBr/ft1ReUKRAhlZzxfW+8sIZexq+b6m8y2xmHQQAAAAAAAB+USwDGsAtrzYVg90fuZY0Y7Ab+KuNZRpjUXB/z43yotmTdRAAAAAAAAD4QbEMqLkkSkeSxmJw+y13yrvtZgxuA7txXaqxKMC/hS4zAAAAAACABqFYBtQU3WTvYplFwAP3OjMWe5u9hS4zAAAAAACABqBYBtQQe5O96VZ5gWxqHQRoEre3Wax8mcYzyywBossMAAAAAACg5iiWATXiBqynkj7ZJgnKUtJM0oQuMqB8SZT2lRfN6Gr9M7rMAAAAAAAAaopiGVATboB6KrrJ1h6Ud9dNGZwGqpdEaVd50ezKNklQHpQXzDLrIAAAAAAAANgdxTIgcK6bbCzpi22SYNwq7yKbWQcB8Kd9zSiavfhtuBqMrEMAAAAAAABgNxTLgIC5zo2ppAvbJEG4ljQergYL6yAA/soV9kfuiw5Y6U55l9ncOggAAAAAAADeR7EMCFQSpSNJv1rnMLbUy1KLC9soAHZB0exPlpJGw9Vgah0EAAAAAAAAb6NYBgTGDTTPJF3aJjH1oLyjbsJ+ZEA9UTT7kxvlXWZP1kEAAAAAAADwVxTLgIAkUdpTXihr68Dyg/KlFqfWQQD4QdHshwdJfZZlBAAAAAAACA/FMiAQSZSOJX21zmGEIhnQcBTNfvhluBpMrEMAAAAAAADgBcUywFjLl12kSAa0jHvNG0v6YpvEFMsyAgAAAAAABIRiGWCoxcsuUiQDWi6J0o7yotmVbRIzLMsIAAAAAAAQCIplgJEkSkeSfrXOUTGKZAD+xBXNpmpnd60kfeY1EQAAAAAAwBbFMqBibgmyqaRPtkkqtZQ0kTRh2TEAr3GdtmO1s2h2PVwNYusQAAAAAAAAbUWxDKhQEqVd5YWyC9sklfomimQAdpREaay8aHZmm6Ryd8qXZVxYBwEAAAAAAGgbimVARZIo7SsvlLVlf7Jr5UsuLqyDAKifJErHkkZqz2umlHfh9oerQWYdBAAAAAAAoE3+bh0AaAM36PsftWPQ91bST8PVIKZQBuBQw9VgLKmjvPDeFseSfnd7WgIAAAAAAKAidJYBJWrZ/mQPkkbD1WBmHQRAs7glbCdq135m7GMGAAAAAABQEYplQEmSKO1Imqn5+5MtlQ9isy8ZgFK1cD+zO0k9XlsBAAAAAADKxTKMQAlcF8RczS+U3UjqDleDMYO5AMo2XA2mkrqSvtkmqcyFpLl7TwEAAAAAAEBJ6CwDPHOdD9+tc5TsQVI8XA0y6yAA2sl1707VjqUZl8pfc2fWQQAAAAAAAJqIYhngURKlE0lfrHOUaKl8ucWxdRAAkKQkSvvKi2bHtkkq8ctwNZhYhwAAAAAAAGgalmEEPEii9CSJ0qmaXSi7lVty0ToIAKy5bquOpN9sk1TiV/deAwAAAAAAAI/oLAMKSqL0RFKm5u5PxvJfAGrB7e01VXNfj9duJfXZKxIAAAAAAMAPOsuAAtzAbKbmDszeSOpQKANQB8PVYD5cDbqSflFe6G+qS0mZm6wBAAAAAACAgiiWAQdqeKHsQdJPw9WAzgUAteP29eoq78BqqgtJC/deBAAAAAAAgAIolgEHSKI0Vl4oO7ZNUorflO9NllkHAYBDDVeDxXA16En6rOZ2mR0r7zDrWgcBAAAAAACoM4plwJ5coey7mlcoW3eTjegmA9AUw9VgKqmjfFnZJjqW9Id7bwIAAAAAAMABKJYBe0iidKy8UNY016KbDEBDDVeDp+Fq0Jf0s5rbZfadghkAAAAAAMBhKJYBO0qidCrpq3UOz5aSfh6uBjHdZACabrgazNTsLrPvblIHAAAAAAAA9kCxDNiBK5RdWefw7EZSxw0eA0ArbHSZNXUvs6/uPQsAAAAAAAA7+tv//L9frDMAwUqi9ETSTNKlbRKvlpLGw9VgYh0EACwlUdqRNFWzXuPXroerQWwdAgAAAAAAoA4olgFvcIWyTNKFbRKv7iTFw9Vgbh0EAEKRROlI0q/WOUpAwQzAm85Pj7qSTrb//v7xOas4CgAAAACYo1gGvKKhhbLflHeUPVkHAYDQJFHaVd5l1qTXfUm6ldTntR9ot/PTo5mkrqSzPQ+9lfQkaXb/+Dz1GgoAAAAAAsKeZcCWBhbKlpJ+Hq4GIwZL0WRJlPatM6C+XMdtT/nEgia5lJS59zYALXR+etSX9En7F8qk/DXkk6SJx0gAAAAAEByKZcAGt39NpuYUyu4kdYerwcw6CFAmVwj4TxKlU4oCONRwNXgargYjST8rn2jQFBeiYAa0Wd/DOY7PT49iD+cBAAAAgCBRLAMctwTXXM0plP02XA26w9VgYR0EqEDP/XkligIoyE0w6ChffqwpKJgBLXR+enSi/L3Rh9jTeQAAAAAgOBTLAP0olGWSjm2TeLGU9Nl1RwBt0dv45wtJc/e8Bg7iusx6kr5ZZ/GIghnQPrHHc12enx51PJ4PAAAAAIJBsQyt17BC2Z2k3nA1mFoHASrW3fr3M+VFgV71UdAkw9VgLOknNWdZRgpmQLvEgZ8PAAAAAIJAsQyt1rBC2Y3yQtncOggQiGNJvydRGlsHQb0NV4NMzVqWkYIZ0ALnp0dd+V9ePPZ8PgAAAAAIAsUytFbDCmXfhqtBf7gaPFkHAQL0PYnSiXUI1NvGsoy/WWfxhIIZ0HyjEs55dn561CvhvAAAAABgimIZWqlBhbKlpJ/dMmEA3vYlidKpdQjUn9sP8mc1Y1lGCmZAs/VLOm9c0nkBAAAAwAzFMrROEqUdNaNQtt6fbGYdBKiJqyRK5xQGUJR73e0pfx2uOwpmQAOdnx7FKu9e9+r89OikpHMDAAAAgAmKZWgVNxg4U/0LZbdifzLgEOvCQMc6COrNvf72JF3bJvGCghnQPP2anx8AAAAAKkWxDK3hBgEz+d/ovGrXw9Wgx/5kwMEuJM3dcqzAwdw+ZrGkX6yzeHChfDIJgJo7Pz3qSPpU8mVGJZ8fAAAAACpFsQyt0KBC2Wc3MAvgz7I9v/9YeSdN338UtM1wNZioGfuYXbK3H9AIcQXXuDg/PepWcB0AAAAAqATFMjReQwplS0k/D1eDqXUQoEGOJf0nidLYOgjqr0H7mF1RMANqL27YdQAAAACgdBTL0AaZ6l8o67mBWAD+fU+idGwdAvW3sY/ZrW2SwiiYATV1fnrUk3RW0eXiiq4DAAAAAKWjWIZGc4N9dS6U3UnquAFYAOX5SnEAPrh9zHqSrq2zFHRFERmopbjCax2fnx5VeT0AAAAAKA3FMjSWG/i+ss5RwK3yjrIn6yBAS1wlUTp1S7cChbj9JT9b5yjoK8uUAvVxfnp0ourvffsVXw8AAAAASkGxDI2UROlE9S6UXQ9XAwplQPWuJGUUzOCD22fyZ+XL6dbVdwpmQG30Da756fz0qGNwXQAAAADwimIZGscN6n2xzlHAtetIALC7J4/nuhAFM3ji9pvsqf4Fs651CAAfGhldNza6LgAAAAB4Q7EMjeIKZd+tcxTwmUIZcJC55/OtC2Ydz+dFC7l9J7vK96Gsq4yCGRCu89Ojruz26Y2NrgsAAAAA3lAsQ2O4QbyJcYwiPrsluwCE4ULSnAIBfBiuBgvlHWZ1LZgdi45LIGTxgcctJf10//j8Nx3eAXt2fnrUO/BYAAAAAAgCxTI0ghvMzpQP5tURhTIgTOsCQdc6COpvuBo8DVeDrqRr6ywHomAGhCs+8LjZ/eNztv5ng+sDAAAAQBAolqH23KDdVPUslC0l/UShDAgaBTN45ZbbrWvB7ELFBtQBeHZ+ehTr8PvgyRv/vK+r89OjkwLHAwAAAIApimWoNVcoy2S3R0MRS0m94WqQWQcB8CEKZvDKFcy+Wec40GUSpVPrEAB+6B943N394/N8/S/unx8McgAAAACAOYplqLuJ6l0om1sHwV+xxBjecCzpjyRKY+sgaIbhajCW9Nk6x4GukigdWYcA2u789Kgj6dOBh09f+bvJoVkkjQocCwAAAACmKJahtpIoHUu6ss5xAApl4YvpIMI7vlMwgy9uGd66Fsx+5bkAmOsXOHa649/t6uL89Khb4HgAAAAAMEOxDLXkBue+Wuc4AIWyeuiJjerxPgpm8KbmBbMJkwsAU6MDj7u5f3x+2v5L93c3BfLEBY4FAAAAADMUy1A7blBuYhzjEBTK6qMn9t3AxyiYwRtXMPtJ+XtFnaz38zuxDgK0zfnpUU/S2YGHTw/8bx+JCxwLAAAAAGYolqFW3GBcpnxwrk4olNVEEqV95Y+vM7olsAMKZvBmuBpkyov1FMwA7CI+8Ljl/ePz7K3/6P7boa9Dx+enR/GBxwIAAACAGYplqA0KZahIb+OfR0YZUC8UzOCNe6/oqX4FswvVs+sbqKXz06MTHd4FP/X0PW/pFzgWAAAAAExQLEOdTJQPxtUJhbL6iTf+uU+nBHZEwQze1LhgdpVE6dg6BNASfR0+gWy6w/dMDjy3JH06Pz3qFDgeAAAAACpHsQy1kETpSNKVdY49USirmY0lGNeOxezouuhYBxAFM3hU44LZV/daCqBcowOPu7t/fJ5/9E33j88LSXcHXkNi7zIAAAAANUOxDMFLorQn6VfrHHuiUFZP/Vf+blRxBhymYx3A+c5ed/ClxgWzKc8DoDyua+vQ1Rame3zv5MBrSBTLAAAAANQMxTIELYnSjqSZcYx9USirIbfc4mvdixeuYAvsKqNQAF9qWjA7Vl4wO7EOAjTUqMCx0z2+d1bgOmfnp0e9AscDAAAAQKUoliF0Mx2+H4OVPoWyWhq989/GFWVAMxyLghk8qmnB7EL7DcoD2F184HE394/PT7t+s/ve6wOvJdFdBgAAAKBGKJYhWEmUTnX4EjNWPg9Xg8w6BA4Sv/PfLukuw54omMGrmhbMPrk9RwF4cn561NfhE8mmFR2zdnV+enRS4HgAAAAAqAzFMgQpidJYry+JF7LPw9Vgah0C+3OPt7MPvm1cfhI0zLGkGUvRwRdXMIuNY+zrVyYbAF7FBx63vH98nu170P3jcybp4cBrSq/vBwsAAAAAwaFYhuC4ToyJcYx9USirt/EO30N3GQ5xprzD7MQ6CJphuBrMJH22zrEnisaAB+enRx1Jnw48fFrg0kWOHRU4FgAAAAAqQ7EMQXGDaVPVa5+yawpl9ZVE6Vgfd5WtTcpLgoJ61gHecSEKZvDIvefUqWB2LCmzDgE0QL/AsVOjYy/OT4+6BY4HAAAAgEpQLENoJqrXPmXXw9Ugtg6Bw7jixWiPQy7YfwcHuhDFVnhUw4LZRRKlE+sQQM2NDjzu7v7xeX7oRe8fnxeSbg89XvVbPhYAAABAC/3tf/7fL9YZAEk/9o36bp1jD7fD1aBnHQKHS6J0qv33xltK6g5Xg4X3QDhYEqWZpEvrHDugwA6vDnwds/SzW0oSwB5cd9YfBx7+y/3j86Tg9WMdfp++vH98Pilyfdg7Pz3qSeq4r577647eXqHhTtKTpLmkhaS52wOvddzP7kRSd+Ove69861z5z+zHP7f1Z2bh/PToRH/+HXWV/94+8qT897U2v398fvISCmiZjefh+k9p9+di5v5crL/chB+0jHvflV5/7PT019dt6eVx81Rkkhnqj2IZguD2KctUn+UX7yT1hqvBk3UQHMbtP/b7gYdTKA1MjYplkvTLcDWYWIdAc9SsYMaEA+AA56dHUx3+PP+nj4Hb89OjJx1+r/75/vF5WjQDquEGK3sbXz5X/riVNJM0a9ogpitqb3/5+Hz7oPyzciYpa9rPrUpbRd+uXgbkyxiHWOqlADoXBVDgTzbea7obf5bxXLzTy8SNjOdgc5T4vivl771z95WJiRCtQbEM5txSeJnqs/zig/KBvifrIDiMe8zNtfteZa+h4BGQJEqfVJ9iuyR9Zq9D+JRE6UzSJ+scO2LCAbAHN5i00GHvczf3j899TzmmOrxg5y0HynF+etRRvi9eX9VNQLpTvkz1rI4DUK7wsv6qctLWnfK9BKd1/LlVZeP303VfRT77+bYevM9EARQt4p6XffmfiLGvO708/2aGObAHVxzrbXxVPQZ0p5cJP/OKr42KUCyDObeHyRfrHDtaKu8om1sHweE8Dir/m8dCGJIo/T/rDAfg8QNvajjx5NtwNRhbhwDqoOASiD/7GgQquBSkJP2LAeEXG0sErVW+XNRGgSyW7fvHUnnRbBJy8ccVrvt6GegNYaLWtfKf29w6iKWSuyGrsC6ANq7jEnD3DyPlr50hvG6+5kYvRZAn2yh2XlmOVjLuqDo/Perr5b03pMcPE1caimIZTCVR2pf0H+sce2Bwu+aSKB1J+tXT6ZaSOnQZ2qtpsYziO7zy1DVbpZ+Gq0FmHQII3fnpUabDula87xV2fnq00OGvMd/uH5/H/tLUy/np0Ui7zYReKp/8EJc1+OIKsLHCW8I6uKLZRoFspLALMDeSRm0qtLgB+L77Cvl3s68b5c+BzDjHTjY6+OBfbZcMdK+dsfLXzrp8Nlm7UV4AmVkHKZv7PY2VF8h2uSe4k9Qr+z064ALZa4K7d0ExFMtgxg3qLRT+C98ay6bVXEnFWfavM5ZEaUfSf61zHIjHD7yq2R6gLGsMfMB1/hz6Hvfb/ePzyF+aHwWfQycdPdw/Pnf8pamX89OjfSf2XN8/Pscer99RPmgZK/z3iAflhZ+ZVQA3UBerPkscrzW6KF2zAdSibpU/D+bWQd5TcIlevK92Sxi74svIfdX9OfqgvHOosUUQV+z+fc/DSnmfcRMgYtXjPuU1S+WPlbF1EBTzd+sAaLWZ6vMC+I1CWb25AeRpCae+UP5Yhp2OdYACLpQXNgAvXKdizzjGrs5Uzusy0CSjAsdOPWXwdc6zV5YexNv6Pk5yfnrUOz89mikvun5RPT5/nUn6z/np0cwNvFbi/PSoc356NHYdlP9R/QplkvT1/PRo7gYdG+H89Kh/fno0PT89elL+e7lSPR7HRV1K+uP89GhS5fPgAB3rAA3Wsw6wq/PTo5Pz06Ox8gnxX9WM5+iZ8v+XhXtvODHOE4qRz5Odnx7FbhWFP1Sf+5TXHKuB78FtRLEMJtxSeKEt+/GWa/ZVqbcKOi0ukyidlnRuNN8Fjx/45Apmn61z7OhTEqWxdQggYP0Dj7sroxvBzay+KXCK2E+SVjguMtjiBp8WymeM17HoI+W5F2UXWV2RbKq8oPhV9VsybNuFpMx1YdWS+51MNgqXbSmQveaLpHnAkw061gEarBaPedd1vlBzimTbjrVRNDPOEoJC9yfSS3HVTYL4rvqMD+/iQvlEh5F1EByGYhkq5woXvvaMKtudPM+aQLUqXJLsKonSqVteFNXqWgfw4MpNIgC8cN3Q36xz7GjillMFsMENdB86aD/xl+QvpgWOvWJm9l5O9vnmjcGnhfLBp7oXfaT8Hv73MgYoXdddprxI1rRl5I6Vd+fF1kF25R6/8fnp0VwvnZBNeAz7cKb8eRBbB3kFv6MShdyhcn561HXP11/VzCLZtnXnUOmTOGrg5JCDNian/K+aW1xd+9V1RZ9YB8F+KJbBwtQ6wI6WYi+hWnPdCpmqewO+kpRRMKvciXUAT351++oBXriu6GvrHDs4Vn3uDYAqxQWOnXnK8BduH6llgVP0/SRphc4u3/TK8ldNHLz+6mtZRjfAmynvumvSbPbXfA+0wPKakfIi74VxjpB9dwPNaI8T6wCvce85f6idz9d18Tr0JVKDsdXB3bTJKe+5Ut7pfWIdBLujWIZKJVE6Vj3eTCmU1Zx7rH1X9TNVLiTNXUcbqnFiHcCjKY8deDZS3iUdukv3ug1AefFDhy+dd13BRvTTAseOPGVog857/7Ghe8S855MKDDptDNb9oeYXyTbVpWDWtQ5QE1cUzGDFve9kyt9z2m69RGrXOoiB3i7f1OIi2ab10sgn1kGwG4plqIwbAK7LG+rI7fmCmkmi9CSJ0ky2j7Uz5R1msWGGNulaB/DoWHnB7MQ6CJrBTfroq1gXSFW+UiwGfogLHDvzlOE90wLHXrR0YOkQ3df+smXLGG3be9Bpo6jY5sG6SQ2edyfWAWrkir2TWuPJOsCaew1ZqF2TDT5ypnx/qtg6SEjc++5U7X7f3XShfNUr1ADFMlTCDfxOjWPs6je31wtqxi1ht1AYN2/Hkr4nUTqj8IE9XaiagU60xHA1WGjH2X8BmFoHAAIxOvC4B7dMYqnuH5/nKta1GvtJ0ni9zaIQM7R/uJC02KX44/b+m6s+kzbLcizJyzKWJepaB6iZr+7xjQZz77fmXDHoD7VrcsY+vp+fHk2sQ4TAvS4t1O77lNdc0BVcDxTLUJWx6rH84u1wNRhZh8B+kijtJFE6k/QfhXfz9knSgr2oShVCcdS3yyRKJ9Yh0ByuW/qzdY4dXLAcI9rOFQAO3XNq5i/JhyYFjo09ZWi6Y0lTimSvOtY7HWbuZzZT/vmgiXu4HeJM+efyUIX2Oa4OpuenRx3jDA/G10fJXKHsu3WOGvjSomJIb/svNrrJQhyXC8UVkxzC97f/+X+/WGdAw7kllf6wzrGDB0ld9imrD9exNXJfdXgzvhVLfHqXROn/WWco0c/D1WBmHQLNkUTpVPUYaP03r5VoKzfQcOjz9F/3j88Lf2ne5ooU/1vgFJ/vH5+nftKE7/z0qK73K0vlnVlP7k/p7aWEOhtfXVUzWfJOUm9zn77z06OR8qKQxeeDB+Uz6ufKf2aZ+/un7Q4RV+ToKF9+sOu+eio/90/3j8/ZR99UNYPnyK37c66Xpe6yzW947+d0fnrU2/jXE+W/v477qnIy3+3943Pvw+8qidu/qomTF4Nw//j8N8vrGxXKHpQ/L+fKX08X7u/nr+3JuvFaKuXPwxPlr6Ud2UyWuL5/fI4Nrrs39zr2+4GH//P+8fnJ/fz7snvflfJ7gSe9vIYv9PK4eUtXf37trqrBYympU8H+wjgQxTKULonSucLvKltK6jEwVw81LJJtu5Y0dkujoYAkSns6/OauDnhtgnc1eV++G64GXesQgIXz06MnHXZ/c3f/+Nz1m+Z9BQt7N/ePz31/acJWk2LZ5gBlpjcGJvfhZlCvv8q6b7/Tyyz3maobuF/K/Zzk6ecl/egujd1XGT8z0+LKW0p6jqyLvXO9FDG9/J4+4gahe8of+2Xfd5lNPnB7p7V9mdPSWBbLKiyUPSh/DZ1Jynw/Pzeeiz1V9/5Qi4JZwWKZlTu9vPfOfS1V6iaB9VT+PYtUk8dHW1EsQ6ncUkp1uHH6zD5l4UuitKP8Q+NI9SySbbuRNBmuBpl1kLpqQbFMcgNAdL3CF/daOlf4r6PfhqvB2DoEUKWCA1OVD5a6Qsh/Cpyisk44a4EWy9bFnpnyAcpFWRdyg1AjlXcff6t8dnjZ7213yn9es7L3Eir5ZxZcZ6en58it/jyIuvBwzsJcAXSk8rr7H+4fnzslnftdHt4H8D6T98kKCmVL5a+l0yo7Xd3rat99fSr5csEXRGpSLHuQu09RCcXUt7jnwFjldSe25h64biiWoTQ1Wn7xergaxNYh8Da331es8m9mrNwp3/djRkFkPzUqyBd1M1wN+tYh0Bw1KjSzHCNapeByVv+0WNLl/PRoocMHEn65f3ye+EsTroCKZesBytn94/Os6ou7gcqxpC9VX7uAO0lT5T+zRdUXdz+zqfx+Fgquu+zArtp1cSwLcWnJbW65srHKKZqZFEDd47Nb9XUDNZLf56nV77Sn8j4nPCgf+5haL0O3MSEhVnkFkeAmJmwKuFhm+r67qcSlnYMvprYVxTKUhmWeUIQrkK2/Qu9+8OlGbgCDwtnHkiidqF6DLUX8MlwNJtYh0Bw1KTbfDleDnnUIoApuEPW/Bx5u9oG74BJcZt0QVQugWHarfHByapxD0o8Z2xOFe5+/VD5QN7EeqFtzA3a/ejzlv8vujtvHHsu63ih/LM9KDVQi12k2ld/xkta8nobKc5edyfu6uxeZy/9r81LSONQJMiV3EQX1WrspsGLZupBqXiDb5p4XM/kf4zaZ6Ib3/d06AJopidKRwi+ULZUXYhCIJEr7SZROkyh9Un6TeaVwP0CX5ZPy5Q7+N4nSLInSsevSxOu61gEq9CuPBfjklji8/ej7jF26ewqgDeICx848ZTjEtMCxZ26gBuVYKt8r91/3j8+9UAplkuSy9JRnDMmD8k6Ak/vH51FIA3ZukPmzx1OOPJ7Lh+kbf79UXiD7rHxgsV/nQpkkuYHznvLnpy9nrlgDO5mn89zJ7vk5k/8xmN8kdUItlEk/3pO6kr6VcPqZ62LD664l/XT/+Ny5f3wOZoLKpvvH54XbF9jna7bEmHSQKJbBO7cXytg4xi7i4WqwsA6BP8mUz2J6Mk0Rjkvlb54xRZI3da0DVGyWROmJdQg0Sl/hDVRuG7t7C6Dp4gOPe7AcOHaDGkUK77GfJNiwVD7g17l/fI5DHHiSfhQM+sYx1m71Mlg3tQ7zFpfNV8Gs7+k8XrhlFP8t6aeNr3+7wmX//vHZfNk2n+4fn59c55DPwde+x3Nhf1MP51hK6hstqzyW525H5a+rozo8d91zcqz8dejO46nP5Oex0STr+5R/uvuUzDbObnjNbgeWYYR3SZTOFP7eUr8NV4ORdQi8ze2nE6u8TZBD9WMfCUkZSzG+L4lS6yWNLLB/Gbyqyf5lPO7RaAWXbvrt/vF55C/N/tzyRd8PPHypvKjz5C1QgCpahnGpfAmjSZ1+niUsL7iPB0m1Gahb22PJwo/8XPcurSbw+Ptc3j8+n3g4D/ZUcEniTT9ZvB6VsBzfrYyKfr6cnx5N5HfLh+Bebw2WYXxQ3lwxq/ljI9Phewz/yf3j8998nAf+UCyDV26fKV9rNJeFfcpqxHXRxMqXIShr01VrPwpkw9VgZhulPmoywF8W9i+DVzXZv+xnXiPRVAUHSv9l3Tnklhda6PClmz6H3M3jQ8nFsloWyTb5HHja0VLSqK6PO/ecm6v45yPzYjt+/D4z+enqMSm2tJnHgsM319lUufPTo7n8dZWZ7aPqW8HJQNuCmxxUYbHsQfmeddMKrlU6D/e9m3jNDgzLMMIbV9SYGMf4CPuU1cxwNXgargaT4WrQUb4Ux41xJJ8elC+j0hmuBjGDwHvrWAcwxP5l8MrtX+ZzuZEyTFiGFE3kPnAfWii7sy6USfnSRSq2b9rIS5B2ulY++DYOaQDuAHGF11rvnzOt8Jpeud/1yMOpeh7OgYLc7zP2dLqep/NgB+enRx352Tf0xrBQNpa/QtnnphTKpD8tfetj2fpj1WPLGp/Wyy126/yeu83je7DU7nGtIFEsg08jhd/5wz5lNTZcDTK3DNe/5H9jzSrdKu+Q6AxXgylLLR6sYx3AGPuXwbe+wt6/7EwMqKOZ4gLHTjxl8GFS4NgLN+CI3d0q388prnmRTNKPve/Kvr+/U432z/mIW86ryH6Bkt/9iVCA28Pvm4dT9TycAztwk11mKt5dciej/Tvd/8PI0+ka2SXu/p/6nk73pUX3O02ZzPMq97go+h4sMa4VHIpl8CKJ0o7CX77pNzp3mmG4GiyGq0Gs+hXNHiT9NFwNejwWvehZBzDGRsHwyk0miY1jfOQrXZVooLjAsTNPGQpzA70PBU4x8pOk8ZbKByR77mfeJOMSz/3t/vG528CljqZFT+CW4UIYJio+calbPAZ2NFHxgvNS+b6JT4XTHGYiP0vJ/dbEQtmae+/47Ol0Y0/nCdV6YkojJvN8YGwdAP5RLIMvU+sAH7gTL2KNs1U0C3l5xqXyPaY6w9Ugsw7TIF3rAAH4lERpbB0CzeEK+SG/nkphddIAhZyfHnV1+EDbdYCDEJMCx8aeMjRZ7ZcPfI/rLvP9HvSgfNBu7Pm8QXCPhaLFlU7xJPDBw5K2knTsuoVQIreX1aFLKG8aWU18cB1OPv4fbtqw96F7vfXR/XnV4O6ypk5MeZX7/ywyUUziPTg4FMtQWBKlfVW7GfO+lsqXX3yyDoJyuKJZX/meZkXfqHy7kdQdrgYT6yBN4pYf9DEDrgkmrrsX8CVWeK+lmy4pEqNBRgWOnXnK4NOswLHH56dHfU85mmZd8GnE8oEfmHk8143yfVIyj+cM0azg8R0PGeDPxMM5uh7OgTe4iS7fPZzKuhtr7OEcZktIWnATL3xM6hh7OEdI7pQvDT22DmJgUvD4jocM8IhiGQpxA9YT4xgfGQ9Xg7l1CJTPdW11lc+6tbbuJuuzT14putYBAnKsMAdMUVNucklsHOMjY/bsQ0P0Dzzuwe1XFBQPnUGxnySN04aCz9rM03l+uX987reguCgV/5l1PWSAJx6WtEWJNvYpK+rOshvL/X/0PZyqDUvtbYtVvKO3Sd1lv7lusrl1ECNT6wDwi2IZihop3zcnVDd09LTLcDV4Gq4GI0k/q/gNzKEeJPV47JWqZx0gMBdJlI6tQ6A53OSDECYevOVM7G+EmnNLOB3aJT3zl8S7aYFjPzVo8MibNg1Euv/X24Kn+en+8XlSPE1tZAWPP/GQAX5lBY/veciA181UfAxsKfvfUaziK7V8a2OBxL1PxR5ONfJwDktLST+3YQnO93i6b0FAKJbhYG7Zr5FxjPcsxezU1nL77vRU/ay8O+XLLs4rvm7bdA2vbVWE/cjXJEq71iHQKGOFPbP5K0uQoub6BY6deMrgnet4K/Je2feTBDWWFTm4RV14kn4M1N1Z54BXc+sA+Kvz06OJ/GxB0gtgEsSo4PEPLV1yT9KPe52iBZK4eBJT8xBXOTAysw4AfyiWoYixwt4ziH3KWs4VrLqq7sPjtfKOsqeKrtdmXcNrTxTuzKEZS9PBl5osxzixDgAcwnVPfTrw8Du33GHIpgWOHXnKgPrKrAPU0KLAsV1PGeDP3DoA/sztqfnFw6l+se7GOj896ql4d1xcPEntxQWPP3arDKD+5tYB4A/FMhwkidKepCvrHO+4dp1FaDk32NtT+QWz6+FqQIG2Aq6TxHL510z5rPcQO8zO1LzNgmGoBssxfnL3JEDdxAWOnXjKUKZpgWPP3EAe2mtuHaCG5gWODXkCbFvNrQPgxfnpUVd+9iW6DmSJ2Ljg8bdt6+B9jZu4dF3wNP3iSWCN50OzUCzDocbWAd7xIGakYsNGways5cSuh6tBXNK58Vddy4sPV4Ns4zEVoi8UD+DZWGEvxzixDgAcID7wuKVqsNSLmzVfZKJS7CcJ6sgtTxby+06IFtYB4E8AS/TBOT89OlFeKCtaVL5TOONU/YLHjz1kaIpxweM/uccY6i/U1YewJ4pl2FsSpbH8rNNcFrp78BfuMdGX/26gkG5626JneO0fA39umc9f7KK8a8pyjPClBssxXrh7E6AWCi5/NKvRIOqkwLF9Bo9ab2EdoGYW1gHgHfvQhWEi6aLgOZaS+iG8f7vlJIsU/ugq20B3GTYsrAPAD4plOMTYOsA7fnNLRgF/4YobscdTPog9yix0Da+dbf7LcDWYqPjNcRlYjhFe1WA5xgkFYtRIXODYqacMVZgVOPZYDB613cI6AGDsyTpA252fHo3kZ/uROKC9RvsFj596yNA004LH9z1kgL2FdQD4QbEMe0midCzbvYLe8yAGh/EBt5fdN0+n61MoM2HZ2Tp/5e9GCnPmJ8sxwrexwl0W61h0+aIGXLfUoQNvD3Waze1m0BeZUDLykwQ1tbAOUDNPRQ52ezIBcFwX+K8eTvXt/vF55uE8vvQKHPtw//g89ZSjMdy9WZHPSCzF2Axz6wDwg2IZduZmbI+MY7yH5Rexk+FqMFbx4sYvrlMNFQqg+JNt/8XGEnW+l/j0geUY4Y17rI+MY7xnxOMdNdAvcOzUU4YqzQoce3F+etTxlANoNLdPYBEnHmLAr6zAsV1PGVrJFS5mHk51c//4PPZwHi9cUbzI5PeZnySNNCl4fM9DBth6sg4APyiWYR8jFd/UtCwsv4h9xQWOvXXL76F6PcNrPwxXg8Vr/8EVTkdVhtkRyzHCK9ede2Od4w3HKv5BFSjbqMCxU08ZKuNm0xeZbT3ykwQ1NLcOANTYiXWAmstUfOzrQeHt+dsrePzUQ4ammhU8vuchA+qpax0Af0axDDtJorSjcD+sLsVgMPbkihuHLMe4VHg3vW3SM7x29t5/HK4GU4W5fxnLMcK3kcLspJSkK3fPAgTHzei+OPDw24D2O9nXtMCxsacMqJ8n6wAA2uf89Giiw9+r15aS+m454pD0Cxz74KGDtbHcPVqR1Yv6fpKghkJtSmktimXY1VjhPoFZfhGHmmj/2c7jt7qLUInQ9ivbNlKY+5dNrQOgOdxr4Ng4xnvG1gGAN8QFjp16ymBhWuDY4/PTo76nHAAAvOn89CiW9MXDqUaBFpaKfJae+QrRYLMCx56xbxkQBopl+JCboX3oRuRlu3FLQgF7c0XW8R6HPLD8op0AuqOyj75hY/+y0JwlUTq2DoHmcK+FIRaGpby7rGsdAnhFfOBxS9V4kMrNtr4tcIrYTxIAAF7nur8nHk712/3j89TDebw6Pz3qFTxF5iFG080KHt/zkAFAQRTLsIuxdYA3LBXu0pCoCbd03q7dZXF5SbCDvuG1l27pzg+57/ul1DSH+UoBAZ6NrAO8Y2IdANjkZqsfukrDLMClnPY1LXDsp/PTo46nHABed2IdAH+RWQdoC9fRM1Px1ZTu7h+fR0XzlKRX8PjMQ4ZGc92ERZaq7/lJAqAIimV4V+BdZSyHB1/GO3zP7XA1yErOgff1DK+d7fPNruvmppQkxUysA6A53GtiiPv0SdJlAN2owKZ+gWOnnjJYmqnYAFLfTwwAb+haBwAMTSWdFTzHUmEXO7oFjr1rwKSdqmQFju16ygCgAIpl+MjYOsAb7lgOD77s2F02Lj8J3pJE6YmKb7RcRHbAMbGKDQyW4TKJ0tg6BBplpPAe52tj6wCAJLmuqE8HHv5w//iceQtjxA2yzQqcYuQlCAAAG85Pj8Y6/D16Uy/wglKvwLFzTxnaYF7gWMv92QE4FMvwpsC7ykbWAdA4k3f+G11l9vrG15/te4Dbv6zvO4gHE1d8BApzj/OJcYy30F2GUPQLHDv1lCEEkwLHnnnYbwUA6uTEOkDTnZ8e9SV99XCqX9wSfEFyk3aKLDE595OkFbIiB7PsNGCPYhneM7YO8IZrChcowVRvd0dMq4uBN/QNr/1w6JKv7rXqN69pijtWuMUN1NBwNRhr970fqza2DgCo2CSvqacM5txAYpHXithPEgCoha51gCZzRYmph1Nd3z8+Tzycp0ydgsfPPWRoi3nB47seMgAogGIZXhVwV9lSdJWhBK47YvbKf3pwyzTCVs/w2lmRg4erwUjSnZck/lzRcQPPYusAb6C7DKZcN9Sh+6Dc3j8+L/ylCcKkwLH989OjE085AAAt5d5LZirWbSXln/FGBc9RhV7B4+ceMrSCW4qzyBL1XT9JAByKYhneMrYO8IaxK2oAZZi88nfTijNgSxKlfRX/IFNE5uEcsYdz+DaxDoDmcF2Ut9Y53jC2DoBWiwscO/WUISSzAsceK8zljQEA9TJR8f2wl5L6ge9TttYtcnBN/h9DMi9wbMdTBgAHoliGvwi4q+xhuBpMrEOguYarwVx/7QCaVp8EW3rG158VPYF7bP1SOIlfF0mUjqxDoFFG1gHeQHcZTLiZ6/0DD1/Kw/tPaFyn3E2BU4z8JAEaKbSVDIDgnJ8exfIz3hXXqPv7pMCxoU6GC9miwLEdTxkAHIhiGV4ztg7whtg6AFphuvHPN4fuVQWv+obXvvPVzeqK/aF92BgnUXpiHQLN4IrC19Y53jC2DoBW6uvwzuhZg2dyTwsce+H2mQHwV0/WAeDViXWApjk/PepK+u7hVN/uH59nHs5TlUvrAC2zKHAsvyvAGMUy/EnAXWW3boknoGzTjX+eGWWAk0RpV4fv9eJD5vl8sYqtYe7bsViOEX6NFdZjfI3uMlgYFTh26ilDcNwAY5HXiZGfJAAQtK51gCZx3d6Zh1Pd3D8+jz2cpy7m1gFqaGEdAMDhKJZh29g6wBti6wBoB9dFtF4eaGaXBE5sfP2Zz5O5TsWxz3N6cOWKkkBh7jE+MY7xlpF1ALSH6346dD+Uh/vH58xbmDBNCxwbe8oAAGiPmYrvg/2gmr0HnZ8e9Qqe4slDjLZZFDnYw+8MQAH/sA6AcATcVXbNUnio2Ez6UTiDrb7htZdldLQOV4NJEqV9hbXEwkT2e8OhOSbKC1NFByR8+5REaYd7ClRkVODYqacMIZtK+nLgscfnp0f9mi2BBSAQrsOou/XXvT1OMdefCwiLkvau6pRwzlY6Pz2aqPhnr6WkfoOXSIY/T9YBAByOYhk2jawDvGKpMHOh2WbWARDEEoyzEs8dK/+gHUox4TKJ0ni4Gkytg6D+hqvBUxKlE0lfrbO8YqyazQhGbcUFjp16yhCs+8fn+fnp0Z0O776Lxf0a4FPPOoBvrsO36756yotPpXy2OD89Wv/jnfKB8sXW1/yAIkuRrCFNyjN1fnrU1+GTMzaN7h+f5x7OU7VuweMzDxlaxd3jFDlFV/zcATMUyyBJSqL0RGEOHk3o7kHV3GNuahwD9q9JWVknHq4GiyRKx5J+LesaBxiLxz08Ga4G4yRKY9kWvF9zlUTpmO4ylMkNzB06GeK2pA6FEE0kfT/w2E/np0edFv2sAOzAvf72lK9OYXEPsp4A8Jdi1fnp0VL5ZLkfX28VX1yhDwWdnx515efzzW/3j88+zmPhxDoA9nZiHQBoM/Ysw9pI4XQ4rC0V7r4nAMrXN77+rMyTD1eDiaTbMq+xpzNXwAN8GVsHeMPIOgAaLy5w7NRThjqYFTy+7yEDgJo7Pz3qnp8eTc5Pj54k/Ud5F1Fok3WkfLzlUnm+75L+OD89ejo/PcrOT4/GW/sUdQzyNYpbbnOq4uNcd/ePz6OieYA9nFgHANqMYhnWRtYBXjGiqwxopwCWYLyt6PUnVj4xIBQj12kMFOaW9XywzvGKmMc5yuK6AT4dePhSLVpa0C1Jdl3gFCM/SQDU0fnpUe/89CiT9IfyAlRok393sS6gfZX0+/np0f+dnx7NZL/CRhNMdfhSv2tL1X+J0q51gJYqMim26ysEgP1RLIPcMkmh3Vg+sHcO0Goj4+vPqriIWwpuXMW1dnQsOnrh19g6wCuOZf8ag+bqFzh2dsCeNnU3K3Ds2VYnBoAW2CiS/a5m7s31SdKVdYg6Oz89GunwiSubeg14Xz6xDgAAdUKxDFKYA1lj6wAATPWNrz+r6kIBLsd4lURpxzoEmiHk7jLrAGisUYFju27ZqNa4f3yeqdhrROwnCYDQnZ8edRpeJIMHbhKFj32hf3lrTzkAQHNRLGu5JEr7Cm89b7rKgBZzr0uW3a53ruOrSqOKr/eRiXUANMrYOsArzlxnPeDN+elRV8Xuqy8kZS3slpoWOLbftgIj0Ebnp0djSf8VRTK8w70fzDyc6vr+8Xni4TzAIU6sAwBt9g/rADA3sg7wirF1AACmYuPrz6q+4HA1mCdR+k35fgUh+JREaW+4GmTWQVB/w9VgmkTpWOFNzhmp2CA9sG3k4RwXyvetuZOUSXrycM7QdQoce6y8G33qIwiAsLhJCFMV33sK7ZCp+KTLO4U5Tob24PUOMESxrMXcMluhzcyiqwxosSRKT+RnffkiZkbXnSgvFIZSUBir/htaIxxjSd+tQ2y5oCgMX9xs9r7HU16IwZJdjUSxDGic89OjWPn9cWj7qyNA56dHUxV/31xK6jdgnzIAwIFYhrHdxtYBXjG2DgDAVGx8/YfhajC3uPBwNXiS/f//psskSnvWIdAM7F2GFuiLAV0rF+enRx3rEAD8OT89miifZMPrKj7kCqtXHk4V3z8+LzycJyRd6wAAUCcUy1rKdW/0jWNso6sMwMj4+jPLi7sOlxvLDFsm1gHQKGPrAK+4cp32QFGxdYCWG1kHAOCH6xD6Yp0D9eCW6px4ONW3+8fnmYfzhKZowXnuIwQA1AXFsvaKFd4srbF1AAB2XBeT9RKEU+PrS/mA39I6hHORRGlsHQLNQHcZmsp1NYW2tHnbxNYBABTnCmU+OoSKupN0+8bXnWEubHBLIM9UfGzr5v7xeVw0TxOxJCWAtmHPsvYaWQfYQlcZgNj4+ndWSzBuGq4GiyRKx5J+tc7ijBVGERHNMFE4j+21kZiwg2JG1gGg4/PTo35DuwKAVnBLL1ZZKLtV3jUzl7SQtDhkCT43YaLj/rUr6cR9dTf+LrSJyk0xU/HJlg+y/xwKAAgExbIWSqK0L/vujW1j6wAA7LilYa1nkU6Nr//DcDWYuI6uoptU+3CWRGnMhAZ4MlX+nh/SoNExj3EU1LcOAEn5YOfMOAOAA7g9p8peevFB+WvE7P7xOfN1UldgW7h/ffe8bsnAE+UFtI6knsK436+d89OjsYp3dS8l9emeQmDoXgUMsQxjO8XWAbbQVQZgZB1A4Q2wjawDbBhbB0AzDFeDJ4W5F15sHQD1dH561Fd4k9Da6pNbkgtAjXjcc+o1S0nXkv59//jcuX98HvkslO3r/vF5fv/4nN0/Pk9clq6kf0r6LAbId+bee796ONXo/vF57uE8gE9P1gGANqNY1jJuE/tP1jm2jK0DADAXG1//brgaLIwz/MlwNcgk3VjncM7YuwweTRTOvnxrl+4eCdhXbB0AfxJbBwCwt6n8d5wvJX2T1Ll/fI5DLojcPz4/3T8+T13h7Cfly0PiDW7Zy6mHU/12//js4zzAa9jLFqgpimXtM7IOsGWp8Lo5AFQokKVhJ8bXf8tI4RQVxtYB0Ayuu2xmHOM1Y+sAqBfXxRTaJLS2G1kHALC789OjkfwuQ7hZJBvXbXk913XWk/SLdZYQuffdmYoXV+/uH59HRfPUBMVXANgDxbL2ia0DbJm4QTMA7TWyDqAwB+7lut0mxjHW6C6DT2PrAK/oWwdA7cTWAfAXZ25JNwCBc4WPscdT3krq1rFItu3+8XlinSFQExUvri6V7xUHhGpuHQBoM4plLeIGOX0vb1DUxDoAADtJlHZlv0TBTeBF+4nyDclDMLYOgGZwheBQlhldO6YgjD2NrAPgVSPrAAB2MpG/8Ylv94/PvfvH54Wn8yEwrgvxysOp+nUvpu5pUeRgJqDs7/z0qFfwFE8eYgA4EMWydulbB9hyHfgANYDyjawDyM+a96Vxr5Nj4xhrdJfBp4l1gFfE1gFQD27wyHoJYbyu7zpWAATK7Tvlo/AhSZ/vH5/Hns6FALn33F89nOqX+8fnzMN56mRR8PgTDxmwn4V1AKDN/mEdANVwm9aHtqfC2DoAADvudcnXh+RDPQxXg5lxhg8NV4OpK1JZd+FJ+Wv31DgDGmC4GmRJlD4orILDZRKlHdf5BrxnVODYG7HEzke6Ovyzy7HySYJTT1kA+Bd7Os/n+8fnqadzIUBu8kPm4VTXLV3eclHw+J78/PzbpFvw+IWHDAAORLGsPWLrAFtuGYgCWi+2DqBA9yp7w1jS79Yh5LrLhqvB1DoIGmEs6bt1iC0jhdH1irD1Cxw7Yqmw97nB0f8tcIpYFMuAkI08nOMbhbJWmKn4cp13au+93aLg8SceMrTNScHjFx4yADgQyzC2R2wdYMvEOgAAO0mUniiMDywT6wC7Gq4GmcLZ42lkHQCNMVO+0XpI+tYBELbz06NYhw/c3VIo+5jbT6bIe96lW+YNQGAKvoau3bL0YvOdnx5NVHxljaWkuGX7lP3gYdnJbvEUrdMtcjD3iYAtimUtkERpX2EtcVSLZc8AlGokfxt6H6qOHa4j6wDORRKlPesQqD+3J9/UOMa2M3fvBLwlLnDs1FOGNpgWPH7kIQMA//oezhF7OAcC5oqqXzycKr5/fJ57OE+dPRQ4tusrRIt0Chx75ysEgMNQLGuHvnWALRPrAADsBNRVNrUOsC9X3Lu2zuGMrQOgMSbWAV7Rtw6AMLlupUNnuS9ZMmx394/PMxXrPO37SQLAs6J7qX+j86LZzk+PuvJzf/jNvZe03aLAscduaWTs7qLAsQtfIQAchmJZw7lB6SvrHBuWquEANQCvYtl3lS1rvOfWSGEsW3dJdxl8cEXgUJYYXbty91DAtrjAsTNPGdpkWuDYs/PTo76nHAA88PCcXCrMSTbwxBVmpmKpTp+ygsd3PWRoBVfoLWLuIQaAAiiWNV/fOsCWmVtyCUB7jawDqMZFe/caOjGOsRZbB0BjTK0DvKJvHQBBigscO/GUoU0mBY+PPWQA4E+v4PGztu491SJTFevMkfJlB/uFkzTHvODxXQ8Z2qJb8PjMQwYABVAsa77YOsCWiXUAAHaSKI0Vxh6KE+sABU0URnfZVRKlHesQqD+3l2mR/RTKEFsHQFhcR8Sh72EP7JmyP7fUWpH9Oz6xfBQQlG7B4yceMiBQ56dHIxVfpnMpqU9R9U/mBY/vesjQFt2Cx889ZABQAMWyBnMDmIfuqVCGu+FqMLcOAcCGW9JsbBxDkm7csm+1FVh32dg6ABpjah1gyyXFYGzpFzh24ilDG00KHh97yADAjyLjE0w6aLDz06OepF89nGrE4+TP3MSTIpPSen6StEKvwLF3FHkBexTLmq1vHWDLxDoAAFMj0VXm00RhdJf12dsJnkytA7yibx0AYXDdSUX2AZ75SdJKs4LHjzxkAFCQh718Mg8xEKDz06OO/LxPXt8/Pk89nKeJ5gWOPXO/I3ysyBKic18hAByOYlmzxdYBNizFIAHQWq6YMjKOIUkPw9Ugsw7hQ0DdZccK43eLmnMdnzfWObbE1gEQjLjAsTduVjcO4GZZXxc4xZmHQXoAxZ0UPD7zkAFhmin/TFHE3f3jc1w8SmNlBY/vecjQaK47sojMQwwABVEsayi3bFDRTVF9mrmBXQDtNFLxD0A+jK0DeDZRGN1lsXUANMbMOsCWC5ZihBMXOHbqKUObzQoeP/KQAUAxvYLHLzxkaIsiez1W6vz0aKriY1dLUcz5SFbw+J6HDE3XL3j8zEMGAAVRLGuukXWALRPrAABsBNRVthyuBlPrED65SQhj4xiSdJZEaWwdAvXnnqMhFIA3jawDwJbrSjp0IG95//g885emndzPsMh+K323lCaAmrp/fM6sM9TIk3WAXZyfHsUqtsTxWp+9nt7n9nErco/d85Ok0XoFjmW/MiAQFMuaq28dYMPDcDWYW4cAYGasMLrKJtYBSjJVGMWF2DoAGmNmHWBL3zoAzI0KHDv1lAHFfpbH4rkMAMFwE1G+ezjVLxRSd5YVOJYljd/h9nQr0iGZ+UkCoCiKZQ2URGlX0pl1jg0T6wAAbLjly75Y53Am1gHKENDeZZfu/QcoamIdYMsZj+3W6xc4duopA4r/LGMPGQAcrlfg2CKdpQiM6/SdeTjV9f3j88TDedpiVvD42EOGpooLHj/1kAGABxTLmim2DrBlZh0AgJmJdQDnuuH7Jk4URnfZyDoA6s91o4c2KBZbB4ANt0TUod3Rd27ZI3hw//i8kHRb4BSXbuY3gPpZWAeAVzMVn+B9Jz577CsreHzfQ4amigsc+8D9IhAOimXN1LcOsOF2uBosrEMAqF4SpT1Jn6xzOGPrAGUKqLvsyu1RBxQ1sQ6wpW8dAGbiAsdOPWXAi2nB40ceMgAADnR+ejSWdFnwNEtJMXs87cdNOrkrcIqz89Ojvp80zeF+JkWKv5mfJAB8oFjWMAEuwTi1DgDAzMQ6gHPdkqL9RGF0l8XWAdAIM+sAW1iKsYVcF1KRAb2pnyTYMFOx97q+nxgAKta1DoDiXFHhq4dTxXTiHGxa8PjYQ4amGRU8fuohAwBPKJY1T886wJaZdQAA1UuidKRiG9z6NLYOUIWAustG1gFQf67AXWTmaxl61gFQubjAsdfMePfP/UxnBU7BrHjAzrzAsYcuh4tAnJ8edeWnKPDt/vF55uE8bTUrePwnljR+cX561FOxiVUP94/PmZcwALygWNY8sXWADTcN3yMIwCvcMnxj4xhrNy3pKlubWgdQ3oHTtw6BRphYB9gSWwdA5eICx848ZcBfTQoeH3vIAGB/T9YBYOP89OhE+eeUokXP2/vH53HRPG3mYf9PKZzP+iEYFzx+5iEDAI8oljVIEqUdhdPJIYUxaAugehOFM/tzYh2gSq4weG2dQwxEwo+ZdYAtF+5eCy3gZgofurT5A7Pey+OW3noocIpPbuAWQI24ziTU00TFx6oexFK6vkwLHn9Fd5mXrjKpZeMVQB1QLGuWvnWADcvhajCzDgGgWkmU9iRdWedwboerQWYdwsDYOoCkTxQVUJTrTr+xzrGlbx0AlYkLHDvzlAFvmxQ8PvaQAcB+5gWP73jIgIqdnx6NVPzz4VJSn+WNvZmp+F7X0+Ixam9a8Phb1+kHICAUy5qlZx1gw8w6AAATE+sAG8bWASy47rKiS2v4EFsHQCPMrANs6VsHQPlc11GRgb2JnyR4x6zg8SMPGQDs56ng8V0PGVAh1w34q4dTjVxXMTzwsP+nJF22eQ/Q89OjsQ5fgWBtWjwJAN8oljWE2yPok3WODTPrAACqlUTpWOEsBdvWrrK1sXUAUSyDHzPrAFsu3T0Xmq1f4Ng7ZgmXz/2Mi3SenrGkG1C5ecHjex4y1EITXp/cxJPMw6mu7x+fpx7Ogz8bezjHtI3LGrvlF78WPM0Dj2sgTBTLmqNnHWADSzACLeOW3Ct6w+hTbB3AkisUFtnPxYezJEr7xhlQcyzFCCOjAsdOPGXAx6YFjx95yABgR66bpcj96WXTB+bPT49Ozk+PJpL+sM7iQabi+1jf3T8+x8WjYJuHSSdS/vudFg5TI+41aObhVBMP5wBQAoplzdG3DrBhZh0AQOWm1gE2XLulCNtubB1AYb03ob5m1gG29KwDoDxuNv+hXdJLhfd4baz7x+eZiu250m/6wDsQoHnB4/seMgTp/PQolrSQ9MU2SXGu4Fd0xZGluOcq28TDOT65JQnbIlPxIvBSYY2fANhAsaw5+tYBNmTWAQBUJ4nSkaRL6xwbxtYBAjFT8Y2bi7piyTp4MLMOsKVvHQCligscO3OdE6jOtMCxx+L5DFQtK3j8yEOGoJyfHvXOT4/mkr6r+CC8OVf081Hw6/OeWq77x+dMfva6/up+7412fno0lZ9tJyY8toFwUSxrgCRKuwrrpmpmHQBANdzyi2PjGJvoKnPc8nVT4xgSA5EoKMClGI/dvReaKS5w7NRTBuxuWvD42EMGALvLCh5/4fYLqr3z06PO+enRTNLvCmff50Jcd/bEw6l+cYUclC/2dJ7vTdhr7y2uUHbl4VQP94/PYw/nAVASimXN0LcOsOHGDWoBaIepwinWL9XA2aYFTawDiN8J/JhZB9gSWweAf25W9KHvaQ8M7FXv/vF5LumuwCkuz0+POn7SAPiIe84WXflgWjyJHbcv2VTSfyV9Mo7jzcZeTkU/G17fPz5PiubBbtzeZdeeTpc1pZi9yWOhTOKzMRA8imXN0LMOsGFmHQBANZIoHSus5RcnFOv/zHXZWXfkXLgORKCIzDrAlp51AJSiX+DYqacM2N+k4PEjDxkA7G5W8PgztydWrbgi2Vj5vmS+Bt5DMpV0VvAcd+I12cJIfpbvP5b0e1OWZHTP2Zn8PV9v3X6rAAJGsazm3F4wIQ1WZ9YBAJTPLUH21TrHhgeF0UUVoql1ANGFg4Jc4bdI94hvF+zH1yyuu6jIDP+pnyQ4wKzg8X0PGQDsbubhHF/qMiC/VST7qnBW5fDG/f8V7ZJbSorZy6l67mc+8njK73UsaG9yS0pm8tf9uRSfiYFaoFhWfz3rABvu2CsIaD43QDw1jrFtTFfZ64arwUx5MdFSbHx9NMPUOsCWvnUAeBUXOPbWLWMEA26Qr8gSUmfnp0d9P2kAU0/WAXbhOit83Jt+D7lg5vYkm6jBRTJJcsvu+ZhEGbtlOmHg/vF5KunW4ym/nJ8ezeu4j9n56dFIeaHM516CY+4VgXqgWFZ/PesAG2bWAQBUYqKwNqG+Ha4GU+sQgZsaX//MdSMCRWTWAbb0rAPAq7jAsVNPGXC4WcHjYw8ZAGtz6wB7mHo6z3fX1RSM89Oj3saeZF/U0CKZ9KMre+bhVN9Yni4IfflZjnHtQtIf56dHY7enXdBcgTuT9Kv8Pm9v2YcPqA+KZfXXtw6wYWYdAEC5kiiNFd4a+2PrADUwtQ4gBiJR0HA1mMu+S3JTzzoA/HCz4g/dZ2XpZmPDkIdOlU91GMgDGmQif4PyX10HS8/T+fbmllocnZ8eLST9rvA+L3nnXjNnKl5UuL1/fB4XzYPiXKd2v4RTf5U0D7UT1D1/J8oL3L63uVkqrHFbAB/4h3UAHC6J0o6Kb6Dqy9INYgFoKNcZNDGOse16uBpk1iFCN1wNFkmU3sjfmuuH6IsNu1FcpnAGoM6SKO1y/9MIcYFjZ54yoLipii0FFiu8+xygke4fn5/c4LSvPZAvJP1+fnp0K2lSRZeS66rqKb/HtbzHtjKRn9VG5qF1BwZiYTEZ5/7xOTs/Pfom//uTn+mlE3QiaWq9P517Do+Uv/+X1QHas/7/BLAfimX11rMOsGFmHQBAeTb2KQtpGZGlKL7sYybbD/IUFuDDTOEUy6T8XmxunAEFuJnx/QKnmHgJAh+mKja4NxK/T6BKE+XPO5+fLy4lXZ6fHi2V3zPMJGU+Bqvd+0Vv4yukZekt+Lof++LpPI1zfnqUWexzdf/4PHaFpDLuuc+UL3M4Pj89mkmaVb0Ep9unNFb5n40/sw8fUD8Uy+qtZx1gQ2YdAECpJgrvA+F4uBo8WYeoi+FqME2idCLbgmcsCpwoYLgazJIotY6xqScG1+uur8NfFx8YBAnH/ePzwnWVHLqE0tn56VGX3ylQDdddNlY+cO7bsfKB/itJOj89epC0UD5u8aSXiS5Pm8/5raUcu5JOlL/XdxTOqj5oj76M7jPvH5/j89OjrsobA/jxHC2juL1pY2JUT8Xu+/bxjWW6gXqiWFZvPesAG2bWAQCUI9B9yu6Gq8HEOkQNzWT7u+yLYhmKs15SdFPPOgAKGxU4duIpA/yZqth+IyOxxybq68Q6wL7uH58nrsvD9z5B287c11+uc356VPKlgYPFsr3X6CkvMJc9afa14namjQL3rhNZXIHvRC9F7q6qn/R7zT58QH1RLKupwPYru6O7A2gmt0/Zd+scrxhZB6ipiWyLZSzFCB8yhVMsO+YxXV9uiaEiAygzP0ng0Uz5e92hs8b756dHJ+wvgprqWgc4UKy80yuk5d6BEJiu7OK6P3uqpmC26Uwvn1m/Sn8qaq+7RDd1FM746PX943NsHQLA4f5uHQAH61kH2JBZBwDgn9unLDOO8ZrfhqtBZh2ijtyA/oNxjNj4+qi/zDrAlp51ABxsVODYG4t9RPA+V+SaFTjFsYrtYQdgT+61NDaOYW0p6Zukf90/Pv/t/vH5b5J+Mc6EALhOKTPufbUn6doyx4Z1h+jmVyiFsl8olAH1R7GsvnrWATZk1gEA+LVRKAtthudS0tg6RM1Nja/fN74+ai6Qou+mnnUAHCwucOzUUwb4Ny14fOwhA4A93D8+zyR9ts5h5EZS5/7xebw5CeP+8Xki6dYqFIJxYh3g/vH5yRWBfrPOEqilpM/uOQug5iiW1VfPOsCGzDoAAO8mMl724Q0xy74WNjW+/plb3hMoIrMOsKFnHQD7c3vkHDohZOkGdhGg+8fnTMUK6pduiU4AFbp/fJ6qXQWzB0k/3T8+999Z+nVWXRzgffePzyNJPysvDiH3IKnnXr8ANADFshoKbL+yWwaugWZJonQs232t3nIzXA1m1iHqbrgaLCTdGcfoGV8f9ZdZB9hwTAG4luICx049ZUB5JgWPH3nIAGBPLSmYLZUv19Zxxf33zEtPA+zBTRbqiq5HKe8K7d4/Ps+tgyAIHesA8INiWT11rQNsyKwDAPAnidJYbhPdwCzFskg+TY2vHxtfH/WXWQfY0rMOgN25rqFPBU4x9ZMEJZoVPL7vIQOAA7iC2U9qXvfKel+yzh7LtT2VlgY40P3j8+L+8bmnfF+9pj1Pd7GU9PMHXaFonyfrAPCDYlk99awDbJhbBwDgRxKlPUnfrXO8geUX/ZoZX//CdUkDBwmkQ3JTzzoA9tIvcOwdM4jD5/b9uSlwijO3VCdQJ5l1AF9cx1VXzeheeVBeVFjvS/a064G830ABD8C7om9X0rVtkkr9pvy5PLMOguA8WQeAHxTL6qlnHWBDZh0AQHFuCbGZcYy3sPyiZ4EUGnrG10f9ZdYBNnStA2AvowLHTjxlQPlmBY/ve8iAA7liSRs7FoqYWwfwqQHdK7eSPrvlFicFOlCs79nf0oRCZvBCL5i652msvBu0yY+JW0n/un98HtFNhjfMrQPAD4pl9XRhHcC5o9MDqD9XKMskHdsmeRXLL5Znanz9vvH1UX+ZdYANZ3RL1sP56VFPxfb+nflJgrK5pdyKDLBfnZ8enfhJU8iDdQBDM+sANZMVOLbjKYN3rnulo3wJw9CLZkvlXTb/vn987rnXoaImHs5Rhpl1AITj/vE5c8Xtn9SsTrMbST+55/PCOgzC5YqoTXrst9Y/rANgP26ZtFBk1gEAFJNE6YnyokmIhTJJ6lOUL81M0q+G1+8ZXhvNkFkH2NKTfREaH4sPPO5W0ozZxLUzlfRlz2MelL++ZJ6zrGfcd/RxwXadYdbypZ7GyifX7HKfulQ+q3teWprA3T8+P52fHv2i/GfW1cc/twe9/Myy8pIV5157x+enRxPl3cGxik188Gmp/L66lOfr/ePz1E30uNrh2+/kXjt853jFVNJJBddBjbiu4Oz89Gis/HkaK5zn6q6Wyh/fkxYUyObKu3d7yt83dvld3UpaKPD3DSMjBTz5BLv52//8v1+sM2APSZSOJX21zuH8zNJoQH25QlmmcLpVt/02XA1G1iGaLInSuWx//z8NV4PM8PqouQAew5t4zaopNwj5mqfQlz/Cfs5Pjzp6exBjUfWg2GuPPTfQiFe88fur/PdWJ+enR139taDRiJ+Z21ewr3yQt+rB+HVRKrMoaL/yXJgzmQOh2niu9hXuJF0p7yKbeeoIra237pW4P0Fb0FlWP13rABvm1gEAHKYGhbI75bOJUa6ZbB8DfTEjDcVkCud1rGsdAIfhw397uALBwjjGDzz29hPa768Omlzwd0WqmfSjKNjTft0Ru1p3LWbrP60LUzwXUCdbz9W+8udpX/YdZz+6uBXA8zoUvL6g7SiW1U/XOoDzMFwNFtYhAOyvBoUySYpZfrESM9l2K/cMr41mmFsH2HBpHQAAgDZyRcG5Nvb32ujcXP95ovfHUxZ6GSCeS3oSHVuAVxuFs5HrYOrppchd9vjE5vKBWRM6bAH4xzKMNeIGuP/XOodzM1wN+tYhAOynJoWyX4arwcQ6RFskUbqQ7ay+f1IYxaGSKO1I+q91jg0sLQoAAAAcwBW5O1tf0m6T0h7014J3JpbVBrAHOsvqpWcdYMPcOgCA/dSkUHZDoaxyM0lfDK/fUzWbkKOBhqvBIonSB9kv47LWFUuLAgAAAHtjeWIA1v5uHQB76VoH2JBZBwCwu5oUyh4kxdYhWigzvn7f+Pqov7l1gA1d6wAAAAAAAGB/FMvqpWcdYI0lhoD6qEmhbCmpz3J81RuuBjPjCD3j66P+MusAG7rWAQAAAAAAwP4oltVL1zqAc2cdAMBualIok6TRcDWYW4dosRvDa5+5faeAQ82tA2wI/bUWAAAAAAC8gmJZTbgB72PrHM7cOgCAjyVR2lX+fA198PZ6uBpMrUO0XGZ8/Z7x9VFjoXW7J1Has84AAAAAAAD2Q7GsPrrWATbMrQMAeJ8rlGWSzmyTfOhuuBrE1iFgXizrGl8f9XdrHWBD1zoAAAAAAADYD8Wy+uhZB9gwtw4A4G2uqyFTON2ob1kqrNe21nJLYD4YRugZXhvNMLcOsKFjHQAAAAAAAOyHYll9dK0DbJhbBwDwuiRKY0m/K/xCmST1hqvBk3UI/JAZXvvCLTcMHGpuHWBD1zoAAAAAAADYD8Wy+uhYB3AeGNwGwpRE6UTSd+scO/rsupkQjsz4+j3j66PeMusAGy6tAwAAAAAAgP1QLKuPC+sAztw6AIA/S6L0JInSqaQv1ll29NtwNZhah8BfZMbX7xpfHzU2XA0Wypd2DUISpR3rDAAAAAAAYHcUy2rA7T8Uirl1AAAv3IBsJunKNsnOroerwcg6BP7KFRvYtwx1NrcOsKFjHQAAAAAAAOyOYlk9dKwDbJhbBwCQc4X0ucLpPP3InaSRdQi8KzO8NkvXoajMOsCGnnUAAAAAAACwO4pl9dCxDrAhsw4AQEqidCTpd0nHxlF2dSepx56HwcssL55Eadfy+qi9uXWADR3rAAAAAAAAYHf/sA6AWnlgoBuwlUTpiaSJ6rPsopTvIxTz+lELmfH1uwqr4IF6WVgH2NCxDgAAAAAAAHZHZxn2kVkHANrMdd1kql+hrDdcDebWQfCxAPYt6xpeGzUX2OsMy4oCAAAAAFAjFMvqYWEdwMmsAwBtlURprPw5WJf9ydb6gQ1g42Nzw2t3Da+NZri1DrCWRGnHOgMAAAAAANgNyzDWw8I6gJNZBwDaxi27OJX0yTbJQT4PV4PMOgT2lsnu8UY3DopaKJzHUUfh3MMBAAAAAIB30FlWA4EMNt+55bkAVCSJ0p7yLp+6Fsqm1iFwkLnlxd1yo8Ch5tYBNnStAwAAAAAAgN1QLKuPG+PrZ8bXB1olidKxpN8lnRlHOQSFshoLYIJG1/j6qLe5dYANHesAAAAAAABgNyzDWB8z2XaXTAyvDbSG66qZqn57k61RKGuGO9k9BrtG10UzzK0DbOhaBwAAAAAAALuhs6wm3ODzg9Hlb1mCESif6yb7QxTKYG9ueO2u4bVRc8PV4EnS0jqHc2IdAAAAAAAA7IZiWb2MW3ZdoBWSKO0lUTqX9NU6SwEUypplbnjtruG10Qxz6wBOXSc+AAAAAADQOhTLasQNRN9WfNmbAPavARopidKTJEonyvcmq/OgKoWy5pkbXvs4idITw+uj/hbWAdaSKO1YZwAAAAAAAB+jWFY/sapbXmjprgfAsyRK+8oLEl9skxRGoayBApgk0TW+PuptYR1gQ8c6AAAAAAAA+BjFsppxe4f1VH7BbCmp5/b+AOBJEqWdJEozSf+RdGYcpygKZc12Z3jtruG1UX+ZdYANHesAAAAAAADgYxTLami4GsxVbsFsKanvrgPAA7fk4ljSfyVdGsfxgUJZ8y0Mr90xvDbq78k6wIaOdQAAAAAAAPAximU1tVEw8z3zf91Rlnk+L9BaSZTGygsPX22TeEOhrB3mhtfuGl4bNRfYZJ+OdQAAAAAAAPAximU1tlEw++bplDeSOoENMgG1lURpL4nSuaTvko6N4/iwlPRvCmWtkRleu2N4bTTDg3UAp2MdAAAAAAAAfOwf1gFQjNtTbJxE6VTSWFJf+w/K30oa000G+JFEaUfSVM1YbnFt3XU6tw6CyiwMr133/fxgb6EwHkcn1gEAAAAAAMDH6CxriOFqsBiuBrHyGcyfJV3r/VnVt8o70v41XA1YdhHwIInSjitcN2VfsrU7SV0KZe0yXA0WltdPorRreX3U3sI6gHNhHQAAAAAAAHyMzrKGcZ1mU/cl6ceA44n771nloYCGc51kY0lXtklKcae8o+zJOghM3MlusP/E6LpohoV1AAAAAAAAUB8Uy1qAbhCgHA0vkknStetYRXstZFcs68l23zTU28I6wFoSpXTwAwAAAAAQOIplALCnFhTJJOnbcDUYW4eAubmkT9YhgAMsrAMAAAAAAID6oFgGADtKorQnKVazi2RLSaPhajC1DoIgLAyv3TO8NupvYR1gw4l1AAAAAAAA8D6KZQDwgSRK+5JGki5tk5TuQVKfpVuxYWEdADjEcDVYJFFqHWOtK2lmnAEAAAAAALyDYhkAvCKJ0hNJfeXLLZ5ZZqnIrfJC2ZN1EARlbnjtphenUb6lpGPrEAAAAAAAIHwUywBgg9uPbKR8ucW2DLL+NlwNRtYhEJ7havAUUHcOsK+5wii6dqwDAAAAAACA9/3dOgAAhCCJ0jiJ0kzSfyV9UTsKZUtJnymU4QN3VhdOorRrdW3Ao451AAAAAAAA8D46ywC0lhuIHylfbrENxbFNd5Ji9ifDDp4Mr31ieG3U31xhdJYBAAAAAIDAUSwD0CquQBYrL5C1YS+y11xLGrE/GXY0l13BoWN0XTTDk3UA58Q6AAAAAADARhKlJ5K6b/334WqQVZUF76NYBqDxKJD9sFReJJtaB0GtPBleu2N4bcCXC+sAAHbj7hk7ygczusqL3Sd6/3m8lDSRNGEiEprio0E9p6viE0KelE/MkqQnVr0AADRBEqV9ST339eHnwY294m+Vvy9mw9VgVkY2vI9iGYBG2nhj6qvdBbI1ll3EoRbWAYADZZK+WocAEC5XEOi7r54OW5b7WPlrzSiJUiYlodaSKO1IGku6Mrq+JGm4GvzN4voAABzK3VeO3NehW71cuq8vSZQuJc2UT8iaFw7ombtn+K9xjLvhatD1eUKKZQAawxXI1l9t24PsPb8NV4ORdQjU1sLw2l3DawMAGmqjINCXv3vGY0nfkygdKe/kzzydF6iEe17MFcDnqCRKT+jUBADURRKlYxUrkr3mWPnklaskSm+VT4BfeDx/USPrAJIukigdD1eDsa8T/t3XiQDAQhKl/SRKp0mUPkn6j/I3EvMPeIF4kPQThTIU9GR47RPDawPeuAFIAMaSKD1JonSifBZsWfeMF5J+T6J04mYYA3XRUTifo7rWAQAA+EgSpd0kSufKVxko8z30UtJ/XVEuFH3rAM7I5z03xTIAtePejCYUyN51I6nLrGYUFWK7P7CjuXWADR3rAEDbuf3I5pK+VHTJL5Lm7roAAABoEHePl6naPaq/JlE6t56M6a4fypY3x8qXU/eCZRgB1MLGnhIjVftGVDdL5a3ZM+sggAdd6wCor+Fq8LSxUTKAFtsYzKh6ctWZpD+SKP3MXmbAXk6sAwAA8BbDe0spHxPNZDsh0/Lar+kq39+tMDrLAAQtidJOEqVT5fsmfReFsvfcSOpQKEMJHoyuS8coAKAQ48GMte9JlMaG1wfqpmsdAACA1wRyb3mWRGnP8Pqh6fg60UGdZe5BceIrxD7qtqSY64bpun/tuK8nVbA0UEg/K9ee2TGO8Z5FCJskWrzQhfQ42eSeO2NVt1ROnT0o30h+Zh0EjbVQOC32wD6WougKtJa7n5wqjNeB70mUPnG/BgAAUE/u3nKmMO4tx/K4/GDNdXydaKdimSt0jJQvgWY6WLaxnM6t8gfnLIQixyY3a7Dnvsx+Xu5n9aC82j2r+oNZEqV9SbHyn0MILyLvSqL023A1GFd4vY7y51RfeUHV5Ge09TjJQlgixhXkZ2Jwfhe/SRoPV4Mn6yAAEKC58s2QrXWsAwAtNVJYqxJMkyjtcN8GAABQS2OFM1Z5mURpL9QmiIo9+TrRu8UyVy2dSLrydUGPLt3Xr0mUXisfLF5YhXE/q5H7CqkwdKb893eVROmD8p/TtMwLuu6oqcJ58djVV5e9X+YHWHeNscIYvFvbfJxMlD/vJxYf5F2x+XvV162hO+XdZJl1ELTCk9WFuflDQ3SsAwBts/H5LCTHyjONbWMAwetYBwAAYJOb2B/a6lcj5c0PbTf3daI39yxzA/oLhVko23YlaW61Drz7Wc0lfVVYhbJtZ8qX/5i7J7h3SZSOJf2u+hXK1i6VP5a6vk/s9t7KlP98QiqUbTtW/lheuO7AylAo28lS0rfhatClgIAKza0DAACwp5HC/GwWWwcAaqBjHQAAgC1j6wCv+ORWLoMnrxbL3ID17wrzw8VbjpUXgqZVXrSmxaELSZnv4qL72X/1eU4jZ8p/Pl1fJ3Q/67nCLpJtO5b0H9dpVjr3867kWjV2I6lb5XKhAAAANRVbB3jDGYMaAAAA9eHu3T5Z53jDyDpAk/xlGUbXJVXnzo6rJEo1XA3isi/kikN16Lx7zbq4KB/LMtb8Z/GaY+UFs95wNZgXOVEDuqW+JFF6UsFzaqp6Feir9CApppMMAPb2ZB0AYXLd/qGYD1eDkXWIJnGTsEKezNhVvooLAAAAwjeyDvCOWGHnq5U/FctclXRmksSvqyRKF2V2X7iOsiYUhyZJlM6LFIRc51ETfhbb1gWzgzfhbkChbO0qidKnsgZy3PMppM3XQ7FUvs/gxDoIANTUXOHOAIStOnX7Y3996wAf6KoZn7sBAADaoGcd4B3HSZT2h6vBzDpIE2wvwzhTczo7vpa1L5czKvHcVTqWNHMbYO/NdSKGtrmhT8c68IOsKz5PPGax9qXEPcxGJZ23zn6T1KFQhkBkhtfuGV4bAFBPXesAAAAAqD83Zh76BP+udYCm+FEsa2hnx6SMk7puoaYUFaV8iZLRgcdO/cUI1uWB+7tN1azHiZR3Ip74PGEDn09F3Uj613A1GB3a0QgAANByHesAAAAAaISudYAd9KwDNMXfpR8V0pFpknJcus4n38o4p7Wv+2407YocIe8F4NNeRSL3uGvi8j5FCqtv6Xs+X13dSvppuBr0h6vBwjoMAABAjTVtEijQNifWAQAAcLrWAXZwYh2gKdadZSM1t7MjLuGc/RLOGYLxnt8/KiFDqI6132Npn++tm9jz+Xqez1c3d8qLZL3hapBZhwEAlOLEOgAAADVCwRsAEIoT6wA74H3Tk3WxLLYMUbK+z5O5fdCaWljs7/qNrgutbU/E0R7fe1VWiACc+dq7zD2Omvp8+siDpM/D1aBLkQwAGq9rHQAAAAAAALzt726wuslL6R17XorR57lCc7xHEWTX72uSM1csfVdJS3+GpufpPB1P56mTdZGsM1wNptZhAAAAAAAAAKDt/qF2DFZ3Aj1XiLqSZjt+Xxv1JM13+J6m6wZ2njp4kDSmQAYAAFC6pcJeveDJOgAAAAAa4846QFNQLNtf1+O5QtTb8fs6JWYIWU/SxDhDCLqeznPi6Twho0iG2huuBlkSpdYxAADY1VzSpXWId8ytAwBACNxqV51dv/+9LQw2zrUYrgaLQsEA4EUm6at1iA88WQdoin+IHyawjxPrAIEIeaZuSK6Hq0FsHQIAAKBl5gq7WAYAreAKWD3lRaye++uDX593nMB3q3as+AOgGgvrADvIrAM0xd9FsWxfXesAMLWwDoBauUqidJFE6SiJ0hPrMAAAAC2RWQf4wMI6AABUJJb0XXlXxqWqmchwUsE1ALSE61RdWuf4wNw6QFP8Xdyo76vpHTUL6wCBm1kHQO2cSfpV0iKJ0jFFMwBopbl1AKBlMusA72F5MAAtcmJwzQuDawJotpl1gA9k1gGa4u/uRv3BOkjJ5h7PFXoluai55+9rkuVwNZjt8H3zknOE4NbTeeaezlMHx8pn01E0A4D2ebIOALTJcDV4knRjnQMAYLM6E5+3AXg2sw7wjmt37wsP/u7+nFmGqMDC47nmHs8VomzH75uXmCFUsx2/b15ihlAsPJ3nydN56mRdNPvfJEqnbg13AAAA+DWxDvAGX5POAABv61oHANAcrnki1GajqXWAJlkXy6aWIco2XA3mHk/35PFcoXnY42eVlZgjVJNdvsl1a96VmsTezMdJhqtB5uM8NXYl6b+uaHZiHQYAAKAp3H1miPfkY+sAAFChKvYoA4AqjK0DvOKWsVW//i79KCY1dYab7+U35p7PF5Lxrt/oCkJNfcy85m7PouukpBwh2HU5yl2FOIhRtSuxPCMClkRp1zoDAAAHGFkH2PILAxrATkKdvY/6OLEOAKBZhqvBVOG9P42sAzTN3zf+eWwVomSzwM8Xigf3pN/Hvt9fZ5M9v3+m5u5vN/F8vszz+eqKPc0QshPrAAAA7MsVpq6tczjXw9VgYh0CqImFdQAUl0Rpz/DyXcNrA2iu2DrAht88r6YHbRTL3AeJpnUKHVIAepd7EIZWRfZhtO8B7mfbhq6gvR9HbmPFURlhjC3lv1jm+3x1t1k0i42zAAAA1N1I9p9ZroerQWycAQAAAAW4+slv1jmUr4A2sg7RRH/f+vexRYgSjWt2Xis3BZbViz3mCNX4kINcga1pBeixKwR645b09L1cahMcS/qeROkiidK+dRgAAIA6cveusexWffiFQhmAlupZBwAA31yRynLlgjvx+lqaPxXLAlumoqhb311law3rqFqqQMHLddr94itMgIo+jvpqTidimUvHjEo6bxOcSfpPEqUZ+0YBAADsz31m6anagtlS0s8svQigxU6sAwBAGdxEKIsayp2knu9GBrzY7iyT8kHruu+1dKe8SFGmvur/c5KkftEnmPsA2JQi66ZChUTpx0zWvur/WLlTiQUt1132razzN8SlpD+SKJ2ynxlaZmEdAABQf65g1lE1kx5vJXULrN4BAE3QtQ4AAGVxBbPPqm7M90YUykr3l2KZ+4GPK0/iTyUVVje431O9iyDfXDdhYe4FoknFjqXyx9Gi6IncB/Ou6tuNeK1qnlNjNW/ZyjJcKd/PbGQdBKjIwjoA4EFmHQBA/ll3uBp0lX9uKeNz3IPybjIvnyMAoOY61gEAoExuNbKuyt1eZql8We/CDS/42GudZetOod9Uv0LQb6qwwroxO7GO+y3duOKEN+58P6v+yw4+KH8czX2dcKO4GsImkPv4NlwN4gpfjPuqb1GxSseSfk2idJ5Eac86DFqhYx0AOFDXOgCA8LjPLR3lRTMfn13uJH0ergYduskA4Icz6wAAULbharAYrgZ9ST/J78prD8rvVTss612dV4tl0o/N6jrKix/XCrdwtlSe71/D1WBUdYXVzU7sS/q3wv45SXnXzi/Kf1b9Mi7gPhx25e+DZ5Ue9PIhd+775O6xMpL0L4W/bOX6OTWu8qLu+dsTHWa7upD0O0szogId6wDAgU6sAwAIk7s3Hw9Xg45ePvPu8/nlVvlnnn8NV4NuWftlA0Adsd82gLYZrgaZW3ntn8qXZ7zR/nWCO+WNFj+78ekx3WTV+sd7/9H9Mmbua/1m11NeDOkqH6ityp2kJ+XLMf348rWMYFGuuBJLUhKlHeUDiz33n9d/XlYY6U7SfP1V5c9pYynPcRKlfb08Zqr8///Ig14eR3NJWRkFste4LrM4idKx8k6qnvKfj+Wsq6Xyn8NM0sxy2Zh1wcz9fL5a5aiZK0n9JErHzDYBAADYj5vwN5MkNwGpq/zzXGfrWzNJT1V9bgCAGutYBwAAC25cc+q+XqsTbFu4rzmFMXvvFsu2uQ8F882/cwW0E738wjva/03xaeu82frv6/hBxBUaFnpjf4qNn9mJ/rw8UO+Ay62vsb7mIqT18Tc/eG7a+BlUIcjHkfs9TdzXDxsvottOdNhyUk/aet5uCPaFeLgajJMonSn/+YRUaA3VemnGvqQ4pNcBoKAn6wAAgPZw98aZcQwAqLuudQAACMFHdQKEZa9i2Ws2ihBZ0XO1xVbhZmYUw1SIxatQbLyIvmZWWZAAuMdJz+3LNRZFs11cSponUTqpehlNNFrH6sK8X6Ah5tYBAAAAKtS1DgAAwL7e3LMMAELh1v3tKd/v7RfVbz+8qh1L+ppE6Zy14uFJxzoAcKAgJlmE2sUNAABQko51AAAA9kWxDEBtDFeDxXA1mLiN2P+tfNNLCmdvu5D0RxKlI+sgAAAAAIDWuLAOAADAviiWAail4WowH64GIwpnO/k1idLM7YcHHKJjdN07o+sCAAAAOIDbRsHawjoAAKB+KJYBqL1XCmffxCD7tvVeZrF1ENTSmdF1n4yuiwZIovTEOoPDRA4AANAmXesAolgGADgAxTIAjeIKZ+PhatCV9E9JnyXd2KYKxrGk70mUzgIaRAawoyRKOxS899K1DuAsrAMAAABUqGMdAACAQ1AsA9BYw9XgabgaTIerQV954exnSdeSlqbB7H1S3mXWtQ6C8Bk/ThaG1w5RT1LfOAMAAADwnp51AAAADkGxDEAruMLZbLgaxMPV4EQvhbO2OpP0RxKlI+sgCN6J4bUXhtcOUV/SJzpDAQAAELAL6wAAAByCYhmAVloXzsRSjb+yLCM+cGIdAD98cn/2LUPUSM86gJNZBwAAAKhCEqU96wwAAByKYhmAVttaqvFfkn6R9GCbqnIsy4j3dA2vPTe8dlCSKO1v/Gv/jW8DAAAALHWtAzhd6wAAgPqhWAYAznA1WAxXg8lwNehI+kntWqZxvSxjbB0EwTkxvPaT4bVD09/4509JlHaMctTJiXUAAACAlulZB3BOrAMAAOrnH9YBACBEw9Ugk5S5Pb1iSSPlBaWm+55Eac8tUQlItrMyF4bXDoZbJvVq66/7kiZVZ6mZrnUAJ7MOAACh2Viq7UR/fb1e6OUeYD5cDZ4qiAT8xdaSgl29XYCZ62WS19NwNZiXFKkOetYB4IdbeebE/Wtvj0MXenkNXwxXg8Wb3wkv3ETKjvvXEx3+OehJG6u7uHExoFUolgHAO9yH84mkifuwNNLLvkFNdeVujHsMTkCGszL5YPVD/5W/G4liGQAgcG7CR899dd3X8Z7nkKRbvQzAzpUXJDIfGdFubpC5u/F1Iumy4Dklaan8sfrjq+lFNPez3Ov5DXvus39XebGl5/70NlF46/nwpJfnBK/jO3LvpV3lv5uOXl6ruirxOed+d1K+Vcli+4vfH5qIYhkA7Gij26yjfKA6VnM/DFwo38es3/QPdfjQhdF1l0bXDdHolb87c8/PWcVZ6qRrHcB5sg4AAFVyA6+x8kFXX/cRl9oqYLhBvAe9DLxmDNzhI+6zXF8vBdyyVg851tbjNonSpfKO85mkWQMnJvasA2zoJFF60sCfcWHribEbX1WMaayfD9LG5GP3On6nl4kQmVreUbwxyaSrEoqXBzpzX6+9D7duYgCajWIZAOzJdbuMkigdKx/EHqmZRbMz5cXBmAH5djLeF2tueO1guA+zbw00jpQPtuB1Qbwu82ERQBu4wb1Y1S9dvh7A+yTpqxu4u1FJxYitpa728ebSfOtzUugrTxKlfeWDzn3ZDjofK3+sflK+/P21pGmDfvc96wAbrpSvmHKn/HPFQhvLZe76M//gOV+bos7GJIa+7Asv2y7c1ydJXyUpidIH5YWzTPlEiIVRttK5x1hv4yu0389H3psYkCl/L15YBAMO8bf/+X+/WGcAgNpLojSWNFb9bmx29ctwNZhYh0C13NKjvxtd/na4GvSMrh2MJEqn+ut+ZZv+xYePv3IfOv9rnUOShqvB36wz4K+SKP0/6wwbeL0rWRKlE9l3m86Hq8HIOIN37vV2rPffq6wslRfNxkXeKzcmyJU9CePact9g4/u+bQ/D1aBT5ASuODBSXhwIYgLNO+4kTYarwdQ6SBFJlD4p/J91WTaXGZyGMNl0o4typPqPU9xJmqohhZeACvhVWf/+pnUpML9naz8/K6b7YwZ2zyBJ34arwdjHiegsAwAP3AebaYOLZr8mUdq1/AAPE13Da2eG1w6C+4D70eDjWPksUfxZxzqAc2cdAICk/P2s0B5E+LPAi2Rrx3rpLrnWAUWzHSat+HSVROkshEH2ABz0Wcqww7GoC+WdZrHyx2lmG+d9bpBUygf7T8RrrPTnZQZPZLj6g/v9xAr79XlfF5J+VT4uUbvCmXtt6uulQNa2ovL69zdOonSmgpNYAjCR/WvercLq5m0MimUN5d4c+3rZAHJ9o7heCzhTjd5YgLpoeNHsyi1tM2rCbCDspGN47SfDa4divMP3XCVRWvcPG2XoWAdwnqwDAIBPbsBvovoNwu5dNHOfqav+/5yIJZb3tlG87aveg9CXkn5PovS3EDpRXfdLVy9FMau9jOuma3FR95o1lv0gftm2C2cTBboHoHsO9VW/98yybE9iYWwJwaFY1iDug8tI+QyStwboN9cC/jWJ0lvVYOYSUDcNLppdSeomUdrjpqYVuobXnhte29yOXWVrE+UfwvCiYx3AebIOAAC+uPvaiepdjFgP0n1Tvuzd0zvfO64k0Z+dJVHaYRLMbmrS4XiIL+sJ0FU/FhralVS1Sl8j3ZJwEzW/SPaaC0nflXdmeluGrQj3ujRS/jyq8/tl2a4k9d3Ez4l1GGDt79YB4EcSpSPlHWNftd+g/HrmUubeYAF45IpmXUnflK9j3gQXkjJXoEezdQyv/WR47RCM9/jeTxvL4SDXsQ7gzK0DAEBRSZSeJFGaKR+QbMrA31dJczfr/y/cYKfVwHPH6Lq1kURpxy2R+V81t6hzofwx2q3iYu55PlW+B01Tf6aVqeLe3P3OJpL+UDsLZdv6lhdPojR275X/lfRFzXm/LNOx8kYOxpcQDIplNZdEaTeJ0rnyFuQiL8SXkv5wmxcD8Gi4Gjy5GU4dSb/ZpvGm0g9vqJ67WTXriLTcrNaae17tO0gx8Z+k1jrWAQCgCVwxaaFmDsSeSfpPEqWzVwbpJtXH+aFjeO1gvFZscMWBsfLJKG0o6Bwrn6TYLfMi7vxzteNn2gju+bFQXpRBrvJlQtevSUmULpRPKGnie2UVLiUtGF9CCCiW1ZjrJvtDft8QviZROncz6QB45IpmI0n/Ur4ZZ92dqYIPbzDTNbz2g+G1QzA54JgLd1+AXMc6gJNZBwCAQ7mixH/U/Nnxn+QmgW1013wyzoQNSZT23e9lobwrsOmPyU1VFMz6as62AaHolHVi1032u9r1PNiJwWobI+2/whdet36ti62DoN0oltWQu4GfKe8mKwMdI0CJhqvBYrga9CT9pPoXBSqZ7QgTXcNrLwyvbcp9ODh0RuKYyS4/8IEVAA60UTD6ap2lQmfKJzgsZN9dszC+figmbiLv/ykv2l6pvcWB9WeuE+sg2FnH9wnda/NcdJO9p2MdAIUcK99/LrYOgvaiWFZPfZU/040BcKBkw9UgG64GHdV/PzNeL5qpY3jtzPDaZtwAyKTAKY4lTX1kqbOQXouGq0FmnQEA9uHeizLZF4wsHKu9xZgQXchgWbWAHUuaWYeADXd/m4nnxEc61gHgxfe39hQFykaxrJ7GFV3nWNKU2UtAudx+Zl3Ve2lGCmbN0zW89pPhtS3NVHyQ7pLlGHViHQAA6mijUMZgLBCmy5L2me+WcE54QqFsLyfWAeDNlPElWKBYVjOuFbXKpYUulK/BC6BEG0sz/qz6dplRMGsWy82J54bXNuEKXL5+5r+2/HnYsw7g1HkCBICWoVAG1MaohGW3TzyfD55svDbT9bqbrnUAeHMsaUYDB6pGsax+xgbXHPHiBFRjuBrMlC8dcGOb5GAUzBoggN/f3Pj6lXIbUfveh7TN+1p0rAMAQA1lolAG1MGxbMaFUDEKZYDOxDYDqBjFshox6CpbOxbdZUBlhqvB03A16Ku+XWYUzOqva3jt5XA1eDK8fqXc82RWwqnbvBF8xzqAk1kHAIBdJFE6FYUyoE6uSuguQ3im4rUZ+MT+ZagSxbJ6GRteOza8NtBKNe8yo2BWbz3Da88Nr10pV8iaqrzZohdq50w8yyVENz1ZBwCAj7hlgK+scwDY29g6AMrjXps/WecAAjGxDoD2oFhWE66KbtFVtnbGoDdQvY0us8+qX5fZumDWsQ6CvXUNr50ZXrsyFe4N88l1DLRCYJ10c+sAAPCekpYBBlCNq8Due+CJ+/w8No4BhOTMrbYGlI5iWX30rQPIttMAaLXhajBVXsC4s02yNzZlrSfL5T4WhteuRIWFsrWrFhXMutYBNiysAwDAWza6mwHUV986AEoxEfuUAdvG1gHQDhTL6qNvHUAUywBTw9VgMVwNupK+WWfZ04Xau3dS7bhZ5pbmxtcvlUGhbO0qidJ5C56HPesAa8PVYGGdAQDeMZbtyiUAiut7Ok/X03lQkPssxvKLwF/RXYZKUCyrAdeCHcKskq51AADScDUYS/pJ9VqW8ULSzDoEdtKzvPhwNZhbXr9Mbjnjuew699aF667R9avQsQ7g1K0LGECLuMHYL9Y5ABTmq6gSwngTcmPrAEDARtYB0HwUy+qhYx3AOWvBjHSgFoarQab8taFOA7KXLVoKrs56hte+Nbx2qdzeo5nsZ/GvC2Z94xxl6VgHcBbWAQDgHRPrAAD88LQqRJ0+UzaWmyh/aZ0DCNiFe54ApaFYhn11rQMAyA1Xgye3LOO1dZY9XCVROrYOgXdZfkCbG167NEmUTiT9R+HM2j2W9J8kSqcNnAQTygDD3DoAALzGLWFkuTcpAL96Hs7x5OEc+LPFAceMPGdooyfrAChd3zoAmo1iGfbVsw4A4M+Gq0Es6bN1jj18Za3pMAWwPN/c+PpeJVHaTaJ0rnCXurqSNG9Kl1kAj99NC+sAAPCGsXUAAF51rQPgVYsDjok9Z2ijuXUAlK5vHQDNRrGsHhbWATZ0rAMA+KvhajCV9G/VZx+zSWAD28j1jK+fGV/fiyRKT1wH5R8Kf/b+mfIus6wBS1p0rQNsWFgHAIBtbrKS9XLAAPzqWAdAcW45zVBWoQBCFspKImgoimU1MFwNFgpnALxrHQDA64arwVz12cfsWPm+SSfWQfAnPcNrL937Xa25gci5pK+2SfZ2Kem/bmnGjnWYA3WtA6y5fSUBIDSxdQAA3vmYmDX3cA4U07cOsKel8v2mX/uqw3gEaszTXo3Aq/5hHQA7yyR9sg6h8GfIA602XA2e3I3DVGG8ZrxnXTDrDVeDJ+swkGT7mMkMr12Ye96NVf+ZblfK9xa8kTSpWdGnax3AebAOAADb3PtUXd+jHpR37GZv/PeupBPV9/8PsPZkHaCBnvb8/m4JGXy6kzSTlO3z+cCtJnOil9fpnvuTsUU/bjf+Ofvgezt66UTtqt6djF3VfPwA4aJYVh+ZAhn4dgPbmXUOAK9zhad+EqVT5QPfIbuQNBEznc0FMDtrbnz9g7hOsljNG6D7JOlTEqUPyp+j0xoUtUP5HcytAwDAK2LrAHu6UT4wO9vn/cd1R3fdV0/hvDfAzp3ywkXm/n2uPxcyTpQ/XjrKHzO1W6rUwxhNpvqtihA0t+rLPkJ9rbpWPoFufsjBG8dl2//NvV539PL866p4EWdR4NgQLZW/Zs318jr2dOjvY5sbA+jo5Wcf6uNwW8c6AJqLYll9ZNYBNnQVVh4ArxiuBnESpZmk79ZZPnCVROl8uBpMrIO0XM/4+pnx9XfmPtjF7qt2Ayp7OpP0q6RfXbdZpnzgcmEZaltgeyDOrQMAwCa37HXoE6ikfFBwonyCxuKQE7jjFsoLbZJ+DAb23VfT37fbbqn8XiWTNN+jgDRb/4O7zxspv8+rc+fFzoarQZZE6bVqWiysu8DuY9fuJMW+ijKv2Xi9zjb/3r1ndXVYEW3hJZyNB70UxjJJi7I/c732GplEaV/5a0Ff4b4edK0DoLkoltXEcDWYJ1FqHWOtax0AwG6Gq8HUvXaEXjD71RXMMusgLda3vHjov3v3oa3vvoLo9DbwyX39mkTpnf48GLWwiyUprHuTuXUAANgSWwfYwY2kURnvJ+4eI5M0coPSI+Xv560ohLTAg/Ji19THwL57DI6SKB2rHkvbezFcDeL1P++w4kRv48+uwnwu3ao+k/FOrANsuVb+evxkcXF33Ux+i2ghutVLYSyEz1OSpOFqMFP+mrp+z4wV3uSBE+sAaC6KZfVyqzBaYrvWAQDszhXMnpR/2AvpBmfbLInSTg2Wemsc98HDct3424+/pXru5xIrH1AL4f03JBfu64skua6zUgY5d9Q1uu5r5tYBAGDLyDrAB36paoUBV0yJ3Xv8yH2FfH+M1y2Vf7bxUiB7zcbS9rHCn3jo1Q6T2P70393PaKywulCy4Wowtg6xo551gA3Xm4XTkOxYRFtUmWkP667Xufbc982Se30dJVG6UL7aSCjY8w6loVhWL5nCGKy7SKL0hAFtoD6Gq8HMzRDMFO6AwLHyGUw92xit1De+/tz4+q8argZPbinTE7ER9WvW+8lkAcyE7Blf/4cAfhYA8IObFR7SAPampaRemct8vcV9lh0nUTpRPsj/peoMOMiDpPFwNZhWdcEardRhxv0+pkmUztSSTryGugm1UPaet4poxtZLKmbKPyvNLcN4MFVYxTKgNBTL6mVuHWBDV2G9EQH4gFvOtaewC2aXSZSOazQLsCl6xtfPjK//JvfBZq58QK2jvLAYq72Fszvl+8nMAps0E8rvI8guSQCtFlsHeINZoWyTey8bJVFKsSxslRfJNrmCWVfhFlVPrAM4c1EsO8SJdQDlz7HYOkSNPeilYBfCREKv3CTSa9Vj/1OgEIpl9TK3DrChp4AHNwG8riYFs69JlNZmaYKG6BtfPzO+/k7ch56JpMnGnidt+MCwXupoEuIHvx321ajS3DoAAGzpWwd4w8i6UIZaWCp/rEytgyjvQOwrzE7NrvJuf9RT1zqA8mL0k3WIGpoqXw52YZyjClO147MvWu7v1gGwO/fi+2Cdw+lZBwBwGDcw0VP+4TNUM7f2OErmCg2WhdPbOn4wG64Gc7dMyT8lfVPYz6dDPUj6LKkzXA0s9yP7SM86wIa5dQAAWAt4CcbfAil+IGy/Kb8HmVoHkV6W7jSOAZRlYR2gjoarwSLgz0heucnMoYxJA6WhWFY/c+sATtc6AIDD1aBgdqx85hLK1ze+fmZ8/UKGq8GTWza0o+YUzR4kfR6uBp3hajCtQTGzZx1gw9w6AABsiK0DvOJhuBqMrEMgfG6izpN1jk2ucNeEez1gW886AGphYh1gLbDVRdAgFMvqJ7MO4By7mYoAaqoGBbNPSZSOrEO0QN/4+pnx9b3YKpr9ZpvmYH8qklmH2UPXOsAaS4oBCEzPOsArYusAQEEz6wBACbrWAVALM+sAQNkoltXP3DrAhp51AADF1KBgNk6itGMdoqkCWJ5p2bS96VzRbCTp35LujOPsaqm8K65bsyLZ+jEcyv6Lt9YBAGDN3T9dWOfYctu093200sw6AFCCT3zuxkcC2x4IKAXFspoJ7MNFzzoAgOI2CmYhOhYfSMsUG18/M75+adyeZl3lRaiQ3SovktV1U++edYANc+sAALChZx3gFWPrAEBRw9VgZp0BKMnIOgBqYWYdACgTxbJ6CmWmes86AAA/XMHss3WON1wkUTq2DtFQfePrZ8bXL51bmvHfCm8G3lLSL8PVoFfzTal71gE2ZNYBAGBDzzrAFrrK0CShjMmgGebWAZwvbLeCHcytAwBlolhWT3PrAA77lgEN4pZfC7Vg9pXXG78CWIJRasmsNFeM7kq6sU3yw52k3nA1mFgH8aBnHWDD3DoAAGzoWQfYMrUOAHg0tw6ARnmyDrAh43M3PrCwDgCUiWJZPWXWATb0rAMA8McVzEJdNm5qHaBhYuPrP9S8o2kvbi+zvqRr4yjXygtlc+MchQW2X9myTY9nAGFz+85YT4jZNrMOAHi0sA6wpWcdAI1xLApmAFqMYlk9za0DbOhZBwDgl1s2znpA/zUsx+hX3/j6M+PrmxiuBrHsOji/DVeDuKZ7k72mZx1gQ2YdAAA2dK0DbLlp0HsPIIXVCYT6y6wDbDmW9AefvfGGuXUAoEwUy2rIzQZfWudwetYBAPjnBvRDXIv/q5stjQJYgtGW0ZKnn10hvEl61gE2ZNYBAGBD1zrAlsw6AODZ3DoAGuXJOsAbviZRukiiNLYOgqB0rAMAZaJYVl9z6wAO+5YBzdVTmAWzqXWABoiNr78crgaZcQZTFRfMPrvrNc0n6wAb5tYBAGBDzzrAlsw6AACEKvDl0c8kfV8XzZIoPbEOBHMn1gGAMlEsq6/MOsCGvnUAAP655XJihdPJunaZROnIOkTNxcbXnxlfPwiugPVbyZdpZKEsidKedYZNbS/+AghO1zrApsAHggEgBLfWAT5wJum7pEUSpRNWewHQVBTL6iuzDrChZx0AQDnc4EbfOMZrxsxqO0wSpX3l69BbmhlfPxjD1WCk8vYI/KWJhTKnbx1gQ+iDGwBaxN0fWb/Pb+I1EgA+NrcOsKNjSV8k/TeJ0lloE9gAoCiKZfU1tw6w4ZJBa6C5XMfEL9Y5thxLmliHqKm+dQCFNeEjBCP5X/L0ergaTDyfMyQ96wAbMusAALChax1gy9w6AADUQGYd4ACfJP3ulmgcMS7YGj3rAE7XOgCaiWJZTbnl0ULaS6hnHQBAedyge1ndL4e6YibbftwHmCvjGDfuPQxOCUue3g1Xg9jTuYLjln25sM6xIbMOAAAbOtYBtsytAwBA6IarwUzhbX+wqzNJv0r63yRKp0mUdo3zoB1OrAOgmSiW1dvcOsCGvnUAAKUbKawivUR32b761gHEEoyvckuejj2caqkwfs9l6lkH2MR+ZQAC07EOsGVhHQAAamJmHcCDK0l/JFE6T6I0ptuskTrWAYAyUSyrt8w6wIaedQAA5Sqh+8WHiyRKR9YhamRkHUDN+BBYCtfBeVPwNPFwNVgUTxO0vnWADezFAyA0HesAW+bWAQCgJqbWATy6kPRd0iKJ0olbGQLN0LEOAJSJYlm9ZdYBNpzRag00n+t+GRnH2DZmxtrH3Gu09dJ1LMH4sZEOL0jfuCVcmq5nHWBDZh0AALZ0rANs4n0fAHbjVit4sM7h2bGkL5L+m0RplkRp3zhPIyVR2kmitPfKV7eEy52UcE4gGP+wDoDDDVeDRRKlD8rXBw5BX8wcBBpvuBpM3V5h1ntfrR0rX75uZBsjeCPrAKKr7EPuvX0i6euehy4Vxu+4VO4D9rF1jg2ZdQAACBjdt0A1utYB4M1YeUdWE11KunTjmBNJUyZUfMwVvDrKn+cd93WiHSfCJlG6/Veb781zSU/un5/01zHdxSurllhPwAVKRbGs/jKFM2Ddl5/9VgCEb6T8Zi2UG6UvSZROWrD83EFc513fOIZEsWwnw9VgnERprP0mw7Tl8d+zDrCJ/coABKhrHQBA5UKaSIQC3MTUscKZFF+GM0m/Kl8hZqr2fI75kPvc3lP+Xt5TXmD07fKNf34rUwkRgHCxDGP9ZdYBNlywDjHQDhv7l4Vkah0gYH3Zf4i+ZubgXsZ7fO/DcDXY5/vrrG8dYAMdEwBCZP1+v+nJOgAA1NDIOkBFNpdoXK9e0zpuCcVREqWZpP+V9B/lq4yUUSgD8AGKZfWXWQfY0rMOAKAabv+yX6xzbLhs6w32DkbWAURX2V6Gq8FU0t2O3z4uL0k43BIkIc2ynVkHAIDAza0DAEDduD2Ib6xzVOxK0u9uX7OedZiyJVF6kkRpnETpXNJ/lXfaURwDAkCxrOZcq3JIG4D2rQMAqM5wNZgorO6KiXWA0LgPG9bLZS7dhz7sZ7LD9zy4wlob9KwDbMmsAwAAAKCRYuV7ErfNpRpcNHNdZBNJC+V701l/TgewhWJZM2TWATZ8cmvsAmiPWOHcyF+4vZ7wIrYOIDpwDuKKYB9NiJmUnyQYsXWADQ+uuxYAAADwyi1f3zeOYalRRTNXJJsq7yL7orCWTAawgWJZM8ysA2zpWwcAUB3X4To2jrFpbB0gFG4fySvrHGpXQce38Tv/bamW7NXnHsshzbzMrAMAAACguYarQSbps3UOY+ui2cx9HqgVt9ziRHmRLITP5QA+QLGsGTLrAFv61gEAVCuw5RjP6C77IbYOIDpwiprp7c7NmZt12gZ96wBbMusAAAAAaDa30kRI+4Rb+SRpnkTp2DrIrpIo7StfbvGLbRIA+6BY1gBuoOzOOscGlmIE2ilWOMsxjq0DBGJkHUB0lRXi3uNnb/znSWVB7MXWAbbMrAMAAACg+dzE1LZ3mEn50oVfkyidJ1HatQ7zFtdNNpP0H7HcIlA7FMuaY2odYEvfOgCAagW2HGPru8vc/38IN+cz6wANMHnl71rTsRfgEoy3LeroAwAAgDHXYUbBLHch6Y8Qu8xcEW+uvBMOQA1RLGuOzDrAlr51AADVC2w5xrF1AGNj6wCSblwRFQW4otjD1l9Pqk9ipm8dYMvMOgAAAADaxRXM/q2/fi5oq69JlGahrGzlJqv+IenMOAqAAiiWNcQbA2mWWIoRaK+RdQCntd1lSZT2FMZN+tQ6QINMtv49M8hgJbYOsCWzDgAAAID2cWN/XUk3tkmCcal8L7OuZYgkSkeSvltmAOAHxbJmmVkH2NK3DgCgeu4G/pt1DmdsHcDI2DqA8mUCZ9YhGiTb+GeWYLTTmp89AHhwYh0AAJpmuBo8DVeDvqSfFdakeStnkjKrglkSpVNJv1pcG4B/FMuaJbMOsKVvHQCAmYnCuHFvXXeZ6yq7tM4husq82uogn9klqVzfOsCWmXUAAKiRrnUAAGgqNzGxq3yi6tI0jL1jGRTM3FjDVZXXBFAuimUN4t4oQ3qD/ORmhANomeFq8KRwlmMcWweoWGwdwJlaB2igmfszM8xQtdg6wJaZdQAA+MCddQAAQDVcl9lYUkcUzSotmLlCGUsvAg1Dsax5ZtYBtvStAwCw4Qr4t9Y51KLuMjdBIYSZbTfD1WBhHaKBsq0/G8190A1pCcblcDXIrEMAwAeerANs6FoHAIA2oGj2w7pg1inzIu5zyqTMawCwQbGseWbWAbbE1gHgXxKlJ9YZUBsj6wDOyDpARcbWAZypdYAmcgXoO9e52QaxdYAtM+sAAFAzx9YBAKBNXimahbA1QtWOJc3KGrdy552J9zigkSiWNU9mHWDLhdUmmyjV2DoA6sHts3RtnUP5a1HPOkSZAuoqe3BFHZRjbB2gQn3rAFtm1gEAYAeZdYBNfBYEgOqti2bD1aAj6bPaVzS7UHmfm8aSzko6NwBjFMsaxs02v7HOsSW2DgDvenzwxR5GCmMZiLF1gJKNrQM4E+sATdaWQmQSpX2F9SF02ZafPQB41rEOAABtNlwNpq5o9pPC2CahKl98T5h15/vi85wAwkKxrJlm1gG29K0DwB/Xcn4h9iDAjlwRf2IcQ5Iuy1673EpAXWVLsQQj/OhbB9gysw4AADvKrANs6VoHAABIw9UgG64GPUn/Uhirv1Rh4vl8U8/nAxAYimXNNLMOsOXMzRBHM/S2/gR2MVEYSz+MrQOUZGwdwJm1aD8tlMRNygih+LtpZh0AAGqqax0AAPBiuBoshqtBLOmfav6+ZhdJlMY+TuTOE9LKFwBKQLGsgViKESXrbf0JfMi9Lo2NY0jSVVkb/VoJqKtMCuN3jPrrWwfYwhKMAGpjuBpk1hm2dK0DAAD+6pV9zZq6ROM4sPOUaal8PPibpJ+VL73503A1+NtwNfib8gLpT3t8fXNfN5LuKv0/AYz8wzoASjOT9Mk6xIZPSZSe0HHQCD3351kSpZ3harAwzIIaGa4G0yRKx7KfjTVSPW50dzW2DuDc8noAT0bWAbbMrAMAwJ4eZH+/tcZnBgAI3HA1mEqauomYI+WT10J5HynqLInSXpHJJDXoKruWNP3o/9GNyb77PVv+8r1JlE4VzmRdwDs6y5prZh3gFbF1ABTjbpwuNv6qZ5MENTa2DqAGvRbRVYamSaK0qz+/z4RgZh0AAPa0sA6wpWsdAPDsyToAUAa3ROPIdZv9rLwIs7RN5UVsfHxZbiT9a7gaxBV2li8qug5ggmJZQ7nZAqFt2DmyDoDCelv/3jfIgBpzM9as2/fPfK1bHoCxdQDnLsBln1BPsXWALSzBCKCOMusAW3rWAQCfhqvB3DoDULbhajBze5t1VP9lGvuHHugmqF56S+LHUtLn4WrQp3Mb8ItiWbPNrANsOUuitGcdAoX0t/49pKU+UR8j6wAKb0B+b4F1lU2sA6AxYusAW6bWAQDgAHPrAFv61gEAAIdxe5tNh6tBT9K/lO9h9WCbam/HBcYjRx5z+LCU1HMTkQF4RrGswdxM6NDapWPrADhMEqUneqU4lkRpv/IwqDXXgWQ9K+3SFZvqbGodwHngRh0+uI7PY+scW6bWAQDgAHPrAFvO3DK7QCPweEZbuWUax26Zxrp1m/UqPq4sMd2tQHkoljXfzDrAlitXdEH99Pf8e+A9Y+sACm+G2M7crLhQloIYWwdAY4ysA2x54IMogDpySzKFNuu/bx0A8OjEOgBgbaPb7CfVo2jW2/cAN8E2pP2Uv7FEPFAuimXNN7UO8IrYOgAO0t/z74E3ue4y60Gc2Pj6RYytAzhLhTcpAzXkZmiH9EFUCvMeCgB2NbcOsCW2DgD4wl69wIvhapBtFM2sP+O/p3vAMT3PGYp4GK4GY+sQQNNRLGu4QAakt42sA2A/by3B6By7pbOAfY2Nr1/Lx65b+jSUrrLJcDV4sg6BRhhZB3jF1DoAABSQWQfYwv7VANBgrmjWUb6nWWhbwkiHLffe8x2igLF1AKANKJa1w9Q6wJYz9rmqnbjgfwf+wu1zZV3Mj42vf4iJdQBnqXCyoMbchIy+cYxtt24ZMwCoq8w6wCvG1gEAAOVy3U9dSXe2Sf7qgEkbnRJiHIJ9woGKUCxrh6l1gFfE1gGwl9EH//3SreUM7GtsfP1aPXaTKB1JOrPO4dBVBl9iHTbTs0xT6wAAUITbczG0mf2XdJcBQPMNV4PFcDXoSrq2zlJQMCu6WAcA2oJiWQu4mdGhbbb5qU4D1G3mPtDuMjg/KjcJmsjNjrIeyImNr78T130zNo6xRlcZfBpZB9jCXnwAmiKzDvCKsXUAAK1wYh0A0nA1iFXTgllgY5aZdQCgLSiWtcfUOsArxtYBsJN41+9zg/nAvibG14+Nr7+rkcLpvqGrDF64ZZlD6ZZcm/H4BtAQM+sAr7h0nfIAUKaudQDkXMEsuCUZd9CxDuAsXbc4gApQLGuPmey7N7b1Ka6Ezc2kudrx248V3p4zqIeJ8fXPkijtGmd4l3sufrXO4dBVBp9G1gFeMbEOAACeZNYB3jAO/d4LAODVxDrAAU6sAzhz6wBAm1Asawk3Q3pmHGPbserT0dFW45K/H1i/PlkvzTAyvv5HJtYBNtBVBi/cQGko+wCsPTBzE0BTuOX4Q5zNfyxpGsrESQp32BePmTctrANsCO0es+0y6wAH6FoHAFA9imXtMrEO8IqRdQC8bs+usrWzJEpj/2nQAmPj6/eNr/8mt2/gJ+scDl1l8GlkHeAVE+sAAODZ1DrAGy4kZZYFsyRKT5IonUj6wyoDamthHSBQC+sAmyhqhsNN3sBhnqwDAG1CsaxF3EzpB+scWyiuhGtc8XFoMXfzfGsY4djtnRSiqXWADXSVwYsDJ2RUYWodAAA8m1kHeMe6YNap+sLuM+hC0peqr4364364NnrWAZCjcFnIiXUAoAa6vk5Esax9JtYBXjGyDoA/KziIeZZE6dhfGrTI1Pj6fePr/4V7Lp1Z53DoKoNPI+sAr7hm8AtA0wS8FOPahaR5FZOWXCdZnETpQtJ35ctBAmiu2DoAfuhYBwDQaCe+TkSxrH2m1gFeceGWGUM4pgWPH4WyBwHqY7gaTGXb/doP6XHrsoyMY2yiqwxeuMd2bBzjNRPrAABQkql1gA8cS/pPEqVZGZ8LkyjtJlE6Vd5J9l3hTEQCUC7GmsLRtQ4gScPVILPOcAD23wM+5u15QrGsZdxA57V1jleMrQMg524mi77IHItBRxxmanjtY4XVXTZVODOe6SqDTyOF89heu3PLVQNAE02tA+zoUtLvSZTOkygdHbo8YxKlHddBNnVdZH8oXzUjtPceAOWbhjQhssX61gHqjKIv8DFfqxT8w8dJUDsThbdPyGUSpV0Gqmy5m8ipp9NdJVE6renMHdiZSvpqeP2+AhhQcjfDn6xzbBjTVQYfAuyYXJtYB0CrXSZR+n/WIUIzXA3+Zp2hKYarwVMSpdcK7zPgWy4k/Srp1yRKl5LmkjL3357cv0t5p8KJ++eO++qKohiAF2fK7/Ni2xjt5e7/L6xzKOwliT/S18v7oLWOdQDgDX152KuXYlkLDVeDeRKldwrjzWrTSNzAWBvL77IkEwXSbo96GK4GiyRKb2RXKPqUROlJAIWhqfH1Nz0MV4OJdQg0Rl/hDWIu3TKwAAKSRGmPSVdeTVSfYtmmY+UdZyxDBeBQV65TNXb7OAYjidJYL+NgT8onA6z/XISW90B96wDOwjpAAbGMJxy659BUvB8jt7AO8IqrJEqzop/tWYaxvSbWAV5xdehSGyjOdbJ88XzaiyRKJ57PieabGV+/b3nxJErHCmsvjbF1ADTK2DrAKybWAQC8qmMdoEncCh631jkAlILn9scuJc2TKJ0ENu7U0cuEgE/KV1n5VdLvkv6bROn/uf0cJ2552a5Z0sP1rQM485K/v0zHrrBqwi1vNxeFMjgBF/K/J1E6LrL8Lp1lLTVcDaauiBHa7O6x6C6rnOflF7d9SaJ0xsxg7CqA16eejDq73Ae3kcW133BHxw18cR/wQioEr02tAwB4Vcc6QAONlQ/AAkAZFtYBPnCsfILwlyRKH5Qva7fQ1vJ2AY5d/Km7dmt52izAvD8Etr3AfM/vfyohQxFjN7b2VNUF6SZDTX2VNEqidKZ8Mv7T9uuke216tXuXYlm7TWS7N9BrrpIoHQdcoW6qqcodwJwlUdoJYGk71MdU/jsdd9U3uq6U/3+HNIlhZB0AjTK2DvCKa+45gGD1rAM0zXA1yJIovRWDXgBK4JbUt46xqzO9LE37p3ExD/8Py+FqcFL0JO/YXJ72q8t7q4CKZ24geqyw3m+yPb//qYQMRZwp/3w+ruJibsWbkcIanwB2daz8Nf5Kevt1fePv7yTNhqvBmGUY221qHeANY+sAbZJE6Ujlz/Q5VjibkaIepobXPnbLDFTKXTOkDxO3IXzQQjPQVQYAwYitAwBAwx27YlGVLpUX/X53Szeul5zsF1mObB9JlJ64pSIXyruYQ/ps+7Dv5G23fHFovpa9FOfG7/CrKJShPS6UP79OKJa1mJtJfW2d4xXsXVYRdwP3a0WXu0iidFrRtVBz7sb0wTBCv8qLlbwU6qFi6wBolLF1gFdQEAbCFtIgW2O4z4C/WecA0Fjsn5brGl//QvlKLf+R9L9JlC6SKJ25vXx6vgpoSZR2XHFlJul/JX1XmBPkZgced+czhCfTMsZMN4pkof4OEZ6ldYASdFmGEVO9tJ6HZCwGakvlZqPMKr7sVRKl8+FqMKn4uqiniaor5m7rV3y9icKatfUbS9PBF7rKACA4Y+X3OiG+NgOot4WY7CCFt+/mmfv6JLfs5MbeZ4utr/d0JZ0oXyq5q7A+w/7/9u4muY0rTRfwWx09yZF0V2DWCsS7ArPmHWH2CkSPEB0YmF6B6RWYGuQgR6ZWUNQKGlyBwRUUuYImRxjeO8gDi1brhz8ATmbieSIQKskU+RZF/OV7vnO+ZvHMv7dMXzwOyZsk/2qb7kOSi/lqdvncT1RKt5Ny85qAp1pmeo/3R8qyPTfgfeudXbZFpShbpM4Lm9/aprubr2YXFb4243KZemXZq7bpDnex9UKZ8BzSooX7DHMKiPE6qx3gM249D8HwlTNvb2rnmJr5anZXtmL/Z+0swOQsM6z3NrUc1g7wCA/PPpuy+xcUSosM9+f5hyQ/lNLzMh/PrLv50l8oE4WH6cvO4wyvCHyKZe0ATHJxxGtlGUm/snqIP9xnMV22cQ+2e6u5Auj3tuniQiVfUw6Ivk69F3An6Q+03ZqBbr94/tT93OFLBjxVdlY7APAoB/n2KneeYb6aXbZN9y79Nl0Am7KoHWAgXtcOwJ8uX/h3f99MjK15lb7Qe5skbdMl/faRd5983GHGMwn4GHe1AzDJ1+iHzixjXVjUPBvoS5xdtmHlwvwiw1g98nu5iApfc1Hxax/t4GucZVhFwu18NTurHYJpKM85Z5VjfM569SXAvjvLMM9jAUaq7MwxxXNsnmoI11zonT/3L5ZFpGN8nnyTj1OD69uUijKGYVE7wDYoy1g7qx3gC85rB5iKsvXiTYb1ok1hxrdcVvzab7ZZ2JftF4e2mvukdgAm5TTDKoPXTE8C5M+LgCdxYRvYrMvaAaC42sDRCucbyAGTM1/NFrUzbIOyjLXLDPNN0g/lgjIvUPmMsm/5vW2689ohGKay33bNlVxH2/ikA91+8WqqL3bYvfIzflo5xufcxxtegD+Vi4jHlWMA03JZOwAUZxv4HJcZ5vVSGIKr2gE2TVlGkj9XFZ5XjvElZ7UDjFmZ3PojwyzK1n5qm+6yXFyFT11W/NrHW/q8ZxnexM1J7QBMymmG+bxjqgzgE2WxzI+1cwDTMF/NLqNcoL6NLAYd+PVSqO2ydoBNU5bx0HmG+YLme9Nlz9M23UWGfxjp2g9JFmUKDh66rPi1jzb9CQe6/eKvZYoPXqxsX3paOcaXXNQOADBE5RxrhRmM07J2gM84rx2AvXe2wc91nmFeL4XaLmsH2DRlGX8qqyUuKsf4kvPaAcakbbrDtumWSd7WzvJEb9IXZqe1gzAcZXug20pf/tUmy/qBbr94G4+xbNZZhjlV9l4pDPBlCjMYrbvaAT7jPMoF6nm3ySMGTJfB55X31x9q59gkZRmfOq8d4AvelO0E+YZSNC3SF09j9CrJb23TLcp0AiTTmS47y/C2Xzy1LR2bUqaDh7pQ46x2AIChU5gBm6BcoKLbbOd1/3kUwPA557UDbJKyjL8ojfD72jm+4MyZVl9WpskWSX7LMFf0P9X3SZamzCgWFb/28SY+Sdt0xxne9otX5UwB2JTz2gG+wFQZwCM9KMxcFARe4jweR9i9k20sBi2f82TTnxfGrkxxXtXOsSnKMj7nrHaAL/guwz0DpZq26V63TXeW5I/0BdOUrKfMls6t22+VC503Ly3qB7r94n282GeDyuP0UJ+HzmoHABiTUpgdpd5W2MDIKReo4OdNbr/4qXJdYlJbzsGGnNUOsCnKMv6XgU+Xndqa76MydXWT5Je6SbbuTZL/tjXj3qv5ovTohX//IsOb+Dw3acOGXdQO8AWmygCeoZwbe5jpXhi8TfIuya9RCsJWlHJhqNeXmJb389XsfAdf5ySeM+AvSkk9ideLyjK+5Kx2gC94leFm25m26U7aprvJdLZcfKzvk/yrbbqLci4O+2VR8WsfPfcvlvMWf9hYks24nq9mZ7VDMB1lwnlo5/GtndUOADBW89Xsbr6aHSf5OdPZTu06yT/mq9nBfDU7La+JbupGgkk7TX+/2yfKlN16P1/NTnbxhcrE5HGm85wIm3KSCdwvlGV81sCny97u45Z86+0WS0n2e4Z7UXIX3ib5o0yaHdcOw84sKn7to+f8pTIJeb7JIBtyWjsA01G2GT2tHONLTJXBuN3VDkCvrNY/zLhXDd+n36Lr8DPbdN3sPg5jZbeTpynlwlH2qzC7qR1gj+ysKFsrk9enu/yaMHQPiuRRU5bxNWe1A3zFWe0Au9I23WHbdBdJ/if9dov7XJJ96vsk/2yb7qZtOlt0Tlx5QVprhd6bZ/58XWZ405/vtrmPO3vpPMP7OV87qx0AeL7y3M9AzFezmzJl9o+M76L3uyQHX9mi62Z3UZiAg9oBxmZPCzO2b+dF2Vo52/PHGl8bhqpcaxr1/UJZxhcNfLrs+7K12SS1TXdQyp+bJH+kn6Tiy75LvyXlv9qmuyzbVL6unIntWFT82kdP+eCyLd2brSR5vtsoD9igMuk91OeoX02VAWzefDVbzFezw/QXQ4a81dh9+vPI/k/ZbvGuch7YlkXtAI+hMPusm9oBRuznWkXZ2h4WZuttjP+W5O9xX+Yzxn6/UJbxLWe1A3zF+ZQKkQcF2TLJv9KXP6bInu6H9NtU/s+D4uygciY2Z1Hxax899gNLgfDL1pI8nwtFbNp57QBfcJ/hZgOYhPlqdjFfzQ7ST5oNaXvG6/QXaQ7mq9nZI1/7HGw1EZDkL4XZUBdm71S5qPyfmcA5Pzt0m+T/fmVSeKfGXgw8wbuH2xiXRYlH8bPLZ4z5fvHvtQMwbPPV7KZtuvcZ5qrxV+nLvNO6MZ6nFH1H5XYcxdg2/FBuaZvuOn3RskiyUBiM1qLi1z58zAeV+/bFNoM804f5anZZOwTT0TbdaYY3Pbl27nEeYDfKhbNFWaB2nP792a7f29ym3/76/JlTxQebDMPk3dQOMGblNdpJ23SX6d83DXU7752Yr2aX5fHzMv1RE3zZuySPXQSxM/PV7KJtumTY29M/13X6RbeLT//DfDW7a5vuPMNcKExl5X6xTH8dbzT3C5NlPMZZhrtS4Ke26Q5rh3iscv7YeXmw+J8k/0zyUxRlu/Am/ff6n+mnzpblQi8jUi5+1Dy37PUjPu4iw7tP3yc5qR2C6Sj3hbPKMb7EVBlMg619RqacaXZeps3+nuTn9BNn23gveV8+989J/j5fzQ7KVos3W/ha8Bfl52yo10hGoyzkO4gps8xXs7v5anaUflL3qnKcIVpv/zfYnVLKJM1Rhr098VPcp9/q8vBzRdkD57uJwxiV84cPMqLHeZNlfFOZLjvPcFcKnOeJZwnVMl/NluV7uUi/6vIow7uoPmW36b/3lzFdNmbL1LvfHKX/+fmsUsD+sKMsT3Hi550Nu8hwV4cNbrUp8Cx3tQPwfKVMOC+3lAWOh+kvmByVD3vMBMV9+td+d+XXZZLlFkqxgw1/vmf7xkVJhuMyw9yBZ1QeTJmdpV+INfbv6W3618kXz/nL5f5/VCbNTtMveBzqa+5duE3/2v6idpDHKNf8DtP/+w/xusBjPXqCr0yXvUu/OB3+lweP8xfpH+eHOEG7XnB7rizjsc7TP1EP8Un6+7bpToeyX/G3lDd2NykX3B9sV3KUcT+ZDtV6+8WLsqKB8Vuk3n3lKF8oy8qL4t92mOWxbL/IRpUz+Yb6fHU7ltcDAPukvA5fVo7xNRYw8lQXGUaxc51h37cepVwnWZdmpxlXSbTeBnZj1xzK9+M0yWnbdMfprxkN4edtV0ZVkj1UioHj8u92nnE9v7xP/32/eeLfO0t/rWSoW/QzAA8WAxxlOKXZbfr76cW6HFaW8Sgj2If2rG26izGuJH+46rJsa3VcbkO9EDkGG3+xyqAsKn7to8/94YDPKbvPSM91ZJgG/LO+dlY7AKPxa+0AfNNN7QAbcJ1+IuouX5lMp65HbrO9D5bpt4DjEear2aJtuqvUu9h3n/5xZbDb0j3HJyXRST4uLB5acXaVjzvWLLf5hcrCx8uyi8lxpn296EP6sycXtYO8VDmLbpHy85zh/QyvrSdqLp47tV2uGR+Vz7ONUnc9Zb5M//pw6/e7b1h/7depUxBeZcSLJD4pzU5SZyHAh/Q/85ef/oe//cd//bz7OIxSeROxzHBXRXyYr2bHtUNsSvl+n5Sb1RmP8z79g92idhC2q226/1fra89Xs799+mdlnHyIK/3+01QZm1RW+w514cxVOesB4NHKa+7DDX26Owu1xqdcrPnv2jnWPvdak2Ha8OPHU+zdY02Z0jlKvemV9cXpRQZwpEP52TvKx/JsqEXMY1ynbF1Z+/u6LeXf6zT99b2hXFO9Sv99v9zF973sqnXwxL92M7azSJ/5//NrllO9X6ztcHDkQ/pFDl/9mVeW8SRlZc/vtXN8xSQvDFdu24duvSf4+dSfQPiorNCqtYrzHw8L2QE/Lk5qAQH1la1G/6id4yv+YbEEAE81sLLsdr6aHdQOAUNX7rdH6S9KH2Rz7w1v00+uLPPxjMTlhj731pTX6UfpLzYPYWuzr7nPX8+Sv6kZZtdK8XuSOhOT62Lyct++74xHuY8cpr+PPPfxbD2NuEj/OLN47F9UlvFkbdMtM9xJp9skh1MtTcoKhZMMe4R7V0a7hzUvV7aFrXWA7K/z1eys5DhM/+Q7tPvjfZKDqT4WUsfAn//fz1ezk9ohABifsrXZUM6dNSUNz/TJpN9Bvj3dcZePW5mNboLlax6UZ4flVvM1/G3+etF6WTHLoDwofY/S/ztt+rrC+kzDRXY0QQab9mBa73W+Ps29KL++aBrPmWU8x2mGs/LuU9+lP6/ktG6M7Sgv3s5KUXCa/SzNlGQk/ZNgrbLsMPnzzdhlhnkfPPFCmE0q2y8OtShLnFUGwPO9rh3ggbvaAWCsyvufReUYg1AKqeXDPyvFzEG5HZU/3uQU2nqS46bcFtmDLeReoky7LNa/f1AKHJU/Onrw4V/6t7oqv96l//7fpf++Lz7/4TAu5Vr4Tfnt5ba/nrKMJxvAQbbf8lPbdJdTfmIoLzbWpdlZ6pUGu6Qk46Flxa99VH69yHD2G3/owxS3o6WesjJ1qOeUJf20503tEACM1mHtAA8sawcApulr18jK6/3X5bev8+3HxYefSyG2IQ9KgUXVILDHlGU810mSf9UO8RUXbdNNdjvGtfL/77SUZhcZboH5Ur/GmWQ8MF/Nbtqmq/XlX5X73DYPHn2u2/SPz7BJF7UDfMVtkvPaIQAYtcPaAR64qR0A2D+f2RrxskIMgOr+rXYAxqmsdnhXO8dXrLdj3Avz1eym7G3/n+lH36fiKsnf56vZmaKMz7j69odszVCnOW2/yEaNYftFP/MAPFfZVntIOwXc1A4AALCvlGW8xFmGXcz8VPZk3htl67WDJB/qJnmx+yQ/z1ezI1tr8RXL2gEG5tcpbz/L7o1g+8UrW/MC8ELHtQM85LUcAEA9yjKebX1uVuUY33JRVgvujflqdjdfzY4z3imz6ySH89XsvHYQBu+mdoABuZ6vZme1QzA5F7UDfMNp7QAAjN5x7QAPXNcOAACwz5RlvEgpNIb8on6vtmN8qEyZHWbY/z6fejdfzQ5Nk/FIy9oBBuI+w7rQwwSUc/mGvP3iu8+crQAAj1YWVQ7pDNpl7QAAAPtMWcYmnNYO8A0/tU13XDtEDaV0Okryvm6Sb7pP8uN8NTutHYTxsE3Nn04VzGxS2cJ4qOfyJf1zxlntEACM3mntAJ9Y1A4AALDPlGW8WLlgPfQyZu+2Y1wr2zKeJPm1dpYvuE9y5NwZnmmMW41u0nv3HTapPFdeVI7xLadlK2gAeJbyfHdaOcanFrUDAADsM2UZm3KaYV+0fpXksnaImsp5Rj/WzvGJ6yQHttLiBZa1A1R0neFd5GH8LtJvYTxUVwpiADbgNP17xKG4tlMAAEBdyjI2oqzwPqsc41u+b5vutHaImsoFxqEUZtfpJ8ruagdh1Ja1A1Ryn+TE/YdNapvuJMM6u+VzTmoHAGDc2qY7TPJL7RyfWNQOAACw75RlbMx8NTtPX4AM2W/lzdHeGkhhpihjU+5qB6jk1EQmm1SeG88rx/iWX626B+AlBrzd8EXtAAAA+05Zxqad1g7wCHt7ftla5cJMUcYmLWoHqMA5ZWzUgwuHQ9qO6lO3GX6ZB8DwXSR5UzvEJ24tggIAqE9ZxkbNV7NFkne1c3zDm7jgVqswU5SxaXe1A+yYc8rYhrMM78Lhp2w7CsCLtE13kWFuN3xZOwAAAMnf/uO/fq6dgYkpK9SXSb6rm+SbfjSdkbRNd57kpx18qfv0RdlyB1+LPdI23f+rnWFH3IfYuHJO2e+1c3zD+/lqdlI7BMDUlPdthw//rCx+nJTy//Myyfd1k3zR320zDABQn7KMrWib7jjJP2vn+AYXnou26S6z/VWW/5jim2/qa5vuLsPePm5T/nO+ml3WDsF0lHPKFhn2/ec+yYGpMoDNaptumS9PFV+nf35YjP21R3muu8xwF3JezVezo9ohAACwDSNbUt5Ufaid4xtexfllayfpz4PZlp8VZWzRsnaAHXg39otVDMtIzilLbL8IsHFt0x3l69vvvkm/88Q/26a7a5vuom26k7bpDnaRbxPapnvdNt1Zkj8y3KIscTwAAMBg/HvtAEzaSZKbDPtC3Pr8spO6Meqar2Z3ZRrwjy18+g/z1ex8C58X1u5qB9iyq/lqdlo7BJNznuGfU/ZBSQywFQdP+NhXSd6WW9qmu02/UGmZfvpsOaRFDWUxyGm5Dfl9aJLcep4DABgOZRlbUwqYsyS/1c7yDW/bplvs+/ll89Vs2Tbdz9nsv9d99ryIZCeWGeZh7Ztwm+S4dgimpZxT9rZ2jm/w/AGwPQcv+LvfldsPSX5Jkrbp7vOgPEtys+ut7svCv/Vt6CXZ2lntAAAAfOTMMraubbpFhnuY8kP/1/llG//3ck4ZW1dK+V9q59gC5yqyceXslm1MEW+aM/oAtqRtuovsZtHEVfodAJbldpcNTKKV6bHDcjsqt7EUZGu389XsoHYIAAA+MlnGLpykf3M09Dcwl23THQ5pG5FKTpL8awOf572ijB1ZZJpl2amijE0qFxcXlWM8hu0XAbbrYEdfZ70A7y87ALRNl/TT8zflj24e/O/POUzy+pPPOXantQMAAPBXyjK2br6a3YxkO8bvklymX5m4t8q/1695WflwH28A4SXe7fvWsGzFIsNfuGL7RYD9sN7OMZlOAfZYVxaFAAAMz7/VDsB+mK9m5+m34Ri679umO68dorb5anaWfrXnc52Z0GOHbmoH2LCr+Wp2WjsE01K23HpTO8cjnHj+ANi617UD7LnT2gEAAPjflGXs0kn6FeND91PbdCe1QwzA6TP/3m0pR2En5qvZTe0MG3Sd/mB62JjynLaLs2leyvaLALsxhsUTU/WrbbYBAIZJWcbOlAvap5VjPNZ523SHtUPUVC5YPmca8GSzSWBv3MdUDRvWNt1Rkt9r53iE23j+AGDarpOc1w4BAMDnKcvYqXIGz4faOR7hVZJF23Svawep7OyJH381X80WW8gB3/KSbUOH4thKYzapLPq4rBzjsRTFAEyd5zoAgAFTllHDScaxHePeF2al+HrKdNnZdpLAN93UDvBCPyqa2aTy3HWR/rls6N75+Qdg4n62KAoAYNiUZexcWU13XDnGY72JrTLOHvlxty52wrO8L1O3sEmLjONMmuv5anZaOwQAbNF7ZzoDAAyfsowqSqnyrnaOR3rbNt157RC1lH+r60d86Nl2k8AkXc1Xs5PaIZiWtukuMo6i7D7OKQNg2q4znnO7AQD2mrKMms7yuBJmCH5qm+6kdoiKzr/x3+9NxlDZonaAZ7jOeKZsGYm26c6SvK2d45HObEkFUMUYtsSfgvskR84pAwAYB2UZ1ZQ3DScZz5u139umO6odooZShH3t3+liN0lgMu7jkHc2rCzq+KV2jkf6YEsqgGqWtQPsAUUZAMDIKMuoqqwoP6sc4yku26Y7rB2ikouv/LfzHWWAqTgyUcMmtU13nOT32jke6Ta2XwRgutZF2bJ2EAAAHk9ZRnVlZfmH2jke6VWSRdt0r2sHqeDiC39+PV/NbnaYA8buRxdP2KSyiOOicoynOLbSHoCJUpQBAIyUsoyhOEm/0nwM9rIwK2/4PnfG3MVuk8Co/ex8PzapFGWL9M9NY/CzC4gA1S1rB5io2yjKAABGS1nGIJQV5seVYzzFm+xhYZbPF2OXO84An7OoHeAR3jujiU0qz0GXGU9RduU+ADAId7UDTNB1kkNFGQDAeCnLGIzyxuLn2jme4E3276yuy09+bwtGeJwP89XspHYIpqMUZYsk39VN8mi3GdeiGIApu6kdYGLep58ou6sdBACA51OWMSgjO78sSd62TXdRO8SulGLs4VaMF3WSwKhcp99qFjbiQVH2pm6SJ3FOGcBw3NQOMBH36c+iPfEcBwAwfsoyhugk4zm/LNmzwix/nS5bVMoAY7E+u+KudhCmYaRFmXPKAIZlmXG93xqi6/Sv8S5qBwEAYDOUZQzOCM8vS/rC7LR2iB25LL/eu/gJX3Uf0zRs3nnGVZR9cE4ZwLDMV7O7+Wp2kOTHKM2e6j7Jr/PVzPlkAAAToyxjkMobjx9r53ii39qmO6kdYtvKv819TJXB19ynX228rB2E6ShTzG9r53gCW5ACDNh8NbtQmj3JVZLD+Wp2VjsIAACbpyxjsMqWFu9r53ii3/ehMEtflC0qZ4AhO1WUsUkjLMrukzjDBWAEHpRm/8i4zo/elask/5ivZkflDGcAACZIWcbQnaZfmT4m+1CYLaIsgy/50fkVbNIIi7KkL8qWtUMA8Hjz1WwxX82Ok/w9ya8xbfawJFvUDgMAwHb97T/+6+faGeCr2qY7SH8I9au6SZ5sshfM26Z7bVqAIWmb7ijJf9fOkeTdfDU7rR2C6RhpUeZ+ADAR5TXWSfozpcf2fuy5PiQ5V5ABAOwXZRmjMKAL4U812cIMhmQgjxHv56vZSeUMTMhIi7Kr+Wp2VDsEAJtXXm8dl9t3NbNswW2SiyQXtloEANhPyjJGo2260yS/1c7xDAoz2LIBlGWKMjZqpEXZdZIjk8cA01d2/zhKX5wdZpzl2XX6reUvbB0MAICyjFEZ6cXDRGEGW1W5LFMQsFEjfa67T38/WNYOAsDuPSjPDh/chrZt420+nr28MEEGAMBD/147ADzRafo3Xm/qxniy39umi8IMJkdRxkaNtChLkhNFGcD+KsXTxcM/KwXaQfr3b6/Tl2nJ9ou0+/RnXt+U2yLJ0us1AAC+xmQZo9M23ev0b3qGtlLxMUyYwRZUmixTlLFRIy7Kfp6vZue1QwAwLuV93eGDP/r094+xTHJX/vedhRsAADyXsoxRapvuMP0KQYUZUKMss+UcG1MuFl4m+b5ukmdxXh8AAAAwev9WOwA8R7lAfVo5xnP93jbdSe0QwLMpytiYUpQtMs6i7FpRBgAAAEyBsozRKtNZv9bO8UwKMxgnRRkb86AoG9s5nEnZhrR2CAAAAIBNUJYxavPV7CzJ+9o5nun3cj4NMB6nijI2oW26g4y3KLtPcuK8PgAAAGAqlGWMXtkC6rp2jmd6qzCD0XDeIBtRzt1cZpxFWWK6EgAAAJgYZRlTcRSFGeyzwy1/fkUZG1GKskWSV3WTPNuPijIAAABgapRlTELZCuok/dZQY/S2bbplOb8GeLrXW/zcvyrK2IRyVuUi4y3KfnZfAAAAAKZIWcZklJXuRxlvYfYmyUJhBoPyvpyNCC9SirLfM96i7P18NTuvHQIAAABgG5RlTEopzE4rx3iJdWF2WDsIkPflTER4kbLV7u+1c7zAB/cFAAAAYMqUZUxO2SLqx9o5XkBhBvUpynixtulel6Lsbe0sL3CdfptjAAAAgMlSljFJpTB7VzvHC7xKX5id1A4CI3G4wc91pSjjpcqWuouMvyg7KueCAgAAAEyWsozJmq9mp0ne187xAq+S/K4wg0d5vaHPc53keEOfiz1VJoOX6SeFx+o+ijIAAABgTyjLmLQyHTLmwizpC7OL2iFgD5ii4cXapjtOP1H2Xd0kL6IoAwAAAPaKsozJK4XZde0cL/S2bbrLsq0XsHmKMl6sbbrTJP9MPxk8VuuibFk7CAAAAMCuKMvYF0cZf2H2Q/pzzA5qB4GJuY2ijBdom+51mQD+rXaWF1KUAQAAAHtJWcZeKBfBjzL+wuxNkmU5Dwd4ufskx4oynqtM/C6SvK2bZCNOFWUAAADAPlKWsTcmVJi9SvJH23QntYPAyJmi4UXKwoWb9AsZxu7H+Wp2UTsEAAAAQA3KMvbKg8Lsvm6Sjfi9bbrz2iFgpBRlvEhZsPBHxn0+2ZqiDAAAANhryjL2zsQKs5/apluUbcCAx1GU8SLlfLLfa+fYEEUZAAAAsPeUZeylcpH8KNMozL6Pc8zgKZzLxLO0TXfQNt0y0zifLFGUAQAAACRRlrHHJlaYfZdk4Rwz+CblAM/SNt1xkmWmcT5Z4r4AAAAA8CdlGXttYoXZq/TnmF3UDgIDpRzgWdqmO0vyz0zjfLLEfQEAAADgL5Rl7L2JFWZJ8rZtumXbdAe1g8CAKAd4srbpXrdNt0jyS+0sG+S+AAAAAPAJZRlkkoXZm/TnmB3XDgID8KtygKdqm+4oyU36cyGnQlEGAAAA8BnKMigmWJi9SvLPsn0Y7Kv389XsrHYIxqU8bv53prPtYqIoAwAAAPgiZRk8MMHCLEl+sS0je+r9fDU7qR2C8Wib7mCC2y4mijIAAACAr1KWwSceFGa3dZNslG0Z2TfvFGU8RXl8XGZa2y4mijIAAACAb1KWwWeUwuwwyXXdJBu13pbxvG2617XDwIYtk1wleZfk7/PV7LRqGkajbbrXbdOdJ/lnprXtYqIoAwAAAHiUv/3Hf/1cOwMMVimVFukns6bkOslJKQUB9lLbdIdJLjK9x/j7JEce4wEAAAAex2QZfMV8NbtLvyXjlCbMkv7C8B9t053WDgJQQ9t0Z0n+iKIMAAAAYO+ZLINHKBNml5neWTZJv3XdyXw1u6kdBGDb2qY7SP94PrWSLFGUAQAAADyLyTJ4hPlqdjdfzY6SvK+dZQu+T7Jsm+64dhCAbSrTtMtMsyi7TnKoKAMAAAB4OpNl8ERt010keVs7x5Z8SD9ldlc7CMCmlGmyi0xzOjjpi7Ijj90AAAAAz2OyDJ5ovpqdJJlqy/xDkhtTZsBUPJgmm2pR9iGKMgAAAIAXMVkGz9Q23UmS32vn2CJTZsBo7cE0WZK8Lws4AAAAAHgBk2XwTPPV7CLJP5LcV46yLabMgFHag2myJPlVUQYAAACwGSbL4IXapjtMskjyqm6SrbpKP2V2UzsIwJeUx+OLJG/qJtm6H8uCDQAAAAA2wGQZvNB8NVsmOUhyXTfJVn2fZFmmNQAGpW26123TnSX5I9Muyu6T/ENRBgAAALBZyjLYgHKu11H6CaypepXkt7bplm3THdUOA5Ak5fFomeSXukm27jbJ0Xw1W9QOAgAAADA1tmGEDWub7iLJ29o5duBdkrNSFALsVNt0B0nO05+vOHXX6Yuyu9pBAAAAAKbIZBls2Hw1O0nyY+0cO/BTkpu26U5qBwH2S9lycZn9KMrez1ezQ0UZAAAAwPaYLIMtKVuDXabfvnDqrpKclvPbALaiPK5eJPmubpKd+Xm+mp3XDgEAAAAwdcoy2KK26Q7TX9h9UzfJzrxPX5rd1Q4CTMeebbmYJPdJTuar2WXtIAAAAAD7wDaMsEVl0uooyYe6SXbmbfqtGc9qBwHGr2261+Xx5F/Zn6JsfT7ZZe0gAAAAAPvCZBnsSNt05+nP+doXt+mnzC5rBwHGp5yHeJ792Mp27UP6ibK72kEAAAAA9omyDHaobbrj9Nsy7tPF36skZ/PVbFE7CDB85Vyy8+zP9rVrv85Xs7PaIQAAAAD2kbIMdmwPzzFb+5B+0uymdhBgeMpj43mS7+sm2TnnkwEAAABUpiyDCtqme52+MNuXM3geep9+0uymdhCgvrbpDpKcpT/zcN9cJzn2eAgAAABQl7IMKmqb7jTJb7VzVPJrknNn88B+KosGzrOfJVnSLxw49RgIAAAAUJ+yDCorW48tsl/nmK3dp79YrjSDPVFKstNy29fHvdP5anZROwgAAAAAPWUZDEC5eHyZ/TurZ01pBhOnJEvSb7t4Ml/NlrWDAAAAAPCRsgwGpG26syS/1M5RkdIMJkZJ9ifbLgIAAAAMlLIMBqZsy3iZ5Lu6Saq6T3KRvjS7qRsFeA4l2Z9suwgAAAAwcMoyGKBykfkiyQ91kwzC+yRnSjMYh7bpDtIXZCfZ75Is6bddPPb4BQAAADBsyjIYsLbpTtJvS7jvF5yT5EP6SbNF7SDA/1ZKsrMkb+smGYxf56vZWe0QAAAAAHybsgwGrlyAvkzypm6SwbhKcmFLMxiGtumO0k+SmYTt3SY5UewDAAAAjIeyDEaibbqzJL/UzjEgt+mn7i7mq9ld3Siwf8rk62kU+Q99SF+U3dUOAgAAAMDjKctgRNqmO0w/ZfZd3SSDcp/+e3I+X82WdaPAtJXzFE/Tn0fmceij+/Ql2WXtIAAAAAA8nbIMRqZcrD5L8lPdJINki0bYglLUn8Z5ZJ9zleTYNBkAAADAeCnLYKTKOUEXMd3xOffpvzfn89Xspm4UGC9bLX7VfZKz+Wp2XjsIAAAAAC+jLIMRM2X2KFfpi7NLkx/wbW3THeTjVouvamYZsKv02y7e1A4CAAAAwMspy2ACTJk9yvpss4v5araoGwWGpRTvxzFF9i2myQAAAAAmSFkGE2HK7Elu05eLFyZD2GelaD9JX5SZIvu6D0lOPWYAAAAATI+yDCamXPw+j+mQx7rOx20ab+pGge17sM3icUyjPsZ9+i0XL2sHAQAAAGA7lGUwUW3TnSX5pXaOkVGcMUmlIDtOP0WmSH+8d+m3XbyrHQQAAACA7VGWwYSVC+QXSb6vm2SUFGeMmoLsRW7TT5MtagcBAAAAYPuUZbAH2qY7Tl/8OJPoea6TXKYvzpZ1o8CXKche7D7J+Xw1O6sdBAAAAIDdUZbBnmib7nWSsyQ/1U0yerdJFumLs8u6USBpm+4wfUF2HAXZS3xIcmqSFAAAAGD/KMtgz5QL6+exNeOmfEhfni1MnbELpfg+Sl+OHSX5rl6aSbhNX5Jd1g4CAAAAQB3KMthTbdOdpJ80c6F9c9ZTZ4v05dlNzTBMRym5j9IXZIruzbDlIgAAAABJlGWw18qEymmSX+ommSzlGc9Szh47enBTam+WLRcBAAAA+JOyDFhfmD9P8kPdJJO3Ls+WsW0jDyjHduY6fUm2qB0EAAAAgOFQlgF/apvuKP3WjLZ5252rfCzQliZd9sODbRXXvyrHtus2ydl8NbuoHQQAAACA4VGWAf+L88yquk+ZPIsCbRLK1NhhPhZjyujduU8/NXs+X83u6kYBAAAAYKiUZcAXtU13lv5Ms1d1k5B+Au0mpUBLX6Ld1YvD55SJsYN8LMYO4/5Ty/v0Wy7e1Q4CAAAAwLApy4CvapvudfrC7DQu+g/NegrtptwWSe6chbZ9ZVrsIH0htv7fJsaG4UP6kuymdhAAAAAAxkFZBjxKKc3Ok7ytm4RHuk5yl75Mu0tfpGW+mi0q5Rmd8jN/mI9l2GGS11GKDdVV+nPJFrWDAAAAADAuyjLgScpEzVmUZmN3VX5dpi/Tbsptbwq1smXi63I7/OTXNzUy8SxKMgAAAABeRFkGPIvSbC/cphRoeVCmFYuHH1i7qHgwBbb26e+PHvy5ImwabtNvt3hZOwgAAAAA46YsA15EacZXrLeC3LTXUXjts9v0k2QXtYMAAAAAMA3KMmAjlGbAlinJAAAAANgKZRmwUUozYMOUZAAAAABslbIM2IpSmp0mOUnyqmYWYJSu0pdki9pBAAAAAJg2ZRmwVW3TvU5fmp1GaQZ8m5IMAAAAgJ1SlgE7UUqz4/RbNH5XMwswSO+TnM9Xs2XtIAAAAADsF2UZsHNt052k357x+7pJgMruk1ykL8lu6kYBAAAAYF8py4Bq2qY7TL8949u6SYAdu01ynuRivprd1Y0CAAAAwL5TlgHVtU13kH7S7DTONYMpu0pfkF3UDgIAAAAAa8oyYFBs0QiTc5/kMs4jAwAAAGCglGXAID3YovE4ps1gjGy1CAAAAMAoKMuAQWub7nX6wuw0yZuaWYBHeZ++IFvUDgIAAAAAj6EsA0bDtBkMlikyAAAAAEZLWQaMUjnb7DjJD3WTwN5yFhkAAAAAk6AsA0atbbqDfNym8buaWWBPfEhfkl2aIgMAAABgCpRlwGSUbRpPys02jbA510ku0hdkN3WjAAAAAMBmKcuASWqb7jj9xNlxFGfwHLfpJ8gubLMIAAAAwJQpy4DJU5zBoynIAAAAANg7yjJgb7RN9zp9YXYUxRmsKcgAAAAA2GvKMmBvmThjj10nWURBBgAAAADKMoDkz+LsKH1x9l3NLLAlV+knyC7nq9lN3SgAAAAAMBzKMoBPtE13mL44O0nypmYWeIH79OXYIn1BdlczDAAAAAAMlbIM4Cucc8bIXOVjObasGwUAAAAAxkFZBvAED6bOjpN8XzML5OPZY4skC9NjAAAAAPB0yjKAF2ib7ih9eXYU5RnbpxwDAAAAgA1TlgFskPKMDVOOAQAAAMCWKcsAtqiUZ4f5WKA584wvuU9fii3TF2OLmmEAAAAAYF8oywB2qG26g3wszw5j+mxf3aeUYuXX5Xw1u6kXBwAAAAD2l7IMoLK26Q7TF2cPbybQpuM2yU0UYwAAAAAwSMoygAEqE2gH+TiBdpDkTa08PMp6WmyZvhxbpi/G7moFAgAAAAC+TVkGMCJlCu0gHwu09f82ibY710nu0k+K3ZSbUgwAAAAARkpZBjARbdMdJXmdvxZpr2Mi7anW2yZ+elOIAQAAAMAEKcsA9kDbdK/Tl2hJv7Vj8rFQS5Lvd5mnknUJlvRbJN6V23L9Z8owAAAAANg/yjIA/qJMqK0dpp9O+9Lvk75w+257if7i6jN/tvjk98v0JViS3MxXs5vtxQEAAAAAxk5ZBsBOlPPWXn/uv81Xs8UuswAAAAAArP1//L0241jyOZYAAAAASUVORK5CYII=;" vertex="1" parent="1">
          <mxGeometry x="507.45" y="480" width="220.1" height="80" as="geometry" />
        </mxCell>
        <mxCell id="uTAIC4A_mwOgiY2apxrA-12" value="" style="shape=image;verticalLabelPosition=bottom;labelBackgroundColor=default;verticalAlign=top;aspect=fixed;imageAspect=0;image=data:image/png,iVBORw0KGgoAAAANSUhEUgAAALAAAAB3CAYAAACjWspSAAAAGXRFWHRTb2Z0d2FyZQBBZG9iZSBJbWFnZVJlYWR5ccllPAAADlNJREFUeNrsXb1647gVxThTpEqULt3QXbqh6xSmunSWHyCfpCewVbhIJatK4UL2E4j6UqWyXG5lukm7nCcw9wlGu1W6BFe8HEEUAQIgSJH0Pd/HHa8tEfw5ODj34o8xAoFAIBAIBGN8okfQAdwtPf7fOT9G/BjwI8bjhT3MNkRgQtvJ+zMStwhbfjzx45GTefvRHs8ZMaT1mAvkTfAQMcDPvHOy3xKBCW1DgP9uuMKe7w7G4AhRfUUiLzmJX/kxIAtBaIuF+I7kBIswy/0Nfg+qe5OzGOCPFwcEf5hFRGDCKQj8jMHbdqe8RT43JfIKP6cCEBuIvObniclCEJrAU87rHgNI/TC75j9NS87lo2L/zEkPnnlCCkxoQoVfBS885WQNS7IWHpI1sxVf8PtewTcSPGdEBCbURWCP7VNpYCGGVhbgbumjXx6x47Tc4843dywVRwTuDolBQV8FLzu0Jps8+OucGv+OmNER/OenhP31b5/QCvyZH7/nv/vJ8lz/5UfEz/dvtBV/EXz2hP9+YH1uUmCCgR8eFqnl3/+5HqAH3qn1v/4x3mqo+yrnkaupPGUhCBJcs31+d6743AotxzsntKc8Y1oJLhh0lhxmLN7RNxOBCY6QKuIC/y8oIhgqbkb0QQnR9+dNU3FiZ8lgVwnuliMiMMElQuHncdEHOIljgYyeQQV53FmHvcoDiZ/bmjMmAndXhbM0mlQdOYlDJOKb4fmjHIlTS9JCEhOBu4v1D3VV+9RrTuR7i0oSS0gcEIEJLrApsxGowlEFpS8i8XObAjsicHdtRMLSgTlKG+GgnFjiiQdEYEJTNsIFia+F33g7EhOBCQ5sRKaMNzUrPqi9mGIL2jADhHriuo67JXRYZNmBc7QWdZb3nLMsF6ccW0wK3H0shJ/nDZQ3PcpMkIUgVAzmQvy/Se1prjQHLQ6c93mZ90RgQhXMBFWsP82VrkUhpvFucMwyEZhQWRWz8QuDBioNE8qcE4EJVVVxJhCqbhVOcv57corcMBG4X/gi/NxEZuAxF9BNiMCEKgh+kLeJgehpGYdemAhMsELafGe2Yd1gyWJZXtODfYjA/VNfllPFulU4Yofrtc2JwAQbXOG/Ue29ccdYHFSkBlNqROD+ILMPb42XnC60chIVJgL3j8CnGpfwJPzcWEqNCNyfAC7DqabBh7myb4nABFP1PR3SlJqowjdNqDARuG+QLQsFZEoXRakTYsfGoAkVJgL3z04Ekr+sMENQ5/Sj446NmlWYCNwPlC0dBUqYEXdc87WIKbXaVZgI3A/bEOdIk4eY1hrVmqdNc9CNqTARuH8q7OfUt2gt4LrHLDw1pcJE4P4gU+FLjQxFvXnaNJAMD1qAmlb1IQL3B1kPXJAjp0joqMEMwYIdr+rzfTf9yGHlIQL3B5sDhS32xC+CMt7UrMLghWe532YzN77vZlM78OJE4H4FcnGBx/VzNmORI1Od1wSV5RyJHB/ZmHT94VWVikQE7hey4MmTzBROcrOYb2sfOQblwZKtD7MLgcxJAZGt8tO0sEnfcLgFQXygwA+zT/gZIG226xEMvxye4Dp9bAFE4oY7ghvMJiEF7h/EhUf8Qo+cqvBUCPomjV8lWJ50RXhxywS4jleTZQGIwP3zwkDOYa6ZTthhD1k2izkj8fJkq02m13EuVDAfSaxVqchC9NtOBEiSSPEZIMpqR6BUEU95vZNdZdpnTo43OCcCExQknuEeGae8Fg9JPPrhix9mUyIwoYw4IyTOdSt2st9XKqUSE4EJ+cxARuJtQ2VmywEE+JuvgoUQNywv3OScCEwoItSSpRt/JzXaBCDsDdOfTVLo0YnABBmJM0+cOD63aA1kAAsDLQCU/Q3Jm5CFILShcoDyilObsj3v4HhRZkyIwISWkFjsLQRYb1NAHRmEU0BckJuxCvsxkwITTqXCRV54Y+q7icCEU/th2PUovzDLEyfxPRGY0AUSeyyb8n+IdHPFEjUmAhPaQmSY4jQvUOOhKsAjAhPaROJsrt6NQGQliYnAhC4QWUpiInDN+O3pTwfe7g8336NTlItIePlJx4g8RzLHSOKtPoH3gztUmDrpbkzTKqplj9ZFgzlaSFjIZ8Jq6UULiojeDogMs4Q3nFRbR4QdYzDklXw8Kzu0KZuXBZwoGsMQ8/PNasxWJHkSfy75alAQHeYBL8rFGFKdgR1hi4kbYDTtaXx8gM8NjhX/LtzXwkYdscIsNcvNv9cl//4jlm1CZF+DF+4A3ct3y3Mk8Yql05B2ONN40GUYO6hhHmvDGrf25AUCvRqSSAS0Pu/8PPcGZQ748Ywv1atw+dA8/8zP1e7nD6qbTj5NxOlPZQT+qlUbq0/NHmmqRhvJu2INrUYukhcrjKulUuH9vbaexCmRD2Ytu1Bg5uBBjlkHwV/4LSvfnTJBzwk2YYM/J7YWSSCvr1luxPT2zRh0hsQCPmvUTB1cWvtgE/sAQWUbprvsiaRa2QaucybLOuD3AyHg22h64FXJ81pgcJYUlDfCa/YUJIbzX3SFwGeOCDyqMC3bRL0HLXp2E8X17FI+qpQZBE38ANLChMVsxRqdgG2kyGxc8PPdF1UELC9EcqqU3uflTPpC4LqIaGsf2kTgK8Xfrk2ieiSXzueXCvJChYk1y5qy/UqVRZh3n8Dme95eNZB9aJM/kz2fTR2dBaiKshZxoUPeHMQVfI5aXlT7XirwxqGNKHpIEes2vtV0Xtmq6tC7Zhx/YCULux5Yf7ZQuxeFXRgxs86GseT8nkRtLiUtRSCN6k16CdPeQK/Q06ZLIOngSw3qq2qpqmzsDTvN3xq2MJ0h8ECRnoklD/RKm8By+7DB83gG9zFXeMNHw/N4kshelygjTriZi+5hzfhibXtSsB38WhPJPUNHiW9hTVpvIRLFQzOxESOJ0iVGlSqdxbp15Ms9RVahqHLIrnHp+D1dyiqoA4JFHYk5jAlc/NCOt1GyzUaMFWoSGz7QjbQZ1K1Q6iU9Y8MXP8FOjroDRhfq+M2iQndagTMSJ9aqp7YPgF8Nr+jFQYXypDakuFV4KTkfDJR5xg6EKv53wNT55qqILZS/4wSuno2wsQ8i+fMVauPARvgmTSx2CsQa9/lesWNA1TL86oADCeswzgybrUQzeChTvasSokQWSrmpGE1/tWhiVblU0RPDkMl3ySDzKqgcKHZqgLsDBU4E1YutbESqzoHLaLqkSR9oLprhmQY5GEANNYkE54fBMqYDZgLL5t8F/L4R2IWNGBVWDP1BOr7El1e1EbLzRiUKlpE4NiAkjL9dVfXHDWDQTQLrb7JhEzxdaVSE2PKhRlY2Qt5trkVKIDE/YJDMzKBZnzDDQewEfQXWq3mmOdhUlUel9sF+ceUXafOtrpS+YYWQERk6TWBkmW7nyW5IJvpjn+hYv4V4q2gjqtoHwBcLSwNQ9e1fGtxvGYm3OLHx3KACZP64bSSOukpgE+9jYiOuHDwkT9EibJUVqmYFzkf3/Bga+GObGREB++A4qxx9qoOnSw378OKYPCob4RXYGo/JB/C4SFNF6I91U27PZAyay0KU2wi1Am4NRnlVvRbZNQQWLYsNkUN2uKGftIXJdXyoKvIfq14XjnQzsYy9JPCbVFH2OdgrQ7LZNZtqGzE28L+uK1bmj2FNg7Dko1V7D91YMgcdJW0j8NbiZV9Z2Ie6KpRfEFgGkpahtk4CnNITa1bSuGYCmw5i6gSBL41uqDx4srEPVR6eno1IU2teE+pbgEWJF/6h2grhGJRYAB1cqvz7R7EQKjWVjY8tezj2A1XSQUGxRvPciP+VkMOkksSGvt6FJduwDsAlgTc6iuKEJHo9hWuNFzZuKLCsSxxM/HJRAKdagPDlYxE4tRGRI8KXYVDh/INdBSgfk1wrSpr+xKC1CiqMcrup6f10UoFNau2m9r141TbCVzS9TSnPRNcy4IAhlY2YW1SgW4V9CB3P6WucwLbR7cYx0atCZiM8iX1ITOyD7UB17G2bGz6fpxIVXjkqf1sSYHaCwHbD6NSqZ0p0FykcWdM7llTStSF5s4Hqt7pDI/F7ryr7gJ0e+aAvZOrZExOcwuRpKO+r4h0/dWmQ++cazrkuUfBI0z6oPuNr+W3I5d4tE3acKpO95NDgPufCuSDLAnPg4JrehGsTlx8IsOJ4JedVrZE2LSH/LmWJC2a/5QivUz50e99XePewrtqrYTZmKLQKy5yAfcNrhpWHIhx6Cmm/WTYb25TAuuq6rNk+mLQQcD06M4S1F0FRLPMU4GG7ttijKr2GL/FR434mrHzZ16J3e+3gvdgGlAlalyVeyxorJJxvy+87ZvtNX7QXuC7KNOjYiKRF0a1uf/7a8GW77qUKdfaXwM+ENTyn6SkDN+xmj7Dl/UVY7yJBIt8Wtcp1bfa9kb54FxvCuPHBeVsTGTzsWBhhVvV+4KVcY/eybvlTpje6zQTZNCePtQtZXHVTJDJ1EXjtQOXcIG01yki2sFQNUM1zJNPG4sVAueeGvXJiUHeO53AlCmA73ltI5Ce0DaFuEDesSBoInoYVMwux4joSC7J40tbCQH0VZAqFVdd9VjzGAO7pFwyWKlsQbPIhsLnHIAia2i+Ke33DaxgzdRf0BLMaISvePWnG6pvwKc4rDFEYEszOJPyaDiYIfIyNDu+W/1P89fwEtubkwN67JSvP+S8qZiZqxdkHIO9EaR0+IHmzjIbGTBHT1T0bx6eekxeauXdJcwcB5QUjiBvW3BZkJsI2X/tZj8kLTaOsx2kX+RN19166YCZ13Hby9kOB00VJ0gmYqeL6GKSorMOwauDWc0UeYdAUE4FPG6AVYdqFTcMJFMQV2QYib8/w+YPcZ4zkjemVE4HbBkh0jxTEfSLV7S/6kUbbB2+BQNz4o+Z4CQRCR/B/AQYAVK1c2ILBw1kAAAAASUVORK5CYII=;" vertex="1" parent="1">
          <mxGeometry x="603" y="320" width="66" height="44.63" as="geometry" />
        </mxCell>
        <mxCell id="uTAIC4A_mwOgiY2apxrA-20" value="" style="endArrow=classic;html=1;rounded=0;" edge="1" parent="1">
          <mxGeometry width="50" height="50" relative="1" as="geometry">
            <mxPoint x="240" y="495.6" as="sourcePoint" />
            <mxPoint x="460" y="496" as="targetPoint" />
          </mxGeometry>
        </mxCell>
        <mxCell id="uTAIC4A_mwOgiY2apxrA-21" value="" style="endArrow=classic;html=1;rounded=0;" edge="1" parent="1">
          <mxGeometry width="50" height="50" relative="1" as="geometry">
            <mxPoint x="460" y="519.5" as="sourcePoint" />
            <mxPoint x="240" y="519.5" as="targetPoint" />
          </mxGeometry>
        </mxCell>
        <mxCell id="uTAIC4A_mwOgiY2apxrA-22" value="" style="shape=image;verticalLabelPosition=bottom;labelBackgroundColor=default;verticalAlign=top;aspect=fixed;imageAspect=0;image=data:image/jpeg,/9j/4AAQSkZJRgABAQAAAQABAAD/2wCEAAkGBxAHBhUTEBIWFRUVFxcXGBUYFRMZHxMaFyMYGRcZGBgbHSggGiEnIRcdITMtJikrLi4uHh8zRDMsPSgtLisBCgoKDg0OGhAPGyslICU3NTc3NzE3Ky0tOC81Lis3LystKy0xKzI3MDctLjUtNzUtKystListNS0tNS0rNy0tLf/AABEIAKcBLQMBIgACEQEDEQH/xAAbAAEAAgMBAQAAAAAAAAAAAAAABQYBBAcDAv/EAEYQAAIBAgQCBgYGBgcJAAAAAAABAgMRBAUSIQYxEyJBUWFxBxQygZGxI1JzobLBFTVCYnKCJDM20eHw8RYXNFNjdJLC0v/EABsBAQACAwEBAAAAAAAAAAAAAAADBQIEBgEH/8QAJhEBAAICAAQGAwEAAAAAAAAAAAECAxEEBSFREjEyQWHBFaHwkf/aAAwDAQACEQMRAD8A7aAAAAAAAAAAAAAAAAAAAAAAAAAAAAAAAAAAAAAAAAAAAAAAAAAAAAAAAAAAAAAAAAAAAAAAAAAAAAAAAAAAAAAAAAAAAAAAAAAAAAAAAAAAABF4LNunzKdOVlZtRffbnciyZ6Y7VrafV0hnXHa0TMeyUABKwAAAAAAAAAAAAAAAAAAAAAAAAAAAAAAAAAAAAAAAAAAAAAGJS0xb7tyhRquNbUtne6f3l0zWp0WW1H+618dl8ykHNc+yavSse25/v8W/LKbraZXrA4lYvCxmu1b+D7UYpY2nVxUqcZXlHmiqZZm/6OjKPPUur4S7Pca2FxUsNi1UW7Tu/G/Mk/NxFMfTrPq/v2w/HTu3b2XwHxRqqtRUo8mrkdis0010ock933+RcZ+LxYaxa89JV9MVrTqEoADZRgAAAAAAAAAAAAADPIwAAAAAAAAAAAAAAAAAAAAAAAABF8SVNGVtfWaX5/kVFuyLHxZUtTpx8W/hZfmVbE1NETj+c38fFTHaIj7+1/y6msMfLWrz1z8jao1NdO/xI9k3leBdFap83yj9Xz8SutWNLDLaKVSOCr1KWA6Nuyve3ak+wMAXyWtrxT5dFbqNzPdZ8NPpMPF96R6GplUtWBj4XRtnd8Pfx4q27xCkvGrTCsce5pXyrAU5UJ6HKdm9MXdWb/aTKhQ4kzXERvCpUkr2vGjTkr911T8Syek/9V0vtH+FkXwXxLh8lyudOtq1SqOa0xvs4wXf3xZMxe3Deb5niM8pRrur0bb1aqMYr2ZNXloVt7dp9cd5fjcTnMZUo1J09MdGjV1Jb3vb2X4vw32LBl3F+FzHGxpU3PVO6V4WWyb538DT4o4tlkWYqkqKneCndza5uStaz+qBYsujUhl9NVXeooRU33ySWr7zYI/GZk8NkLxGm7VNVNN+9J2vbxK1hOPlUwdWdSiouGlQip36SUtW28dktN29wLqCq8IcS1s9xtSM4QjGEb9XVe7dknd+ZqZ5x7HC4hww0FUs7OpJvTf91LeS8br38wLqeON/4Of8EvkyiYL0h1FWtXoxce1wck17pN3+KLtLEwxmUupTlqjKnJprtVmBzz0afr+X2MvxUzpxyLg/NaeTY6dWpdpUZJRXOUnKFkvg35Ilv94eI6b+pp6fq3ne38V/yA6OCNyDOqeeYHpKd007Sg+cH+a7n/oQnEvGkcrxTpUYKc4+023pi+7beT7+VvkFtBQ8p9IDqYlRxNOKjLbXDUtPmm3deTJDhni+Wd5n0ToqHVlK6m3yttbSu8C2AqvE/GCynFdDSgqlRW1Nt2i3ulZbye67uaIqPHGLwVZetYbTF/u1Kbt3rXdMC/g1/XqawHTOWmnp13aasrX3XO/gUfMPSHN1msPRjp7HO7cvHTFq3xYHQAUjJeP1XxChiYRgm7dJFuyf7yfJeNy7gAAAAAAAAAABVeKql8el3QX3tlWr1NcyX4mxGrM5+aj8EkYyzL+i6811uxfV/wATh+Lt4uIyXnvLpuHmMWCu+xlmX9F15rrdi+r/AI/IkgYb0q7NSZ3KG1ptO5eWKxUMJR1VJKK+fgl2sgcRxWlL6Ok2u+Urfck/mQmbZhLMcW5P2VtFdy/vfNnjHB1ZYR1VTm6adnPS9KfnyOn4Tk2KKRObrPb2hV5eLtM6p5LnkfHFOhHRWpyim76ovVbzWz+Fy74TFU8bh1OlJSi+TX+djitTB1aWGjUlTmoS9mbi0peT5EvwjnssozFJv6KbSmu6+2peK+Rc48dcdYpXyhqWmbTuVn9J/wCq6X2j/CyI4N4YoZ3lk6lWVRONRwWmUUrKMJdsXv1mTHpNg55ZSsm/pHyV/wBlnp6NIOGR1Lpr6aXNW/YpGbxt5Zwbhstx8asJVXKDbWqUWt01vaK7yp+kv+0EfsYfiqHTjmfpJpynn8bRb+hjyT+tUAtub/2Hl/28fwopnAOU0s0zKbrRUo04p6Xybbsr96VmXTNot8EyVt/V47fyorvoxpuGLr3TXVhzTXbICxZ7haWU5BiJ4enCnJ07Nwio+F9u7UznvC+LngMY6lPDOvJKyspPo79u0XZu1vidZx+FjjsFOlLlOLi/C6tf3czldGri+Dc1d4pX6vWT0VY9jT+/vXxQG9xHj8Tn1CKlgKkJRd1NQqt23vH2OXb7if4JhVo8MVoVYThplU0qUZR2cU9k1yvf7yvYrjDHZtXhCgtDvdRppycn43vde63eX+h0/wChH6xp6Xo5atK2vZ7c3v5bXA536PcFTxue/SJSUKbmk905JxSdu22q/wAC9cYYKnjOH6rmlenCU4vti4q6s/G1vec0yD1rC43pMPBudOLk1pb1R2Ulbt53st9r9hv51xliM2wbpNQhGXtab3l4Xb2QEh6MKjWa1Y9jppvzjJJfiZC8O0I5rxTBVt1Oc5ST/aaUp2fm0XH0e5LPAYadaqnGVSyjF7NRW92uy7+SKtxFltbh3POkhdRc9dKolsru+l9l1ys+aA6djsvpY7AulOK0NWtZdXua7mjm/o3d+Il9lP8A9TaXF2Nzqn0FGnBTmrSlFSul2vd2gvHc8PR1TlHiK7i0ujnzTX1QNni7IsVhc7liqMXOLlGonFanTlG3OParq97W7z3y/juFecVjKEXpd1Uir6Xy1aHunu+Tv4Gzn/FWLyfO7TopUU3bn9KuxqdrJ+FtvHmVviLNlxLmEOgw+mdmtutKpe1r2XZb72BavSLi9fD9Po5XjVnF3XKUbSkvvs/cV7hXNa2U4aTo4KVVye9VKpyVurdRey8+0tON4cniuDaeHbXS04xkt9taveN+60nH4FOyfiDE8MTlScFa93TqKScXyun428UA4g9YzrGKp6lUpytaWmnUevub6q37Ph3HSOHJTeQ0ekTU1TimpJp7bbp732KNgeIsyzvN08PZW2cVFunFd827/G9+46TG+nfn2gZAAAAAAAAAAFJp4XXjZVantOUml9W7fPx+RtljxWChiVurPvX+dyGxeAnh9+a71+ZyHG8tz4pm3qj4+4W2Piq5Ok9Japp5u2srq2+pL5M2z5qwVWm4vk00/J7MrMdoreLT7SntG4mHOKVOVWooxTbbskldtvkku0vuFwmZ0uFnhlhoWcZRTdSCkozu2tN7X3e915FPhKrkWbpq2um7xbV073Sdu5pk1/t7jf8Apf8Ag/8A6PoFbRaItXylRzGp1LbxNbH5zkDwyw8b0XCNRakp9VJw6jta9k7pu9nYpk4uDaaaaummrNNc012E9R4vxVHHVKq6PVUUFLqO1oX02Wrb2meGV4KpxJn269ueuo0rKKbvL+5GTx1bK5ynltJy9p04N+bSubRhKy2AAzcwABkwABicFUjaSTXc1cyAPilRhRXVio+SS+RG4LN/Wc5qUtNoq6pz/wCY6dlWX8rlFe5m5mdWpRwE5Uo66ii9Ee+T2V/C+78LkHUyKpl+CpzpVatSdBqapvo7Tv8A1qVop3kpS5vm0BYniIKDbnG0b6nqVo253fYQeaZnTh6yqWjpqNNTUuo229V9ufVsr+aNbHwq+pYqgqNRyrzk6clHq2qKKvKXKOne6fd2nvmuAnW9c002+koU4xsl12uk1JfFATVDG0sVVlGnUhNxdpKM4ycf4knt7z5pYyhi6koRqU5uPtQUoycf4op7e8js0y+VXMI9DHR/RsRS1pJKDl0XRrbutJryZpZRg5es4fUsQnRTupQoQhS6ri4qUYJ1E29tLa2TfICbw2LwyrdHSqUtTWrRGULtc76U7mvhs2WYRfQ1Ka01tEryUtUd/Zs1Zyttz5PmaOFy2VLJcHHo7Tp1KcpKyvHnrb+O59RwE4x2p2/pvScl7F3aXkBL1sZQ9Y6KdSnrlypylC8v5G7v4HxSxWGo13CM6UZq2qClTTV7JXit1u0veRmVJ4KrOnUw85TlWnPpVBSjNSk5Qm5/s6U0rPdadiPWEn+h6dB4abq06tOUqmmOl2qRlOqp362pX257u/ICbWarE1KsKU6cZUpwjeUk1JPQ5bJpr2nBfvL3GzjMTh4VYwrTpKUvZjOULv8AhUufuInGYGpP1nTTfXxGHlHZdaMeg1NeWmXwZirT9Wr4mNTDTrOtK8ZRipKpFxjGMJSfsaWmt7LtAma+LoYCHXqU6aVvalCCV9lza7mbEJqpBOLTT3TTumu9Mhcpy2eHx1N1lqcMLTpuo97yTlrSb37vM2uH8PLC5TGEo6WnPq9y1ycfuaAkQAAAAAAAAAAAAGji8shX3XVfhyfmjRhlFRz3aS77/kTgK/NyzhstvFavX46J6cRkrGolC5hwxh8wwumaersqL2o+XZbwKfi+AMVTq/Rzpzj2NtxfvVn8zpQN2lK0rFaxqIQzMzO5c3wXAGJqVfpZwhHts3J+5WS+8vWT5TSyfCaKS85PnJ97ZvAzeAAAAAAAAAAAAAAAAAAAAAAAAAAAAAAAAAAAAAAAAAAAAAAAAAAAAAAAAAAAAAAAAAAAAAAAAAAAAAAAAAAAAAAAAAAAAAAAAAAAAAAAAAAAAAAAAAAAAAAAAAAAAAAAAAAAAAAAAAAAAAAAAAAAAAAAAAAAAAAAAAAAAAAAAAAAAAAAAAAAAAAAAAAA/9k=;" vertex="1" parent="1">
          <mxGeometry x="300" y="150.00000000000003" width="161" height="89.33" as="geometry" />
        </mxCell>
        <mxCell id="uTAIC4A_mwOgiY2apxrA-23" value="" style="endArrow=classic;html=1;rounded=0;" edge="1" parent="1">
          <mxGeometry width="50" height="50" relative="1" as="geometry">
            <mxPoint x="220.5" y="364.63" as="sourcePoint" />
            <mxPoint x="300" y="242.81" as="targetPoint" />
          </mxGeometry>
        </mxCell>
        <mxCell id="uTAIC4A_mwOgiY2apxrA-25" value="" style="endArrow=classic;html=1;rounded=0;" edge="1" parent="1">
          <mxGeometry width="50" height="50" relative="1" as="geometry">
            <mxPoint x="319.5" y="254.71" as="sourcePoint" />
            <mxPoint x="240" y="376.53" as="targetPoint" />
          </mxGeometry>
        </mxCell>
        <mxCell id="uTAIC4A_mwOgiY2apxrA-26" value="" style="endArrow=classic;html=1;rounded=0;" edge="1" parent="1">
          <mxGeometry width="50" height="50" relative="1" as="geometry">
            <mxPoint x="500" y="400.67" as="sourcePoint" />
            <mxPoint x="410" y="260" as="targetPoint" />
          </mxGeometry>
        </mxCell>
        <mxCell id="uTAIC4A_mwOgiY2apxrA-27" value="" style="endArrow=classic;html=1;rounded=0;" edge="1" parent="1">
          <mxGeometry width="50" height="50" relative="1" as="geometry">
            <mxPoint x="430" y="260" as="sourcePoint" />
            <mxPoint x="520" y="400.66999999999996" as="targetPoint" />
          </mxGeometry>
        </mxCell>
        <mxCell id="uTAIC4A_mwOgiY2apxrA-28" value="(1) 認証" style="text;strokeColor=none;align=center;fillColor=none;html=1;verticalAlign=middle;whiteSpace=wrap;rounded=0;" vertex="1" parent="1">
          <mxGeometry x="190" y="280" width="60" height="30" as="geometry" />
        </mxCell>
        <mxCell id="uTAIC4A_mwOgiY2apxrA-29" value="(2) idToken取得" style="text;strokeColor=none;align=center;fillColor=none;html=1;verticalAlign=middle;whiteSpace=wrap;rounded=0;" vertex="1" parent="1">
          <mxGeometry x="280" y="310" width="70" height="30" as="geometry" />
        </mxCell>
        <mxCell id="uTAIC4A_mwOgiY2apxrA-30" value="(3) HTTP Request with idToken" style="text;strokeColor=none;align=center;fillColor=none;html=1;verticalAlign=middle;whiteSpace=wrap;rounded=0;" vertex="1" parent="1">
          <mxGeometry x="310" y="460" width="110" height="30" as="geometry" />
        </mxCell>
        <mxCell id="uTAIC4A_mwOgiY2apxrA-33" value="(4) verify idToken" style="text;strokeColor=none;align=center;fillColor=none;html=1;verticalAlign=middle;whiteSpace=wrap;rounded=0;" vertex="1" parent="1">
          <mxGeometry x="370" y="358" width="110" height="30" as="geometry" />
        </mxCell>
        <mxCell id="uTAIC4A_mwOgiY2apxrA-34" value="(5) success verification" style="text;strokeColor=none;align=center;fillColor=none;html=1;verticalAlign=middle;whiteSpace=wrap;rounded=0;" vertex="1" parent="1">
          <mxGeometry x="450" y="270" width="110" height="30" as="geometry" />
        </mxCell>
        <mxCell id="uTAIC4A_mwOgiY2apxrA-35" value="(6) HTTP Response" style="text;strokeColor=none;align=center;fillColor=none;html=1;verticalAlign=middle;whiteSpace=wrap;rounded=0;" vertex="1" parent="1">
          <mxGeometry x="310" y="530" width="110" height="30" as="geometry" />
        </mxCell>
      </root>
    </mxGraphModel>
  </diagram>
</mxfile>
